<?xml version="1.0" standalone="no"?>
<!DOCTYPE svg PUBLIC "-//W3C//DTD SVG 1.1//EN" "http://www.w3.org/Graphics/SVG/1.1/DTD/svg11.dtd" >
<svg xmlns="http://www.w3.org/2000/svg">
<metadata>
Created by FontPrep 20130207 at Wed Jun  3 09:35:01 2015
 By Nico Watine
Copyright (c) 2012 by Brian J. Bonislawsky DBA Astigmatic (AOETI) (astigma@astigmatic.com), with ReservedFont Name "Parisienne"
</metadata>
<defs>
<font id="1d22900623fa53f8ea3f4e9e03fd0e84" horiz-adv-x='1024' >
  <font-face 
    font-family="Parisienne-Regular"
    font-weight="400"
    font-stretch="normal"
    units-per-em="2048"
    panose-1="3 2 5 7 0 0 0 2 0 2"
    ascent="1638"
    descent="-410"
    x-height="722"
    cap-height="1558"
    bbox="-660 -915 3400 1875"
    underline-thickness="20"
    underline-position="-113"
    unicode-range="U+0020-FB02"
  />
<missing-glyph horiz-adv-x="600" 
 />
    <glyph glyph-name="fi" unicode="fi" horiz-adv-x="906" 
d="M840 811q0 69 53 113q17 14 39 14t36 -16q15 -16 15 -36q1 -41 -35 -79q-36 -39 -72 -39t-36 43zM791 1414q-3 39 -30 39q-123 0 -295 -322q-69 -129 -147 -320q-79 -191 -134 -321q189 132 403 454q213 321 203 470zM-64 293q21 0 37 -13q185 443 273 620
q88 178 151 282q113 188 197 259t139 71q112 0 120 -87q7 -87 -69 -255q-76 -169 -176 -305q-269 -367 -458 -461l-139 -333q31 -25 99 -25q128 0 259 121q80 74 156 193q61 108 136 197t103 122l32 -14q-14 -27 -37 -69t-50 -92q-156 -292 -156 -389q-1 -52 43 -52
q74 -1 160 97q43 49 150 213l36 -28q-83 -148 -137 -210q-113 -127 -227 -127q-60 0 -92 36t-32 93q0 18 5 53q-170 -196 -362 -196q-58 0 -106 27l-258 -634l-105 52l293 719q-27 39 -31 71q-4 33 10 49t36 15z" />
    <glyph glyph-name="fl" unicode="fl" horiz-adv-x="1096" 
d="M1259 1403q-65 -1 -193 -153q-214 -254 -342 -586q-44 -114 -65 -223q261 269 441 529q115 166 151 260q35 94 35 134t-27 39zM791 1414q-3 39 -30 39q-123 0 -295 -322q-69 -129 -147 -320q-79 -191 -134 -321q189 132 403 454q213 321 203 470zM-64 293q21 0 37 -13
q185 443 273 620q88 178 151 282q113 188 197 259t139 71q112 0 120 -87q7 -87 -69 -255q-76 -169 -176 -305q-269 -367 -458 -461l-143 -344q16 -4 62 -4q45 0 115 26q167 63 348 234q15 229 144 498t299 455t283 186q82 0 82 -79q0 -122 -160 -384q-108 -178 -357 -456
q-72 -81 -118 -123t-64 -61q-7 -38 -7 -72v-64q0 -171 108 -171q108 1 262 199q28 36 52 70q23 34 40 59l37 -28q-36 -72 -100 -149t-107 -115q-100 -88 -187 -88q-135 -1 -187 137q-18 48 -21 114q-171 -160 -347 -218q-68 -22 -120 -22t-77 8l-254 -625l-105 52l293 719
q-27 39 -31 71q-4 33 10 49t36 15z" />
    <glyph glyph-name=".notdef" horiz-adv-x="600" 
 />
    <glyph glyph-name=".null" horiz-adv-x="0" 
 />
    <glyph glyph-name="nonmarkingreturn" horiz-adv-x="600" 
 />
    <glyph glyph-name="space" unicode=" " horiz-adv-x="600" 
 />
    <glyph glyph-name="exclam" unicode="!" horiz-adv-x="761" 
d="M196 62q0 -30 -22 -50q-22 -22 -51 -22t-51 22t-22 50q0 30 22 52t51 21q29 1 51 -21t22 -52zM235 243l-43 17l553 1235l116 -53z" />
    <glyph glyph-name="quotedbl" unicode="&#x22;" horiz-adv-x="669" 
d="M583 1068h-48l146 376h125zM414 1068h-48l146 376h125z" />
    <glyph glyph-name="numbersign" unicode="#" horiz-adv-x="1024" 
d="M376 515h236l133 345h-236zM153 101l138 359h-152l22 55h151l133 345h-152l21 55h152l127 329h64l-127 -329h236l127 329h64l-127 -329h159l-22 -55h-158l-133 -345h159l-22 -55h-158l-138 -359h-64l138 359h-236l-138 -359h-64z" />
    <glyph glyph-name="dollar" unicode="$" horiz-adv-x="843" 
d="M522 1071q0 -54 6 -96l178 372q-125 -29 -168 -169q-16 -52 -16 -107zM518 402q0 71 -14 144l-187 -391q95 17 148 97q53 79 53 150zM763 1353h-3l-218 -456q7 -36 25 -112l266 555q-37 13 -70 13zM488 620q-7 26 -13 54t-13 56l-273 -570q33 -9 74 -9zM422 1004
q0 186 88 286q88 101 223 112l130 271l42 -18l-121 -253q38 -3 71 -15l138 286l42 -18l-138 -287q68 -37 106 -93l-44 -34q-24 43 -84 80l-291 -609q34 -148 34 -226q0 -165 -91 -270t-236 -114l-152 -319l-43 19l144 300q-41 3 -72 13l-159 -332l-43 19l158 329
q-108 51 -164 179l50 23q59 -117 136 -156l300 625q-24 110 -24 202z" />
    <glyph glyph-name="percent" unicode="%" horiz-adv-x="1470" 
d="M1174 609q-46 0 -112 -38q-65 -38 -116 -98q-114 -134 -114 -282q0 -83 42 -125t96 -42q56 0 100 20t84 52q82 67 133 167q52 99 52 164t-13 97q-14 32 -34 50q-20 19 -46 27t-72 8zM1160 668q113 0 170 -63q56 -63 56 -154q0 -164 -130 -318q-130 -153 -280 -153
q-102 0 -165 63t-63 161t34 180t94 146q60 62 138 100t146 38zM200 -20l1114 1464h84l-1114 -1464h-84zM658 1385q-46 0 -112 -38q-65 -38 -116 -98q-114 -134 -114 -282q0 -83 42 -125t96 -42q56 0 100 20t84 52q82 67 133 167q52 99 52 164t-13 97q-14 32 -34 50
q-20 19 -46 27t-72 8zM644 1444q113 0 170 -63q56 -63 56 -154q0 -164 -130 -318q-130 -153 -280 -153q-102 0 -165 63t-63 161t34 180t94 146q60 62 138 100t146 38z" />
    <glyph glyph-name="ampersand" unicode="&#x26;" horiz-adv-x="1716" 
d="M1043 997q0 51 -29 78q-53 49 -120 49q-138 0 -236 -98t-98 -288q0 -38 5 -68q251 88 324 129q154 86 154 198zM236 87q72 -66 213 -66q142 0 273 58q-143 157 -219 373q-23 66 -35 130q-146 -62 -201 -114q-103 -97 -103 -206t72 -175zM1282 271q-43 0 -82 -7l-10 36
q48 9 104 9q124 0 223 -72t99 -185q0 -114 -91 -182q-91 -69 -231 -69q-300 0 -533 237q-157 -73 -292 -73q-232 0 -330 79q-99 79 -99 203q0 195 261 319q76 36 159 67q-6 46 -6 120t38 158t100 143q129 124 291 124q97 0 157 -52t59 -116q1 -64 -21 -106t-60 -75
q-38 -34 -88 -62t-108 -52q-58 -25 -122 -47q-63 -22 -126 -45q57 -265 237 -497q181 107 241 269q20 53 19 99q0 46 -7 70t-8 31l51 14q17 -47 17 -106q0 -114 -76 -226t-203 -193q203 -240 427 -240q172 0 233 120q21 42 21 96t-21 92t-56 66q-35 26 -79 40t-88 13z" />
    <glyph glyph-name="quotesingle" unicode="'" horiz-adv-x="500" 
d="M414 1068h-48l146 376h125z" />
    <glyph glyph-name="parenleft" unicode="(" horiz-adv-x="702" 
d="M90 245q0 392 245 712t651 484l16 -42q-184 -75 -360 -239q-308 -286 -406 -673q-36 -139 -35 -273q0 -220 51 -402q23 -84 95 -262l-45 -23q-212 395 -212 718z" />
    <glyph glyph-name="parenright" unicode=")" horiz-adv-x="702" 
d="M552 726q0 -392 -245 -712t-651 -484l-16 42q184 75 360 239q308 286 406 673q36 139 35 273q0 219 -51 401q-23 84 -95 263l45 23q212 -395 212 -718z" />
    <glyph glyph-name="asterisk" unicode="*" horiz-adv-x="700" 
d="M459 1123l-151 -227l-78 64l183 180l-240 78l40 92l222 -127l-26 261h101l-28 -260l223 126l40 -92l-239 -78l183 -180l-78 -64z" />
    <glyph glyph-name="plus" unicode="+" 
d="M463 655l-131 -269h-63l131 269h-270l27 55h270l130 267h63l-130 -267h269l-27 -55h-269z" />
    <glyph glyph-name="comma" unicode="," horiz-adv-x="350" 
d="M20 64q0 32 22 52t52 20t50 -22t21 -52q0 -58 -57 -116q-57 -57 -133 -87l-19 32q95 47 124 102q-60 13 -60 71z" />
    <glyph glyph-name="hyphen" unicode="-" 
d="M100 385l37 75h502l-37 -75h-502z" />
    <glyph glyph-name="period" unicode="." horiz-adv-x="350" 
d="M166 62q0 -30 -22 -50q-22 -22 -51 -22t-51 22t-22 50q0 30 22 52t51 21q29 1 51 -21t22 -52z" />
    <glyph glyph-name="slash" unicode="/" horiz-adv-x="868" 
d="M-200 -99l1284 1543h84l-1284 -1543h-84z" />
    <glyph glyph-name="zero" unicode="0" horiz-adv-x="1410" 
d="M1065 1393q-73 0 -165 -35t-187 -99q-205 -140 -347 -365q-141 -226 -141 -477q0 -182 94 -284q94 -101 251 -101q219 0 433 194q213 194 323 450q72 169 72 312q0 144 -66 213t-165 69q-161 0 -300 -181l-43 33q156 201 341 201q127 0 206 -91t79 -249q0 -244 -168 -509
q-168 -266 -401 -402q-165 -97 -322 -96q-206 0 -328 136q-121 136 -121 332q0 254 132 485t352 373t471 142q91 0 170 -32l-18 -40q-79 21 -152 21z" />
    <glyph glyph-name="one" unicode="1" horiz-adv-x="812" 
d="M952 1388l-697 -1400l-115 52q144 271 232 438q271 515 381 699q-253 -233 -562 -413q-25 -14 -26 -15l-25 46q1 1 39 23q37 22 99 61q408 265 630 537z" />
    <glyph glyph-name="two" unicode="2" horiz-adv-x="1482" 
d="M83 96q0 -31 30 -52t92 -21q122 0 304 85q-167 70 -257 70q-91 0 -130 -26q-39 -25 -39 -56zM660 102q214 -93 307 -93t153 16l14 -50q-68 -19 -130 -19q-104 0 -195 29q-90 29 -216 85q-219 -99 -366 -99q-147 -1 -189 67q-14 24 -14 50q0 56 52 98t169 42t329 -88
q316 164 570 436q173 186 244 370q36 94 36 182q0 164 -107 235q-107 70 -278 70q-172 0 -343 -87t-280 -219q-108 -132 -108 -252t79 -173t203 -53t217 32q26 9 49 17l15 -43q-137 -61 -308 -61q-257 0 -341 145q-30 51 -29 129q0 78 36 157t98 148q124 138 323 225
q199 88 396 88q332 0 438 -208q38 -74 38 -173t-35 -194t-96 -188q-119 -181 -316 -347q-198 -166 -415 -274z" />
    <glyph glyph-name="three" unicode="3" horiz-adv-x="1261" 
d="M568 719q74 0 206 101q-40 9 -82 9q-79 0 -129 -23t-50 -55q1 -10 11 -21t44 -11zM1384 1441l31 -41q-48 -52 -109 -122q-263 -304 -423 -440q193 -78 255 -255q22 -62 21 -148q-1 -87 -29 -173t-78 -160q-101 -147 -273 -231q-172 -85 -368 -85t-329 99
q-132 99 -132 261q0 163 132 288l37 -38q-111 -107 -111 -242t98 -212t261 -77q271 -1 476 177q130 112 182 272q26 80 26 152q0 127 -57 212q-57 84 -155 123q-171 -133 -289 -133q-45 0 -68 24t-23 50q0 55 58 94t147 39t157 -17q147 123 373 373q60 66 113 125
q-158 -48 -384 -48t-455 50q-44 10 -50 11l14 56q2 0 44 -10q225 -53 478 -53t430 79z" />
    <glyph glyph-name="four" unicode="4" horiz-adv-x="1344" 
d="M525 569q104 -1 225 -19q122 -18 165 -22l309 744l59 -18l-265 -732q104 2 171 25t87 34l20 11l28 -44q-14 -14 -106 -46q-91 -32 -219 -32l-202 -559l-125 29l222 536q-44 5 -88 12q-176 28 -280 28q-246 0 -476 -109l-30 42q218 291 635 1065l108 -53
q-119 -237 -298 -512t-328 -448q191 68 388 68z" />
    <glyph glyph-name="five" unicode="5" horiz-adv-x="1341" 
d="M247 708q0 -41 42 -41q43 0 95 65q53 65 101 193q-161 -75 -219 -167q-18 -30 -19 -50zM955 1252q-107 0 -229 57q-36 17 -63 38q-19 -86 -43 -165t-49 -170q109 30 216 30q217 0 350 -119q134 -119 134 -339t-121 -426t-321 -335t-410 -129t-355 109q-144 109 -144 302
q0 121 55 195l42 -31q-44 -60 -44 -151q0 -167 109 -263q109 -97 285 -97t365 128t309 329q120 200 120 397t-112 287t-300 90q-90 0 -197 -37q-55 -163 -127 -249t-144 -86q-33 0 -59 23t-26 59q0 74 89 158t223 134q30 102 60 201t56 214l35 18q139 -55 331 -55t335 55
l16 -41q-183 -131 -386 -131z" />
    <glyph glyph-name="six" unicode="6" horiz-adv-x="1416" 
d="M1485 1178q0 111 -78 186t-199 75q-244 0 -521 -238q-277 -237 -421 -563q-102 -230 -101 -439q0 -313 181 -401q62 -30 156 -30t192 42t183 114q166 137 275 343q109 207 109 362t-87 242q-87 86 -250 86q-162 0 -335 -114t-285 -340l-47 23q118 240 307 362t377 122
q187 0 301 -118t114 -310t-113 -397t-303 -343t-404 -138t-340 140t-126 420t165 573t420 477q254 185 505 185q188 0 282 -95t94 -237q0 -59 -16 -119l-50 16q2 3 8 33q6 29 7 81z" />
    <glyph glyph-name="seven" unicode="7" horiz-adv-x="1070" 
d="M1400 1391q-600 -512 -958 -1009q-294 -408 -498 -871l-144 37q248 600 887 1265q280 290 587 539q-382 -96 -816 -5q-109 23 -152 40l17 49q1 -2 44 -14t117 -26q495 -98 890 40z" />
    <glyph glyph-name="eight" unicode="8" horiz-adv-x="1474" 
d="M148 -210q192 0 322 229t152 590q-506 -239 -612 -489q-32 -74 -31 -128q0 -202 169 -202zM1572 1343q0 159 -96 247t-249 88q-289 0 -428 -254q-128 -234 -120 -661q290 126 401 205q112 79 178 157t100 179l46 -12q-94 -319 -484 -532q-116 -63 -243 -124
q-17 -398 -167 -650q-70 -118 -164 -184q-93 -66 -207 -65q-114 0 -186 77q-73 77 -73 203q0 234 218 423q170 147 527 300q-9 737 341 929q114 62 232 62q214 0 345 -111t131 -297t-139 -345q-139 -160 -337 -232l-13 40q387 179 387 557z" />
    <glyph glyph-name="nine" unicode="9" horiz-adv-x="1406" 
d="M1 24q0 -111 78 -186t199 -75q244 0 521 238q277 237 421 563q102 230 101 439q1 314 -181 401q-62 30 -158 30q-94 0 -191 -42t-182 -114q-166 -137 -275 -343q-109 -207 -109 -362t87 -242q87 -86 250 -86q162 0 335 114t285 340l47 -23q-118 -240 -307 -362t-377 -122
q-187 0 -301 118t-114 310t113 397t303 343t404 138t340 -140t126 -420t-165 -573t-420 -477q-254 -185 -505 -185q-188 0 -282 95t-94 237q0 59 16 119l50 -16q-2 -3 -8 -33q-6 -29 -7 -81z" />
    <glyph glyph-name="colon" unicode=":" horiz-adv-x="440" 
d="M440 588q0 -30 -22 -50q-22 -22 -51 -22t-51 22t-22 50q0 30 22 52t51 21q29 1 51 -21t22 -52zM186 62q0 -30 -22 -50q-22 -22 -51 -22t-51 22t-22 50q0 30 22 52t51 21q29 1 51 -21t22 -52z" />
    <glyph glyph-name="semicolon" unicode=";" horiz-adv-x="440" 
d="M40 64q0 32 22 52t52 20t50 -22t21 -52q0 -58 -57 -116q-57 -57 -133 -87l-19 32q95 47 124 102q-60 13 -60 71zM440 588q0 -30 -22 -50q-22 -22 -51 -22t-51 22t-22 50q0 30 22 52t51 21q29 1 51 -21t22 -52z" />
    <glyph glyph-name="less" unicode="&#x3c;" 
d="M225 684l503 390l33 -42l-462 -357l217 -349l-49 -32z" />
    <glyph glyph-name="equal" unicode="=" 
d="M171 785l27 55h592l-27 -55h-592zM103 524l27 55h592l-27 -55h-592z" />
    <glyph glyph-name="greater" unicode="&#x3e;" 
d="M661 684l-503 -390l-34 43l465 360l-216 348l46 29z" />
    <glyph glyph-name="question" unicode="?" horiz-adv-x="1136" 
d="M486 62q0 -30 -22 -50q-22 -22 -51 -22t-51 22t-22 50q0 30 22 52t51 21q29 1 51 -21t22 -52zM445 372q0 62 31 117q32 55 82 100t114 83t132 77q176 100 246 168q112 109 113 239q0 130 -80 184q-80 55 -180 55q-183 0 -311 -96q-127 -96 -127 -210q-1 -113 87 -140
q26 -8 82 -8t119 27l9 -41q-90 -38 -160 -38q-124 0 -185 45q-62 45 -62 128q0 155 166 268t377 113q162 0 267 -80t105 -223q0 -210 -246 -364q-78 -49 -215 -122q-139 -74 -193 -114q-122 -90 -121 -192q0 -39 14 -74l-40 -23q-24 59 -24 121z" />
    <glyph glyph-name="at" unicode="@" horiz-adv-x="1673" 
d="M742 694q-156 -156 -156 -322q0 -113 104 -113q132 1 252 147q34 40 66 80q13 22 32 54q71 122 116 187q0 120 -120 120q-91 0 -198 -73q-50 -34 -96 -80zM619 -180q-243 0 -391 145t-148 410t145 491t373 356q228 129 462 129q233 0 393 -134t160 -370q-1 -132 -67 -286
q-108 -250 -292 -341q-63 -31 -117 -31q-89 -1 -129 39t-39 100q0 2 1 8t3 22q2 15 3 19q-120 -139 -242 -163q-38 -8 -75 -8q-77 0 -131 50q-53 50 -53 129t26 143t69 120q85 111 210 183t220 72q176 0 196 -124q22 28 87 101l32 -14q-13 -26 -37 -68t-54 -94
q-166 -298 -166 -384t75 -86q100 0 187 102t139 249q52 146 52 253q0 208 -114 330q-114 121 -313 121t-413 -141q-213 -141 -350 -373t-137 -484q0 -186 112 -302q112 -117 304 -117q79 0 160 24q82 24 108 36l27 -45q-150 -67 -276 -67z" />
    <glyph glyph-name="A" unicode="A" horiz-adv-x="2330" 
d="M1771 179q-100 320 -250 544q-160 -181 -297 -347q178 -98 434 -169q66 -18 113 -28zM916 749q0 -187 262 -346q171 208 311 365q-164 215 -327 215q-105 0 -176 -67q-70 -67 -70 -167zM2414 1301q0 35 -27 51t-62 17q-220 0 -765 -603q126 -194 255 -558
q262 570 549 984q50 74 50 109zM2480 1284q0 -62 -40 -141t-106 -189q-220 -362 -413 -801q94 -12 152 -10l2 -52q-91 0 -176 12q-64 -149 -64 -154l-119 37l60 137q-352 79 -590 208q-352 -406 -694 -406q-208 0 -370 117t-162 306q0 153 107 237q107 83 274 83
q220 0 371 -126q55 -46 94 -114l-44 -28q-19 38 -73 75t-129 68t-177 31q-103 0 -159 -26t-94 -64q-74 -78 -74 -184q0 -197 238 -286q358 -133 712 204q72 68 133 139q-314 189 -314 440q0 116 81 199t199 83q232 0 424 -267q546 609 798 609q61 0 94 -27q59 -48 59 -110z
" />
    <glyph glyph-name="B" unicode="B" horiz-adv-x="2068" 
d="M1360 665q0 -26 93 -37q25 -3 52 -3t58 7q-69 51 -173 51q-30 0 -30 -18zM154 280q0 -301 315 -301q95 1 184 45t159 121t125 179t109 219q54 116 110 239q147 322 361 556q-80 19 -201 19q-120 1 -266 -41t-280 -116q-271 -151 -443 -402q-173 -250 -173 -518z
M1881 1156q57 -100 57 -215t-69 -209t-168 -129q192 -158 192 -376q0 -169 -128 -290q-128 -122 -295 -122t-276 91t-156 236l50 15q37 -119 122 -185t220 -66t245 103q111 103 111 251q0 176 -161 321q-59 -11 -101 -11q-86 0 -152 24q-65 24 -65 67t44 63q19 8 52 9
q109 0 228 -81q136 60 188 203q19 52 19 117q0 114 -63 205t-187 139q-213 -298 -377 -683q-164 -386 -330 -547t-429 -161q-201 0 -301 123q-101 123 -101 315q0 281 226 559q294 362 738 464q124 28 273 28t270 -33q57 57 95 92l29 -35q-41 -51 -59 -77q179 -65 259 -205z
" />
    <glyph glyph-name="C" unicode="C" horiz-adv-x="1316" 
d="M857 614q63 0 133 30t130 79q114 94 185 236q71 143 71 255t-63 172t-162 60q-97 0 -191 -34t-182 -91q-88 -59 -169 -137t-151 -168q-139 -179 -224 -380t-85 -371q0 -169 106 -289t302 -121q308 1 577 279q95 98 182 239l36 -28q-175 -285 -400 -425
q-190 -119 -389 -118q-243 0 -383 157t-140 369q0 255 194 568q125 202 299 357q175 155 377 219q102 32 186 33q164 0 259 -82q94 -82 94 -248q-1 -125 -71 -267q-122 -244 -334 -328q-76 -30 -163 -30q-158 0 -271 106l30 33q6 -13 43 -33t74 -31t100 -11z" />
    <glyph glyph-name="D" unicode="D" horiz-adv-x="2000" 
d="M198 -37q0 -60 138 -60t258 87q-155 40 -237 40q-83 0 -121 -20t-38 -47zM1791 719q0 282 -182 464q-59 59 -135 101q-119 -171 -246 -459q-53 -120 -104 -238q-50 -117 -106 -225q-125 -241 -267 -361q201 -55 351 -55t284 60t224 166q181 210 181 547zM1089 1436
q181 0 355 -79q57 61 123 114l31 -33q-50 -53 -93 -111q187 -103 291 -283t104 -393q0 -311 -177 -521q-202 -240 -603 -241q-154 0 -421 72q-163 -110 -375 -110q-132 1 -168 67q-10 20 -11 42q0 51 53 87q111 74 448 -16q124 111 250 361q56 110 108 229q211 472 404 696
q-157 67 -350 67q-355 0 -625 -197q-163 -119 -227 -271q-32 -74 -32 -135q0 -110 71 -180t188 -70q116 1 272 95q44 27 52 34l32 -42q-243 -160 -432 -160q-124 0 -210 80q-87 80 -87 215t127 298t357 274q229 111 545 111z" />
    <glyph glyph-name="E" unicode="E" horiz-adv-x="1337" 
d="M892 587q54 0 54 34q0 78 -244 83q56 -82 142 -109q26 -8 48 -8zM1448 1217q0 142 -220 142q-135 -1 -278 -75q-134 -70 -216 -182q-84 -114 -84 -231q0 -59 22 -112q327 -9 327 -140q0 -40 -30 -61q-31 -21 -71 -21q-77 0 -151 45q-75 45 -127 120q-223 -18 -369 -162
t-146 -339q0 -161 107 -252q107 -92 312 -92q356 0 686 359q52 56 85 100q32 44 42 57l36 -28q-87 -125 -150 -192q-321 -348 -721 -348q-255 0 -388 119q-134 119 -134 309t141 339q163 173 465 187q-38 76 -38 155q0 80 26 148t72 126q88 111 234 177q147 66 299 66
q229 -1 299 -127q22 -40 22 -88q0 -50 -22 -96t-58 -84q-72 -74 -185 -115q-114 -42 -227 -42q-18 0 -29 1t-13 1l6 52q3 -1 8 -1h24q164 0 304 82t140 203z" />
    <glyph glyph-name="F" unicode="F" horiz-adv-x="1622" 
d="M1557 693q0 12 -15 12q-26 0 -84 -114q99 38 99 102zM990 640q-175 -80 -357 -80t-300 95t-118 260t121 287q205 206 662 206q147 0 321 -28t263 -42q89 -13 180 -13t173 15q82 16 141 34q58 18 92 34t35 15l25 -46q-32 -21 -115 -48q-181 -57 -329 -57t-312 28t-260 40
t-234 12t-262 -32q-126 -32 -210 -90q-170 -118 -171 -328q0 -136 97 -209t238 -73t273 56q25 10 26 10zM635 293q-127 127 -321 127q-103 0 -176 -55t-73 -164q1 -109 101 -183t221 -75q122 -1 203 37t167 120t232 322q-63 -20 -115 -40l-19 49q46 15 88 28l84 26
q163 272 245 379q172 225 364 351l29 -31q-1 0 -37 -36t-96 -108q-159 -192 -303 -443l-39 -68q66 16 136 28l45 9q105 191 183 191q19 0 37 -13q18 -14 18 -44q0 -57 -50 -102q-50 -46 -130 -66q-19 -40 -39 -82q-76 -160 -135 -248l-71 67q98 119 146 216l14 30
q-123 -27 -188 -44q-76 -131 -150 -239t-157 -184q-173 -160 -410 -160q-183 0 -331 97t-148 253q0 126 92 198t244 72t296 -108q46 -34 81 -78z" />
    <glyph glyph-name="G" unicode="G" horiz-adv-x="1452" 
d="M1336 1307q0 120 -133 120q-153 0 -301 -114q-226 -173 -320 -475q-30 -98 -39 -199q374 105 599 316q98 92 146 184t48 168zM1171 1484q217 0 217 -177q0 -209 -234 -415t-613 -311q0 -134 65 -226q65 -93 185 -93q121 0 275 107q153 107 259 242q105 135 203 233
l36 -38q-195 -188 -403 -601q-119 -235 -203 -344q-84 -108 -164 -167q-171 -126 -416 -126t-391 110q-147 110 -147 279q0 168 102 255t235 87t229 -81l-29 -41q-83 69 -154 69q-129 0 -198 -80q-70 -80 -70 -207q0 -158 123 -248q123 -91 283 -91q287 0 463 249
q52 73 103 157q50 84 103 172t121 171q-224 -185 -416 -185q-131 0 -224 95t-99 271q-113 -24 -255 -37l-4 52q148 17 260 41q10 236 130 437q120 202 294 321q175 120 334 120z" />
    <glyph glyph-name="H" unicode="H" horiz-adv-x="2205" 
d="M2273 1410q1 24 -17 44t-58 20t-82 -24q-44 -24 -89 -64q-160 -148 -337 -502q221 114 423 280q160 131 160 246zM74 34q0 -78 124 -78q64 0 156 44t186 122q193 160 352 413l-62 -18q-570 -169 -718 -373q-38 -52 -38 -110zM1769 583q265 -38 265 -301q0 -152 -105 -270
q-105 -119 -254 -119q-232 1 -290 201q-18 62 -18 140q0 212 127 501q-191 -78 -452 -155q-183 -283 -449 -489q-265 -206 -458 -206q-104 0 -147 51q-44 51 -44 97q0 83 61 161t170 134q180 92 351 151t410 130q158 277 210 507q18 76 18 132q0 104 -60 165q-60 60 -158 60
q-98 -1 -182 -23q-86 -22 -160 -60t-134 -89t-102 -108t-65 -117t-23 -115q0 -101 83 -151q64 -39 161 -38q97 0 202 45l22 -48q-46 -28 -138 -41q-91 -14 -151 -14q-131 0 -214 61t-83 198t124 266t307 208q183 78 340 78q156 0 247 -81t91 -252q0 -170 -117 -415
q-33 -69 -68 -124q266 78 441 154q201 391 397 575q151 142 276 143q59 0 92 -32t33 -93q0 -127 -204 -297q-204 -169 -468 -297q-192 -408 -192 -635q0 -169 128 -213q39 -14 93 -13q117 0 208 99t91 239q1 189 -151 237q-33 10 -63 11z" />
    <glyph glyph-name="I" unicode="I" horiz-adv-x="1516" 
d="M767 936q-1 88 21 178t58 162q67 135 173 209q106 73 190 73q152 0 239 -141q88 -141 88 -361q0 -297 -122 -555t-347 -415q-224 -157 -500 -157q-275 0 -454 128q-81 57 -127 133t-46 154q0 143 85 207q85 63 200 63q214 0 392 -107q179 -107 314 -299l-43 -30
q-133 190 -293 281q-160 90 -303 90q-181 0 -226 -119q-14 -37 -14 -98q0 -60 41 -128t110 -118q147 -106 347 -105q430 1 678 415q146 244 186 552q12 88 11 174q0 171 -60 277t-141 106q-59 0 -120 -43q-60 -43 -110 -125q-112 -185 -112 -476q0 -292 144 -461
q38 -45 75 -70l-27 -35q-266 183 -298 477q-8 76 -9 164z" />
    <glyph glyph-name="J" unicode="J" horiz-adv-x="1274" 
d="M-310 -482q0 -103 68 -167t187 -64q285 -15 641 468q155 210 283 465q-109 15 -235 15t-258 -35t-242 -93q-205 -110 -324 -280q-120 -169 -120 -309zM1154 1184q0 344 -246 344q-65 0 -128 -38q-62 -38 -106 -107q-90 -142 -90 -383q0 -291 162 -515q50 -70 57 -70
l-31 -32q-214 183 -282 429q-24 86 -24 188q0 224 126 403q126 178 336 178q110 0 196 -69q120 -98 120 -350q0 -84 -22 -233q-48 -322 -215 -682q80 -17 161 -40l-15 -47q-111 29 -168 41q-172 -350 -350 -559q-179 -208 -403 -326q-154 -80 -287 -81q-134 0 -240 91
q-105 91 -105 254q0 209 206 426q276 291 803 291q129 0 284 -27q180 373 240 715q21 119 21 199z" />
    <glyph glyph-name="K" unicode="K" horiz-adv-x="2369" 
d="M1560 667q0 -11 14 -22t73 -11q58 0 124 30q-62 48 -115 48q-96 0 -96 -45zM1650 581q-146 0 -146 90q0 33 38 63t113 30q76 0 172 -67q123 87 272 375q40 78 82 155q75 137 170 209t197 73q102 0 177 -60t75 -155q0 -96 -48 -188q-10 -18 -10 -22l-46 25q0 1 8 17t25 62
t17 91q0 79 -46 122q-46 44 -104 44t-100 -24t-106 -99t-201 -328q-136 -252 -305 -349q78 -92 78 -238q0 -59 -36 -206t-36 -201q0 -97 49 -133t105 -36q127 0 233 89l33 -41q-2 -1 -26 -19t-62 -38q-162 -85 -292 -33q-95 38 -137 137q-20 48 -20 106q0 80 45 220t45 190
q0 107 -46 171q-105 -32 -167 -32zM1311 1280q-68 0 -141 10q-72 10 -152 9q-182 0 -317 -98q-134 -98 -134 -276q0 -115 71 -184q71 -68 189 -68q119 0 207 55q34 21 51 39t19 20l42 -31q-58 -78 -210 -128q-66 -22 -138 -22q-148 0 -236 66q-110 82 -110 241
q0 204 168 322t397 118l318 -21q177 0 426 110l25 -45l-21 -21q-111 -111 -265 -478q-153 -367 -234 -512q-82 -146 -166 -254q-277 -356 -726 -355q-203 0 -328 91q-126 91 -126 244q0 183 143 286t339 103t375 -69l-19 -49q-131 49 -259 49q-129 0 -210 -22t-137 -64
t-86 -100q-30 -59 -30 -132q0 -136 116 -206q116 -71 250 -71q134 1 232 33t176 88q136 98 256 292q66 107 182 355q194 449 358 665q38 50 73 82q-193 -72 -368 -72z" />
    <glyph glyph-name="L" unicode="L" horiz-adv-x="1708" 
d="M281 65q-81 0 -113 -20t-32 -37q0 -63 122 -63t255 77q-150 43 -232 43zM1746 1404q-40 0 -95 -40t-111 -108q-81 -98 -244 -378q-163 -279 -253 -414q349 96 597 346q150 152 207 312q28 78 28 131t-9 79q-8 26 -24 42t-36 23t-60 7zM1294 1112q227 348 466 347
q168 0 168 -205q0 -64 -30 -150t-87 -172q-123 -187 -337 -333t-480 -205q-147 -203 -284 -317q76 -21 149 -43q274 -84 359 -84q137 0 242 100l41 -32q-1 0 -11 -12t-30 -28q-206 -170 -593 -66q-68 18 -136 41q-68 22 -134 43q-170 -103 -346 -103q-81 0 -124 29t-43 77
q0 131 282 131q104 0 253 -32q112 98 231 272q-82 -10 -204 -10q-121 0 -244 38t-208 102q-174 134 -174 357q0 222 169 355t427 133q128 0 216 -26t115 -39t30 -14l-26 -45q-1 -1 -25 11t-102 36t-192 24q-228 0 -364 -127t-136 -319t167 -309q167 -118 409 -118
q99 0 183 13q71 111 137 230q166 299 266 450z" />
    <glyph glyph-name="M" unicode="M" horiz-adv-x="2475" 
d="M-80 129q0 215 186 335q159 104 353 103q251 0 426 -125l-35 -39q-24 24 -84 51q-137 61 -306 61t-298 -97t-129 -278q0 -136 100 -226t240 -91q139 0 249 51t212 138t196 203t182 245t170 265t213 351t239 339l45 -27q-146 -446 -189 -604q-42 -158 -52 -193
q-39 -142 -146 -443q330 498 820 1066q159 184 212 237l42 -31q-315 -779 -398 -1054t-83 -375q0 -179 72 -270t197 -91q124 0 242 59q22 11 23 11l26 -45q-56 -37 -142 -57q-87 -20 -158 -20t-141 31t-118 87q-100 117 -101 313q0 367 351 1089q43 88 74 148
q-614 -702 -974 -1282l-48 16q49 528 312 1145q-91 -124 -213 -329q-123 -206 -195 -320t-150 -220q-174 -235 -366 -368t-427 -133q-190 0 -310 107q-119 107 -119 267z" />
    <glyph glyph-name="N" unicode="N" horiz-adv-x="2090" 
d="M2878 1352q0 30 -16 68t-48 68q-69 64 -193 64t-242 -115q-211 -205 -516 -878q-148 -327 -205 -482t-58 -157l-51 13q-41 265 -46 346q-4 81 -4 139q1 58 5 125t12 142q40 357 105 577q-126 -189 -239 -411q-113 -223 -172 -339t-121 -218q-137 -226 -297 -343
q-159 -117 -371 -117t-347 100q-134 100 -134 269t139 274q139 106 331 106q254 0 399 -138l-39 -35l-22 18q-56 48 -146 74t-168 26q-158 0 -267 -82t-109 -228q0 -145 116 -233t274 -88q294 0 508 297q112 155 217 361q104 206 175 341q172 328 334 553l46 -24
q-86 -251 -98 -655q-5 -153 -5 -355q-1 -202 -6 -298q311 795 585 1189q148 214 288 270q76 30 144 29q131 0 213 -78q81 -78 81 -187q0 -28 -6 -58l-51 11q5 30 5 59z" />
    <glyph glyph-name="O" unicode="O" horiz-adv-x="1573" 
d="M1101 1384q-101 0 -221 -48t-230 -133q-219 -169 -363 -438q-143 -269 -143 -527q0 -186 112 -302q112 -117 304 -117q252 0 488 198t354 465q79 179 79 344q0 166 -85 258t-223 92q-197 0 -366 -191q-170 -191 -170 -429q0 -116 53 -201t127 -106l-9 -42
q-114 16 -201 112q-88 96 -88 259q-1 162 91 314q140 232 392 310q82 26 167 26q168 0 266 -110q98 -109 98 -295q0 -266 -179 -541q-179 -276 -434 -416q-181 -99 -360 -99q-224 0 -372 145t-148 413q0 269 142 531q142 261 386 420q243 160 526 160q215 0 317 -112
q20 -22 31 -43l-47 -22q-34 69 -141 107q-52 18 -153 18z" />
    <glyph glyph-name="P" unicode="P" horiz-adv-x="1795" 
d="M1840 1037q0 166 -146 255q-92 -118 -174 -274t-170 -349q58 -10 125 -10q147 0 256 106t109 272zM1349 1376q-152 0 -268 -29q-115 -29 -223 -79t-206 -120q-98 -69 -180 -150q-169 -164 -267 -349t-98 -342q0 -156 106 -260q106 -105 250 -105q145 0 246 50t187 142
t163 223q77 130 157 290q-104 41 -193 105l16 28q112 -56 201 -84q163 340 279 502q50 70 108 128q-126 50 -278 50zM1325 1435q185 0 342 -71q88 77 179 120l16 -23q-72 -54 -135 -129q168 -104 207 -269q11 -47 11 -115t-37 -140q-38 -72 -98 -121q-120 -95 -301 -95
q-94 0 -185 21q-96 -203 -175 -315q-148 -207 -304 -308q-155 -101 -353 -101t-325 128t-127 350q0 286 183 532t475 391q291 145 627 145z" />
    <glyph glyph-name="Q" unicode="Q" horiz-adv-x="1518" 
d="M461 169q73 36 199 36q103 0 164 -61q62 -61 110 -176q215 142 353 389q137 246 137 480q0 175 -85 292q-85 118 -228 118t-257 -123q-113 -123 -113 -310t151 -294l-25 -34q-157 55 -213 213q-20 53 -19 141q0 88 39 176t105 152q138 132 319 132q180 0 279 -130
t99 -329q0 -249 -146 -511q-92 -165 -232 -297q-68 -65 -145 -114q60 -169 97 -218q38 -50 70 -74q70 -52 172 -52t198 50l26 -45q-141 -77 -280 -77q-220 0 -330 230q-30 64 -55 129q-150 -71 -279 -71q-245 0 -389 139q-143 139 -143 415q0 275 145 548t393 441
q248 169 536 169q160 0 268 -83q80 -61 122 -158q16 -37 22 -63t7 -30l-51 -10q-1 3 -6 25t-18 54q-35 86 -111 150t-202 64t-244 -47q-117 -47 -227 -129q-226 -170 -376 -438q-150 -267 -150 -512t113 -364t290 -119q139 0 281 68q-48 122 -78 161q-58 79 -127 79
t-146 -30z" />
    <glyph glyph-name="R" unicode="R" horiz-adv-x="2167" 
d="M1410 632q0 -17 42 -25t84 -5q-60 41 -93 41t-33 -11zM1358 1352q-144 0 -310 -50q-168 -50 -312 -135q-280 -166 -452 -428q-173 -262 -173 -502q0 -151 100 -253t271 -102q266 0 454 332q85 150 179 359t158 327q148 272 321 425q-92 27 -236 27zM1644 -55
q0 -57 74 -57q128 0 255 170q63 84 114 175t80 140l37 -28q-62 -111 -118 -205t-114 -162q-123 -143 -271 -143q-77 1 -119 43t-43 108q0 66 16 115q15 49 51 135t36 161q0 76 -55 150q-147 0 -205 41q-24 18 -24 44q0 58 79 57q79 0 170 -74q116 26 194 128t78 225
q0 180 -138 284q-42 32 -92 52q-160 -174 -371 -662q-124 -286 -214 -426q-90 -141 -170 -219q-173 -168 -387 -168q-213 0 -345 122t-132 354q0 231 162 497q122 200 320 347q350 258 878 258q130 0 253 -41q72 56 153 98l17 -27q-65 -37 -122 -91q203 -90 265 -280
q22 -66 22 -140q0 -140 -88 -243t-225 -129q74 -101 74 -218q0 -64 -30 -159q-65 -205 -65 -232z" />
    <glyph glyph-name="S" unicode="S" horiz-adv-x="1752" 
d="M2061 1236q0 149 -121 149q-169 1 -330 -225q-82 -115 -161 -264t-129 -242q356 47 566 253q116 115 156 231q18 54 19 98zM397 512q-141 0 -246 -91t-105 -231t98 -226t250 -86q240 0 438 219q111 123 220 314q50 88 99 180h-27q-328 0 -528 127q-199 127 -199 311
q0 185 130 285t322 100q250 0 425 -131q28 -21 44 -37l21 -21l-34 -30q-83 83 -231 133q-72 24 -160 25q-177 0 -292 -95t-115 -238q0 -168 177 -273t445 -105h48q151 287 207 379q124 202 250 310t285 108q129 -1 176 -101q17 -36 17 -95t-25 -128t-73 -136
q-103 -143 -290 -247q-188 -104 -433 -132q-130 -238 -213 -350q-158 -214 -319 -320q-161 -107 -355 -107t-329 103t-135 280t123 278t295 101t320 -94q46 -29 80 -64l-30 -32q-122 117 -331 117z" />
    <glyph glyph-name="T" unicode="T" horiz-adv-x="1562" 
d="M12 227q0 -66 35 -128t92 -103q114 -82 279 -82q286 0 478 295q87 134 181 321q93 187 157 294q148 250 314 388l32 -27q-169 -203 -377 -659q-111 -242 -196 -357q-85 -116 -163 -177q-167 -130 -401 -130q-233 0 -358 108t-125 274q0 64 16 110l50 -15
q-14 -46 -14 -112zM1687 1273q-133 0 -440 33t-416 33q-233 -1 -384 -121q-151 -121 -151 -317q0 -139 90 -218t232 -79t274 62l21 -41q-146 -85 -321 -85t-290 93q-116 93 -116 264t101 291q177 208 559 207q102 -1 405 -35q304 -34 436 -34q357 0 567 138l28 -44
q-227 -147 -595 -147z" />
    <glyph glyph-name="U" unicode="U" horiz-adv-x="2374" 
d="M60 828q0 108 52 206t149 173q211 165 535 165q240 0 394 -114t156 -309q2 -194 -230 -492q-146 -188 -189 -265q-43 -78 -43 -120q0 -80 52 -127t159 -47q106 0 211 60t205 164q99 104 197 242t200 296t210 325q109 168 231 330l45 -25q-66 -124 -199 -357
q-238 -417 -329 -594q-90 -177 -90 -242t34 -93t84 -27q48 0 96 19q48 18 93 50q130 91 291 327l37 -28q-193 -319 -404 -399q-54 -20 -109 -21q-101 0 -153 57t-52 129q0 71 18 139q-184 -218 -331 -313q-147 -96 -324 -96t-241 133q-21 44 -21 110t35 144q35 76 87 152
t114 154q236 295 235 445q0 150 -118 245t-352 95q-299 0 -459 -150q-161 -150 -161 -339q0 -142 92 -210q92 -67 228 -67t266 76q24 14 25 15l26 -38q-167 -133 -374 -133q-156 0 -267 90t-111 265z" />
    <glyph glyph-name="V" unicode="V" horiz-adv-x="2216" 
d="M2303 1205q0 76 -50 76q-35 0 -58 -59q-24 -59 -24 -142t22 -165q110 184 110 290zM1090 -169q-164 0 -164 166q0 77 36 136q36 60 77 125t87 142q262 435 263 653q0 145 -126 251t-334 106q-207 0 -378 -91q-172 -91 -274 -244t-102 -321t95 -259q95 -90 231 -90
q214 1 409 229q62 72 115 162l40 -24q-259 -450 -595 -450q-179 0 -295 108q-115 108 -115 318t131 376q131 167 331 254t416 84q214 -2 366 -118q172 -132 172 -366q0 -194 -134 -428q-86 -150 -149 -256t-125 -211q-62 -106 -61 -147q0 -52 96 -52t270 112
q276 176 578 564q115 148 206 294q-38 118 -38 202q0 140 39 209t93 69t79 -38q26 -38 26 -106t-42 -156t-90 -171q-50 -81 -116 -177q-153 -220 -336 -417t-371 -317q-188 -121 -311 -121z" />
    <glyph glyph-name="W" unicode="W" horiz-adv-x="2779" 
d="M2727 1010q0 82 -34 82q-17 0 -29 -34t-11 -101q0 -67 31 -148q43 119 43 201zM1095 -188q-150 0 -150 150q0 81 46 155q45 74 91 137t96 132q127 177 198 309q72 132 72 232q0 195 -142 309q-142 115 -380 115q-328 -1 -540 -181q-100 -84 -156 -198t-55 -222
q0 -187 98 -287q98 -101 269 -101q172 0 309 119t213 311l45 -16q-196 -488 -637 -488q-185 0 -298 119q-114 119 -114 308q0 237 154 405q128 141 322 213q194 71 344 71q293 0 465 -133q173 -133 173 -376q0 -209 -154 -439q-78 -117 -142 -203t-134 -183t-71 -133
q0 -72 79 -72q107 0 298 142q313 231 604 689q177 279 286 538l49 -20q-129 -430 -349 -827q-180 -318 -180 -402q0 -59 76 -59q110 0 313 166t341 400q77 134 123 248q-57 112 -57 211q0 193 93 193q86 0 86 -142q0 -132 -115 -376q-85 -181 -168 -287q-82 -106 -146 -172
q-129 -134 -257 -214q-129 -81 -213 -81q-169 0 -169 151q0 78 38 162q38 85 139 261q-289 -384 -570 -554q-134 -80 -223 -80z" />
    <glyph glyph-name="X" unicode="X" horiz-adv-x="2570" 
d="M2273 331q-33 0 -83 -32t-101 -90q-113 -128 -190 -312q173 17 310 139t137 228q0 30 -20 48t-53 19zM748 456q-205 0 -336 101t-131 277t99 296q99 119 251 178q152 60 309 60q309 0 477 -154q167 -154 167 -393q0 -42 -6 -82q190 290 446 460q185 122 387 172
q109 27 179 27v-53q-89 0 -196 -33q-108 -33 -188 -71q-185 -89 -362 -258q-177 -170 -319 -444q-78 -150 -78 -287q-1 -230 193 -318q68 -30 162 -38q65 215 189 351q124 137 275 137q97 0 124 -75q8 -23 8 -53t-18 -74t-51 -88q-72 -99 -192 -170t-258 -78
q-56 -152 -75 -299l-52 9q0 144 36 292q-195 15 -295 127t-100 276q0 49 7 89q-167 -211 -435 -342q-267 -132 -587 -132q-318 0 -422 144q-36 50 -36 108t15 93q15 36 39 63q45 49 120 73q74 24 160 24t163 -37l-22 -39q-67 24 -124 24q-110 0 -174 -55q-65 -55 -65 -143
t94 -145t247 -57q153 1 263 27t207 72q98 46 183 108t156 132q137 136 217 290t80 278t-35 204t-75 128q-132 160 -429 161q-256 0 -399 -138q-142 -138 -142 -309t107 -258q107 -88 270 -88q223 0 393 170l30 -34q-95 -102 -219 -154t-232 -52z" />
    <glyph glyph-name="Y" unicode="Y" horiz-adv-x="2023" 
d="M969 692q-207 -226 -499 -226q-163 0 -276 94t-113 278q0 183 133 324t332 215q199 73 406 73t335 -113t128 -318q1 -257 -203 -524q-52 -69 -98 -127t-76 -106t-30 -81q0 -61 30 -93q71 -76 220 0q203 103 453 419q285 502 559 769l33 -32q-207 -250 -435 -668
q-92 -170 -178 -336t-177 -313q-91 -148 -193 -274q-335 -412 -867 -412q-254 0 -423 114q-190 128 -190 361t192 371q161 115 359 115q146 0 246 -31l-17 -49q-97 29 -200 29q-202 0 -336 -124q-133 -124 -133 -316t144 -302q144 -111 371 -111q375 0 655 296
q162 171 316 433q73 124 147 255q-132 -141 -217 -193t-143 -71t-106 -19q-99 0 -164 49q-64 49 -64 132q0 84 52 168t145 189q262 299 262 513q0 178 -118 262q-118 85 -296 85q-279 0 -499 -144q-148 -97 -208 -241q-30 -74 -30 -151q0 -145 88 -229q89 -84 245 -85
q155 0 311 102q50 33 96 76z" />
    <glyph glyph-name="Z" unicode="Z" horiz-adv-x="1517" 
d="M421 65q0 -43 83 -43t159 43q-73 43 -130 43q-112 0 -112 -43zM185 -772q0 -45 33 -66q12 -7 34 -7q22 -1 68 27t99 74q116 102 216 250q99 148 123 279q-242 -127 -408 -285q-165 -158 -165 -272zM275 -915q-62 0 -102 41t-40 97q1 55 25 109t68 110q87 109 232 216
t306 189q0 109 -50 173q-98 -46 -181 -46q-165 0 -165 87q0 45 42 71t125 26q84 0 172 -63q79 45 145 123t130 176q66 100 136 214q276 449 626 688q-147 -32 -279 -32q-174 0 -447 44q-272 44 -379 45q-204 0 -334 -126q-129 -126 -129 -281t98 -244t238 -89q141 0 242 41
t124 63l30 -43q-185 -125 -400 -125t-332 108q-116 108 -116 270q0 218 165 349q165 132 432 132q107 0 287 -32t286 -45q106 -14 216 -14q226 0 434 73l23 -46q-316 -222 -544 -572q-67 -104 -163 -260q-96 -154 -210 -278t-224 -189q61 -67 80 -156q278 147 370 208
q192 127 305 276l37 -28q-153 -206 -472 -386q-103 -58 -232 -126l1 -31q0 -142 -95 -312t-231 -288q-135 -117 -250 -117z" />
    <glyph glyph-name="bracketleft" unicode="[" horiz-adv-x="702" 
d="M-263 -470l842 1914h352l-24 -55h-238l-795 -1804h239l-24 -55h-352z" />
    <glyph glyph-name="backslash" unicode="\" horiz-adv-x="584" 
d="M322 -99l-122 1543h62l122 -1543h-62z" />
    <glyph glyph-name="bracketright" unicode="]" horiz-adv-x="702" 
d="M891 1444l-842 -1914h-352l24 55h238l795 1804h-239l24 55h352z" />
    <glyph glyph-name="asciicircum" unicode="^" horiz-adv-x="1024" 
d="M710 878l-28 469l-355 -469h-85l438 566h62l42 -566h-74z" />
    <glyph glyph-name="underscore" unicode="_" horiz-adv-x="617" 
d="M-200 -300l36 75h591l-36 -75h-591z" />
    <glyph glyph-name="grave" unicode="`" horiz-adv-x="500" 
d="M333 856l-155 194h125l78 -194h-48z" />
    <glyph glyph-name="a" unicode="a" horiz-adv-x="905" 
d="M41 136q-1 -119 103 -119q95 0 190 88q48 45 154 180q13 21 32 53q71 122 116 188q0 73 -51 105q-24 15 -61 15q-77 0 -166 -46q-88 -46 -165 -138q-152 -182 -152 -326zM941 345q-179 -337 -381 -337q-50 0 -79 36q-28 36 -28 78t3 54q-168 -212 -341 -212
q-78 0 -132 50q-53 50 -53 123q0 153 109 296t227 206t214 63q176 0 196 -124q22 28 87 101l32 -14q-13 -26 -37 -68q-24 -43 -50 -93t-54 -105t-50 -107t-38 -100q-14 -46 -14 -78t12 -42t38 -9q24 0 54 17t60 44t58 61q28 35 52 69t45 66q20 32 34 53z" />
    <glyph glyph-name="b" unicode="b" horiz-adv-x="719" 
d="M579 541q0 120 -54 120q-46 0 -46 -50q1 -41 29 -67t69 -38q2 18 2 35zM803 1366q0 28 -19 28q-166 0 -547 -745q250 171 421 411q92 130 119 205q26 73 26 101zM570 454q-143 34 -143 168q0 36 28 64t63 27q59 0 86 -50t27 -98q0 -163 -87 -326t-222 -233
q-66 -34 -119 -33q-223 0 -223 238q0 184 128 434q128 251 208 373q143 218 251 329t194 111q53 0 81 -38q12 -18 13 -52t-19 -90t-58 -126q-87 -155 -238 -314q-150 -159 -345 -280q-122 -265 -122 -399t128 -134q86 0 186 97q100 98 163 262q16 42 20 70z" />
    <glyph glyph-name="c" unicode="c" horiz-adv-x="693" 
d="M87 214q0 -183 153 -183q126 0 243 99q118 99 210 243l37 -28q-160 -270 -370 -343q-66 -23 -122 -23q-114 0 -186 64t-72 189q0 218 169 382q99 96 211 132q54 18 102 17q85 0 123 -39q37 -39 37 -73t-7 -61q-7 -28 -19 -50t-32 -37q-18 -15 -40 -15t-38 14t-16 26
q0 29 16 54t66 25h12q6 16 6 34q0 69 -97 69t-187 -73q-136 -109 -184 -299q-16 -62 -15 -124z" />
    <glyph glyph-name="d" unicode="d" horiz-adv-x="927" 
d="M519 693q-59 0 -109 -20t-96 -54q-96 -70 -161 -182q-64 -112 -64 -204q-1 -93 31 -135t85 -42q119 0 277 187q11 161 125 406q-30 44 -88 44zM586 186q0 -101 65 -101q106 0 234 219q29 49 42 69l36 -28q-11 -17 -27 -47t-38 -65q-121 -201 -265 -201q-88 0 -129 68
q-16 26 -21 68q-152 -164 -285 -164t-195 120q-23 44 -23 115q0 70 23 137q23 66 62 124q77 113 194 183q117 69 217 69t157 -48q137 275 341 526q48 60 98 112l43 -28q-393 -573 -499 -951q-30 -105 -30 -177z" />
    <glyph glyph-name="e" unicode="e" horiz-adv-x="730" 
d="M524 622q0 59 -61 59q-32 1 -87 -31t-110 -88q-124 -125 -182 -291q186 19 322 146q74 69 104 144q14 34 14 61zM246 -54q-112 0 -188 52q-94 65 -93 198q0 133 85 258t205 202q119 76 210 76t129 -78q14 -28 13 -74t-25 -92t-65 -86q-79 -77 -207 -125
q-127 -47 -234 -49q-4 -24 -4 -54q0 -70 43 -121t119 -51q263 0 496 371l34 -30q-183 -305 -402 -376q-65 -21 -116 -21z" />
    <glyph glyph-name="f" unicode="f" horiz-adv-x="534" 
d="M791 1414q-3 39 -30 39q-123 0 -295 -322q-69 -129 -147 -320q-79 -191 -134 -321q189 132 403 454q213 321 203 470zM-64 293q21 0 37 -13q185 443 273 620q88 178 151 282q113 188 197 259t139 71q112 0 120 -87q7 -87 -69 -255q-76 -169 -176 -305
q-269 -367 -458 -461l-139 -333q32 -25 85 -25q230 0 438 327h56q-162 -277 -372 -357q-57 -22 -118 -22t-109 27l-258 -634l-105 52l293 719q-27 39 -31 71q-4 33 10 49t36 15z" />
    <glyph glyph-name="g" unicode="g" horiz-adv-x="924" 
d="M-279 -768q0 -93 83 -93q178 0 472 651q-266 -139 -427 -324q-67 -77 -97 -139t-31 -95zM376 600q-98 -45 -175 -137q-152 -180 -152 -322q0 -65 33 -99q34 -34 92 -33q113 0 259 135q144 271 242 409q-8 58 -68 83q-22 9 -78 9q-55 0 -153 -45zM-48 182q0 68 27 137
t72 129q88 117 220 190q132 74 236 74q144 0 203 -104l54 71l33 -22q0 -1 -16 -31t-42 -82q-174 -342 -282 -585q177 101 279 193q103 92 188 221l37 -28q-80 -130 -196 -231t-344 -238q-175 -429 -349 -627q-142 -161 -268 -161q-96 0 -132 71q-14 28 -14 92t44 146
q125 229 614 485q19 44 35 82t30 70q-116 -78 -214 -78q-141 0 -195 115q-20 43 -20 111z" />
    <glyph glyph-name="h" unicode="h" horiz-adv-x="859" 
d="M758 1420q0 39 -40 39q-40 -1 -78 -35t-85 -119t-237 -512q199 194 320 376q120 181 120 251zM543 -28q-146 0 -146 144q0 114 111 292q29 46 70 116q41 69 41 103q-1 41 -49 41q-96 0 -223 -120q-128 -120 -258 -298l-152 -286l-91 36q126 278 244 548t190 422t96 201
q26 48 56 96q64 105 138 175t147 70q45 0 69 -24t24 -71q0 -45 -25 -105t-67 -126q-147 -231 -460 -528l-122 -267q172 231 340 305q56 24 100 25q75 0 103 -36q27 -36 27 -78q0 -41 -15 -83t-37 -87t-49 -92q-25 -47 -63 -122t-38 -137t48 -62q100 0 307 349l36 -28
q-11 -15 -30 -49t-45 -74q-154 -250 -277 -250z" />
    <glyph glyph-name="i" unicode="i" horiz-adv-x="372" 
d="M62 63q74 -1 160 97q43 49 150 213l36 -28q-83 -148 -137 -210q-113 -127 -227 -127q-60 0 -92 36t-32 98q0 114 108 280q58 89 202 257l32 -14q-12 -27 -36 -69t-51 -92q-156 -292 -156 -387q-1 -54 43 -54zM306 811q0 69 53 113q17 14 39 14t36 -16q15 -16 15 -36
q1 -41 -35 -79q-36 -39 -72 -39t-36 43z" />
    <glyph glyph-name="j" unicode="j" horiz-adv-x="549" 
d="M476 768q-35 0 -35 40t28 85t57 45q30 0 44 -16t14 -38t-20 -50q-46 -66 -88 -66zM-603 -744q1 -61 55 -61q98 0 208 161q81 118 229 423l-43 -23q-199 -107 -324 -256t-125 -244zM-534 -858q-126 0 -126 131q0 153 156 313t443 297q33 68 61 127t57 116q126 247 335 553
l34 -17q-97 -177 -195 -394q-98 -216 -139 -306q251 139 385 310q40 51 72 101l36 -28q-135 -203 -355 -359q-80 -56 -179 -115q-80 -175 -130 -272q-51 -97 -111 -180t-122 -145t-124 -96q-62 -36 -98 -36z" />
    <glyph glyph-name="k" unicode="k" horiz-adv-x="863" 
d="M308 341q0 -12 35 -12t80 20q-13 28 -42 28t-51 -12t-22 -24zM757 1426q0 33 -35 33q-70 0 -159 -151t-268 -569q222 172 342 368q120 195 120 319zM351 291q-86 0 -86 51q-1 30 35 52q35 22 89 23q54 0 91 -28q92 71 114 181q5 24 5 36q0 58 -41 58q-156 0 -482 -465
q-49 -81 -79 -140q-30 -58 -39 -74t-10 -11l-99 26q459 1046 604 1279t269 233q88 0 88 -101q0 -57 -36 -151t-105 -201q-161 -244 -418 -416l-131 -292q184 255 350 339q61 31 108 31q76 0 103 -35q28 -35 28 -75q0 -75 -49 -149t-143 -123q11 -26 11 -56q0 -38 -19 -100
t-19 -84q0 -37 9 -55t34 -18t51 16t55 44q96 90 224 287l37 -28q-132 -197 -189 -258q-114 -122 -202 -122t-122 61q-12 22 -12 57t25 105t28 116q-54 -13 -77 -13z" />
    <glyph glyph-name="l" unicode="l" horiz-adv-x="562" 
d="M752 1350q0 53 -29 53t-80 -41q-51 -42 -111 -112q-135 -160 -251 -382q-117 -223 -156 -427q261 269 441 529q115 166 151 260q35 94 35 120zM100 216q0 -171 108 -171q108 1 262 199q28 36 52 70q23 34 40 59l37 -28q-3 -3 -19 -31t-44 -67q-69 -100 -156 -177
t-175 -77q-141 0 -191 150q-18 52 -17 134q-1 81 21 181t59 200t87 199t106 187q115 180 241 295q125 116 210 116t85 -79q0 -122 -160 -384q-108 -178 -357 -456q-72 -81 -118 -123t-64 -61q-7 -38 -7 -72v-64z" />
    <glyph glyph-name="m" unicode="m" horiz-adv-x="1342" 
d="M1021 -11q-108 0 -108 121q0 69 38 136q39 68 65 108t64 107q38 66 38 137q0 46 -36 46t-76 -28q-39 -28 -81 -77q-75 -85 -151 -209t-190 -319l-84 44q54 109 100 195t81 156q75 149 75 235q0 58 -50 58q-59 1 -143 -117q-39 -54 -83 -128q-44 -72 -137 -216
q-92 -144 -202 -269l-69 46q195 293 253 411t58 172q0 64 -59 64q-58 0 -128 -88q-34 -42 -72 -100t-88 -129l-36 28q123 195 169 247q84 95 159 95q74 0 114 -59q16 -23 19 -59q123 158 231 158q108 -1 134 -113q8 -32 8 -56t-2 -42q134 157 242 157q80 0 109 -70
q10 -25 10 -65t-13 -86t-33 -91q-21 -44 -43 -85t-55 -103t-33 -105q0 -44 36 -44q66 0 214 210q40 56 76 111l36 -28q-14 -21 -34 -55t-47 -74q-155 -226 -276 -227z" />
    <glyph glyph-name="n" unicode="n" horiz-adv-x="1027" 
d="M431 545q149 146 249 146q100 1 140 -85q16 -34 15 -82q0 -48 -15 -92t-38 -90q-23 -44 -49 -87t-64 -109t-38 -111t32 -45q115 0 364 383l36 -28q-8 -11 -29 -47t-52 -82q-192 -281 -336 -281q-81 -1 -111 71q-9 22 -9 54t18 76q18 46 43 94q26 48 57 96
q118 185 118 233q0 79 -63 79q-113 0 -399 -379q-56 -75 -85 -111q-28 -36 -45 -60t-34 -46t-32 -42l-27 -36l-88 36l117 161q108 147 176 285q69 138 69 190q0 51 -38 51q-61 0 -197 -215q-24 -38 -45 -72t-35 -55l-36 28q50 81 92 147t80 114q81 101 153 101q47 -1 71 -27
q41 -47 41 -109q0 -26 -6 -54z" />
    <glyph glyph-name="o" unicode="o" horiz-adv-x="747" 
d="M451 385q23 -68 68 -96q67 130 67 241q0 154 -70 154q-37 0 -63 -50q-25 -47 -25 -114t23 -135zM172 15q158 0 322 231q-86 50 -110 189q-8 42 -8 86q0 89 42 152t102 63q84 0 110 -115q8 -35 8 -70q0 -69 -21 -149t-53 -130q4 -1 8 -1h9q104 0 166 102l36 -28
q-86 -122 -207 -122q-21 0 -37 4q-120 -201 -293 -251q-50 -14 -94 -15t-80 15q-38 16 -65 45t-42 69t-15 90t16 102t44 103q55 101 145 188q91 86 180 127l32 -42q-117 -84 -212 -232q-96 -148 -96 -280q0 -131 113 -131z" />
    <glyph glyph-name="p" unicode="p" horiz-adv-x="813" 
d="M547 721q114 0 114 -114q0 -115 -107 -281t-107 -233q0 -68 51 -68q68 -1 218 203q52 70 97 145l37 -28q-53 -106 -117 -183t-102 -111q-86 -77 -165 -77t-111 75q-11 25 -11 65q0 101 85 224q41 58 71 98t58 83t29 82q0 67 -50 67t-104 -29t-107 -77t-104 -108
q-50 -60 -96 -124t-84 -125t-67 -109q-27 -48 -43 -78t-38 -74t-61 -124t-75 -152l-66 -132t-52 -103l-34 -69q-12 -25 -14 -26l-109 62q82 155 148 280q66 126 126 236q228 420 557 970l35 -14l-227 -456q238 305 425 305z" />
    <glyph glyph-name="q" unicode="q" horiz-adv-x="914" 
d="M239 -825q89 1 171 253q78 239 78 467q0 25 -2 51t-4 54q-117 -243 -183 -373q-117 -233 -117 -343q0 -109 57 -109zM39 140q1 -131 123 -131q130 0 271 139q59 100 117 200t117 196q-11 70 -65 92q-22 9 -70 9q-48 1 -108 -21t-117 -60q-116 -78 -192 -195
q-76 -118 -76 -229zM244 -878q-164 0 -164 196q0 125 174 480q54 111 122 248q-116 -90 -230 -90q-78 0 -147 52t-69 163t81 239q81 129 213 214q131 85 271 85q139 0 189 -74q14 -20 23 -39q38 60 42 67l35 -15q-1 -2 -13 -28t-33 -70q-22 -44 -50 -106q-28 -60 -60 -129
t-67 -144t-69 -149l24 12t58 32q229 139 340 307l36 -28q-94 -144 -238 -253q-91 -69 -176 -108q5 -72 5 -141q-1 -69 -11 -159t-30 -174q-41 -173 -109 -280q-68 -108 -147 -108z" />
    <glyph glyph-name="r" unicode="r" horiz-adv-x="594" 
d="M196 66q0 -58 60 -58q113 0 280 272q40 65 58 93l37 -28q-15 -21 -35 -59t-48 -82q-70 -113 -130 -169q-88 -82 -181 -82q-93 -1 -126 79q-11 26 -11 70q0 42 20 96q34 94 90 184q57 90 57 112q0 28 -34 54t-44 42q-25 -40 -64 -100t-89 -145l-36 28l214 335l29 -15
q-11 -33 -11 -53t29 -46q29 -24 52 -44t33 -32t14 -18q2 -8 2 -20q0 -56 -50 -142q-74 -128 -95 -177t-21 -95z" />
    <glyph glyph-name="s" unicode="s" horiz-adv-x="560" 
d="M82 -47q-170 0 -194 142l36 7q0 -21 27 -50t73 -29q46 1 77 19t54 48t39 68t26 80q10 41 13 80q4 39 4 71q-1 32 -3 71q-2 38 -5 74t-5 62t-3 35v2q-36 -39 -111 -163q-74 -124 -74 -125l-36 28q1 1 25 43q126 220 256 402l40 -33q-5 -9 -13 -19t-21 -34q-13 -23 -13 -55
q0 -31 10 -67q56 -190 56 -296q0 -160 -84 -261q156 84 304 320l34 -30q-161 -265 -357 -355q-75 -34 -155 -35z" />
    <glyph glyph-name="t" unicode="t" horiz-adv-x="546" 
d="M76 150q0 -66 30 -94t72 -28t82 24t80 59q65 59 124 140q58 81 82 122l37 -28q-97 -162 -164 -230q-66 -69 -129 -105t-122 -37q-100 0 -148 59q-47 59 -47 172q-1 114 103 367q38 94 98 202h-166l20 52h175q143 243 250 342l45 -27q-96 -158 -177 -315h326l-20 -52h-333
q-218 -436 -218 -623z" />
    <glyph glyph-name="u" unicode="u" horiz-adv-x="888" 
d="M544 -15q-76 0 -103 68q-8 20 -8 56t33 109q-103 -121 -164 -165q-112 -82 -190 -82t-125 51t-47 130q0 236 318 535l43 -30q-116 -171 -160 -251q-98 -177 -98 -279q0 -103 75 -103q162 0 459 429q104 150 171 270l73 -36q-57 -115 -111 -213t-120 -223t-66 -169
q0 -45 25 -45q111 -3 339 336l36 -28q-216 -360 -380 -360z" />
    <glyph glyph-name="v" unicode="v" horiz-adv-x="716" 
d="M604 599q0 69 -13 77q-8 0 -27 -33q-18 -33 -18 -102q0 -68 15 -108q43 97 43 166zM526 678q30 48 65 48q65 0 65 -124t-109 -288t-283 -271t-262 -1q-42 50 -42 142q0 162 154 388q65 96 132 159l44 -29q-162 -248 -210 -460q-14 -60 -14 -104q0 -94 52 -94q59 0 147 62
q171 119 264 277q-33 72 -33 160q0 87 30 135z" />
    <glyph glyph-name="w" unicode="w" horiz-adv-x="1011" 
d="M892 595q0 71 -13 80q-8 0 -26 -33q-17 -33 -17 -97q0 -65 17 -114q39 93 39 164zM-40 173q0 131 79 276q79 144 195 244l43 -28q-160 -244 -201 -433q-12 -55 -12 -95q0 -92 53 -92q63 0 157 116t157 266l1 -1q61 151 134 267l45 -28q-139 -384 -139 -533q0 -86 39 -86
q66 0 161 103t153 221q-40 74 -40 147q0 114 29 162q29 47 61 47q70 0 70 -108t-64 -248q40 -57 105 -59l-9 -48q-70 4 -119 59q-115 -220 -273 -302q-54 -28 -93 -28q-130 0 -130 148q0 35 5 63q-136 -211 -259 -211q-148 0 -148 181z" />
    <glyph glyph-name="x" unicode="x" horiz-adv-x="968" 
d="M37 430q184 285 329 285q74 0 116 -54t51 -208q123 154 187 212t119 58q54 0 75 -28q20 -28 20 -55t-14 -47t-40 -20q-26 -1 -40 17q-15 18 -15 40t8 42q-55 0 -197 -176q-45 -56 -100 -124q5 -222 12 -277q8 -55 22 -78t37 -23q126 0 361 379l36 -28
q-172 -294 -326 -383q-48 -27 -90 -27q-83 0 -117 62q-35 62 -43 238q-132 -162 -186 -210q-101 -88 -164 -88q-64 -1 -94 29t-30 63q0 72 52 72q22 0 40 -19t17 -47q0 -28 -13 -48q4 -3 28 -3q53 0 139 86t208 245v4q-2 73 -1 135q0 62 -4 108q-10 101 -63 101
q-109 -1 -283 -259q-22 -34 -38 -59l-36 28q15 23 37 57z" />
    <glyph glyph-name="y" unicode="y" horiz-adv-x="887" 
d="M-316 -781q0 -78 71 -78q133 -1 321 341q73 133 147 304q-227 -140 -385 -310q-72 -78 -113 -148q-41 -69 -41 -109zM136 22q-78 0 -124 56t-47 131q0 127 83 257q83 129 189 221l43 -30q-216 -306 -216 -482q0 -101 74 -101q128 0 345 275q90 114 143 202q54 87 86 141
t64 105l47 -24q-24 -49 -59 -121q-36 -72 -74 -152q-109 -226 -255 -536q270 149 452 409l37 -28q-169 -258 -527 -461q-185 -397 -321 -577q-167 -220 -321 -220q-54 0 -90 36q-36 35 -36 97t25 121t69 119q87 118 235 229q148 112 311 194q114 238 174 340
q-182 -201 -307 -201z" />
    <glyph glyph-name="z" unicode="z" horiz-adv-x="760" 
d="M129 58q-36 0 -36 -19t36 -19t64 20q-28 18 -64 18zM-451 -770q0 -79 74 -79q60 1 128 51q168 125 335 356q107 149 140 263l-147 -83q-409 -227 -507 -422q-24 -47 -23 -86zM-365 -915q-71 0 -105 44q-33 44 -33 100q0 116 144 262t412 291q47 26 93 51t92 52l1 21
q0 56 -17 88q-54 -22 -92 -22t-63 18t-25 48t28 48t74 18t90 -34q94 74 166 216q72 143 72 247t-63 129q-19 7 -49 7t-68 -20q-38 -19 -70 -51q-34 -32 -62 -70t-52 -74t-41 -66q-18 -30 -30 -43l-37 28q12 15 30 47t44 71q65 101 137 166t162 65t146 -58t56 -141
q0 -149 -86 -285t-211 -216q29 -53 36 -90q285 179 446 441l36 -28q-136 -227 -344 -379q-64 -48 -135 -90q-7 -174 -128 -358q-120 -184 -283 -309q-162 -124 -271 -124z" />
    <glyph glyph-name="braceleft" unicode="{" horiz-adv-x="702" 
d="M302 426q0 -39 -19 -92q-19 -52 -47 -112t-62 -122q-128 -240 -129 -351q0 -111 110 -149q41 -14 103 -15l-26 -55q-155 0 -225 68t-70 167t108 307t132 272q24 63 24 101q0 84 -74 84h-55l27 55h78q149 0 259 383q32 109 57 213q26 104 69 157q42 51 100 75t126 28
t143 4l-24 -55q-120 1 -173 -29q-52 -30 -84 -73t-56 -139t-52 -200q-28 -105 -68 -188q-84 -180 -236 -219q28 -9 46 -43t18 -72z" />
    <glyph glyph-name="bar" unicode="|" horiz-adv-x="1024" 
d="M32 -263l858 1759h102l-858 -1759h-102z" />
    <glyph glyph-name="braceright" unicode="}" horiz-adv-x="702" 
d="M306 548q0 39 19 92q19 52 47 112t62 122q128 240 129 351q0 111 -110 149q-41 14 -103 15l26 55q155 0 225 -68t70 -167t-108 -307q-108 -209 -132 -272q-24 -64 -24 -101q0 -84 74 -84h55l-27 -55h-78q-149 0 -259 -383q-32 -109 -57 -213q-26 -104 -69 -157
q-42 -51 -100 -75t-126 -28t-143 -4l24 55q119 -1 172 29t85 73t56 139t52 200q28 105 68 188q84 180 236 219q-28 9 -46 43t-18 72z" />
    <glyph glyph-name="asciitilde" unicode="~" 
d="M384 698q-25 19 -62 19q-36 1 -80 -43t-68 -78l-44 29q53 79 126 123q38 23 78 23t70 -19q28 -20 54 -42t50 -41t63 -19q38 0 81 43t67 78l44 -29q-53 -80 -127 -124q-38 -22 -78 -22t-69 19t-55 41t-50 42z" />
    <glyph glyph-name="nonbreakingspace" unicode="&#xa0;" horiz-adv-x="600" 
 />
    <glyph glyph-name="exclamdown" unicode="&#xa1;" horiz-adv-x="761" 
d="M506 950q0 30 22 52t51 21q29 1 51 -21t22 -52t-22 -50q-22 -22 -51 -22t-51 22q-22 20 -22 50zM467 770l43 -17l-553 -1235l-116 53z" />
    <glyph glyph-name="cent" unicode="&#xa2;" horiz-adv-x="786" 
d="M211 414q0 -117 60 -158l315 654q-137 -4 -255 -156q-73 -95 -105 -217q-16 -61 -15 -123zM104 432q0 218 169 382q99 96 211 132q54 18 85 17q31 0 42 -2l117 242l42 -18l-112 -233q88 -30 88 -111q0 -53 -20 -88t-38 -50t-40 -15t-38 14t-16 26q0 29 16 54t66 25h12
q6 16 6 37q0 47 -59 61l-321 -669q18 -5 50 -5q162 0 329 181l37 -37q-180 -196 -375 -196q-35 0 -66 6l-137 -285l-43 19l135 280q-140 56 -140 233z" />
    <glyph glyph-name="sterling" unicode="&#xa3;" horiz-adv-x="1493" 
d="M98 155q-82 0 -114 -20t-32 -37q0 -63 121 -63t241 74q-133 46 -216 46zM1475 1357q-31 32 -80 32t-93 -30t-88 -83t-87 -125q-43 -71 -87 -155t-92 -175t-99 -183h305l-27 -55h-310q-162 -278 -316 -418q64 -20 124 -42q60 -23 150 -53t159 -30q137 0 242 100l41 -32
q-1 0 -11 -12t-30 -28t-50 -36q-30 -18 -70 -34t-92 -26t-115 -11q-109 0 -205 29q-95 29 -253 91q-153 -98 -324 -98q-81 0 -124 29t-43 77q0 131 282 131q109 0 233 -31q133 125 276 394h-300l27 55h302q50 95 98 192q48 96 96 186q113 207 210 304q124 124 254 124
t168 -106q13 -36 13 -107t-48 -186l-50 20q45 102 45 181t-31 111z" />
    <glyph glyph-name="currency" unicode="&#xa4;" 
d="M573 768q-57 57 -136 57t-134 -58t-55 -137t53 -132t133 -53t138 51t58 133t-57 139zM693 634q0 -82 -53 -155l107 -107l-46 -47l-108 108q-79 -51 -159 -51t-151 52l-108 -108l-46 46l109 109q-53 72 -53 154t53 156l-109 108l45 45l109 -108q76 52 160 52t151 -50
l105 107l48 -46l-107 -108q53 -75 53 -157z" />
    <glyph glyph-name="yen" unicode="&#xa5;" horiz-adv-x="887" 
d="M-55 -155q-1 -70 77 -70q40 -1 96 45q146 120 310 473h-356l27 55h354l45 102h-359l27 55h358q112 240 180 352q-182 -201 -307 -201q-79 0 -125 56t-46 131q0 127 83 257q83 129 189 221l43 -30q-216 -306 -216 -482q0 -101 74 -101q128 0 345 275q90 114 143 202
q54 87 86 141t64 105l47 -24q-11 -11 -432 -902h250l-27 -55h-248q-13 -26 -25 -52t-25 -50h258l-27 -55h-258q-290 -572 -526 -572q-62 0 -98 36t-36 107q0 139 163 311l31 -82q-139 -156 -139 -248z" />
    <glyph glyph-name="brokenbar" unicode="&#xa6;" horiz-adv-x="1024" 
d="M534 767l356 729h102l-356 -729h-102zM32 -263l356 729h102l-356 -729h-102z" />
    <glyph glyph-name="section" unicode="&#xa7;" horiz-adv-x="1034" 
d="M588 437q0 63 -41 216q-41 152 -52 209q-122 -68 -122 -272q-1 -81 39 -218t53 -188q123 77 123 253zM482 1028q0 74 29 153q81 222 309 222q114 0 200 -78q26 -23 43 -50l-44 -34q-37 70 -135 102q-30 10 -66 10q-92 0 -164 -69t-72 -233q0 -80 34 -205q34 -126 52 -209
q20 -83 20 -145q0 -132 -56 -228q-56 -97 -154 -136q11 -52 11 -118t-27 -141t-74 -126q-95 -103 -250 -103q-110 0 -188 56t-119 153l50 23q69 -137 172 -170q38 -12 93 -12q110 0 177 82q66 82 66 204q-1 64 -37 187t-58 207t-21 163q0 155 59 253q59 97 154 133
q-4 35 -4 109z" />
    <glyph glyph-name="dieresis" unicode="&#xa8;" horiz-adv-x="500" 
d="M286 951q0 -29 -22 -51t-51 -22q-30 0 -51 22t-21 51t21 51t51 22q29 0 51 -22t22 -51zM499 951q1 -29 -21 -51t-52 -22t-51 22t-21 51t21 51t51 22t52 -22t21 -51z" />
    <glyph glyph-name="copyright" unicode="&#xa9;" horiz-adv-x="1638" 
d="M965 1456q125 0 241 -48t202 -134q180 -179 180 -448q0 -226 -122 -420t-320 -308q-197 -114 -414 -114q-276 0 -454 179t-178 449q0 225 119 420t317 309q197 115 429 115zM954 1395q-118 0 -214 -30q-96 -29 -182 -83q-174 -109 -282 -289t-108 -374q0 -250 156 -412
q156 -163 420 -163q194 0 374 110q179 110 290 288q111 179 111 370q1 252 -155 414q-76 78 -184 124q-108 45 -226 45zM1151 1036q0 144 -130 144q-123 0 -255 -118q-115 -103 -192 -261q-78 -157 -78 -272q0 -163 108 -215q38 -18 91 -18q111 0 222 71q112 71 205 223
l30 -24q-191 -312 -451 -312q-149 0 -224 89t-75 214q0 126 85 283q85 158 227 269q142 112 286 112q144 -1 188 -105q16 -36 16 -78t-10 -82t-30 -78q-43 -87 -117 -146q-74 -58 -168 -58t-162 63l22 25q42 -31 68 -36q25 -5 59 -5q34 1 72 17t72 43q63 52 102 131
q39 78 39 124z" />
    <glyph glyph-name="ordfeminine" unicode="&#xaa;" horiz-adv-x="724" 
d="M396 950q96 0 194 124q51 64 99 142q48 79 61 98q0 52 -40 74q-16 10 -49 9t-73 -17t-77 -44q-77 -57 -131 -144t-54 -165q0 -77 70 -77zM703 939q-85 0 -85 94v7q0 6 1 12q-119 -145 -242 -145q-58 1 -86 27q-49 46 -49 99q0 55 17 101t47 90q62 93 155 155t178 62
q118 0 142 -86q21 25 62 69l25 -10q-15 -32 -33 -65q-142 -257 -142 -327q0 -40 31 -40q48 0 107 64l26 -26q-79 -81 -154 -81z" />
    <glyph glyph-name="guillemotleft" unicode="&#xab;" horiz-adv-x="990" 
d="M425 372l433 282l-8 -78l-347 -204l147 -206l-67 -77zM135 372l433 282l-8 -78l-347 -204l147 -206l-67 -77z" />
    <glyph glyph-name="logicalnot" unicode="&#xac;" 
d="M644 517h-63l104 216h-522l27 55h585z" />
    <glyph glyph-name="uni00AD" unicode="&#xad;" 
d="M100 385l37 75h502l-37 -75h-502z" />
    <glyph glyph-name="registered" unicode="&#xae;" horiz-adv-x="1024" 
d="M398 687q27 0 44 19t29 52q13 33 23 76t36 126t85 159q-140 -13 -219 -131q-65 -97 -65 -207q0 -46 20 -70t47 -24zM668 876q-49 0 -49 20q0 26 25 26q17 0 43 -17q67 30 67 105t-57 100q-16 7 -32 9q-18 -40 -47 -139q-51 -174 -88 -238q-51 -88 -127 -87q-46 0 -70 27
q-41 48 -41 116q0 112 75 216q95 132 271 133q32 32 63 56l13 -17q-20 -12 -37 -43q99 -19 135 -83q14 -24 13 -52q0 -50 -33 -81q-33 -30 -84 -41q40 -37 40 -65q0 -27 -13 -71q-13 -43 -13 -50q0 -20 14 -20t33 19l11 -20q-30 -24 -56 -24q-74 0 -73 46q0 26 13 65t13 64
q0 26 -9 46zM326 1128q-130 -132 -130 -285t86 -243q86 -91 244 -91q158 1 290 133t132 285t-88 245q-88 91 -240 91q-80 0 -158 -37q-76 -38 -136 -98zM626 1324q172 0 280 -108q109 -108 109 -269q0 -203 -156 -351t-335 -148q-180 0 -287 107t-107 268q0 203 154 353
q70 68 160 108q92 40 182 40z" />
    <glyph glyph-name="macron" unicode="&#xaf;" horiz-adv-x="500" 
d="M145 925l21 69h358l-21 -69h-358z" />
    <glyph glyph-name="degree" unicode="&#xb0;" horiz-adv-x="400" 
d="M514 1324q0 30 -21 52t-52 21q-31 1 -53 -21t-21 -53q-1 -31 21 -53t53 -21t52 23t21 52zM562 1324q0 -50 -35 -86t-73 -36q-65 0 -100 35q-34 35 -34 73q0 64 35 99t73 35t60 -9t39 -25q35 -36 35 -86z" />
    <glyph glyph-name="plusminus" unicode="&#xb1;" 
d="M-19 202l27 55h592l-27 -55h-592zM463 655l-131 -269h-63l131 269h-270l27 55h270l130 267h63l-130 -267h269l-27 -55h-269z" />
    <glyph glyph-name="twosuperior" unicode="&#xb2;" horiz-adv-x="881" 
d="M205 651q0 -35 63 -35t166 43q-92 34 -141 34q-49 -1 -69 -15t-19 -27zM259 1089q0 140 165 250q165 111 358 111q192 0 256 -122q22 -44 23 -113q0 -140 -151 -299t-353 -259q115 -48 172 -48t91 11l13 -41q-51 -12 -116 -12t-215 64q-136 -56 -205 -56q-139 0 -139 76
q0 53 70 75q26 8 82 8t179 -50q189 96 341 256q151 159 151 301q0 167 -215 167q-153 0 -287 -104t-134 -212q0 -119 158 -119q73 0 160 30l13 -34q-88 -39 -162 -39q-129 0 -192 39q-63 38 -63 120z" />
    <glyph glyph-name="threesuperior" unicode="&#xb3;" horiz-adv-x="751" 
d="M441 1026q0 -14 33 -13q33 0 100 48q-16 2 -47 2q-31 1 -59 -11t-27 -26zM141 687q0 -156 224 -156q62 0 135 27q72 26 128 74q122 104 122 249q0 119 -121 166q-99 -75 -172 -75q-32 0 -46 18t-14 32t8 28q7 14 25 26t45 19t65 7t76 -9q97 78 239 230q20 22 33 35
q-96 -22 -178 -22q-120 0 -220 15t-118 21l10 43h5h3t7 -2q5 -1 33 -7t98 -16t193 -10t235 46l21 -27l-1 -8q-34 -35 -127 -138t-182 -176q72 -31 103 -72q55 -75 55 -156q0 -161 -134 -270t-319 -109q-186 0 -256 124q-22 40 -22 89q0 93 84 170l31 -30q-68 -64 -68 -136z
" />
    <glyph glyph-name="acute" unicode="&#xb4;" horiz-adv-x="500" 
d="M272 856h-69l178 194h125z" />
    <glyph glyph-name="micro" unicode="&#xb5;" horiz-adv-x="680" 
d="M100 140q0 -47 56 -47q54 0 87 31q56 53 118 173q62 121 175 385h107q-3 -7 -13 -30q-10 -24 -24 -58t-33 -76q-18 -42 -37 -86t-37 -87q-17 -43 -33 -79q-36 -84 -44 -101t-8 -31q0 -20 20 -20q32 0 124 114l25 -20q-112 -137 -154 -173t-81 -36q-66 0 -39 93
q7 24 13 45q-91 -138 -188 -138q-56 0 -76 45q-8 19 -5 51l-7 -1q-20 -53 -69 -197t-66 -187l-111 2q7 15 412 970h107l-194 -463q-25 -54 -25 -79z" />
    <glyph glyph-name="paragraph" unicode="&#xb6;" horiz-adv-x="1024" 
d="M786 1208q-203 0 -390 -166q-115 -102 -163 -223q-24 -61 -24 -119q0 -120 99 -121q99 0 208 101q110 101 140 167l168 361h-38zM151 576q-53 50 -53 135t27 157t74 133q93 121 244 192t305 71h392l-28 -56h-76l-680 -1494h-72l680 1494h-68l-680 -1494h-72l438 964
q-88 -90 -144 -116q-79 -36 -156 -36q-78 0 -131 50z" />
    <glyph glyph-name="periodcentered" unicode="&#xb7;" horiz-adv-x="350" 
d="M293 658q1 -30 -21 -50q-22 -22 -52 -22t-52 22t-21 50q-1 30 21 52t52 21q30 1 52 -21t21 -52z" />
    <glyph glyph-name="cedilla" unicode="&#xb8;" horiz-adv-x="500" 
d="M168 -187q0 67 -62 67q-24 0 -64 -15l-19 26l84 119h51l-59 -86q17 4 39 4t42 -6t36 -17q16 -13 28 -31q10 -18 10 -43q0 -52 -54 -90t-138 -38q-85 0 -152 41l20 38q73 -33 109 -33q61 0 95 19t34 45z" />
    <glyph glyph-name="onesuperior" unicode="&#xb9;" horiz-adv-x="483" 
d="M710 1390l-420 -807l-85 35q87 154 169 310t179 310q-125 -108 -282 -198q-32 -18 -43 -25l-24 40q17 0 118 68q100 68 184 132t163 157z" />
    <glyph glyph-name="ordmasculine" unicode="&#xba;" horiz-adv-x="598" 
d="M706 1282q0 118 -45 118t-61 -72q-4 -20 -4 -42q0 -46 16 -94t46 -71q48 98 48 161zM700 1068h-13q-6 0 -12 2q-87 -140 -213 -179q-36 -11 -66 -11q-64 0 -106 44t-42 107q0 113 87 225t193 161l26 -34q-84 -58 -153 -166q-70 -108 -70 -201t79 -93q86 1 180 103
q27 30 48 60q-83 63 -83 182q0 118 63 160q19 12 41 13q42 0 65 -40t23 -78q0 -57 -15 -119q-15 -61 -37 -97q51 0 82 21l15 -33q-40 -27 -92 -27z" />
    <glyph glyph-name="guillemotright" unicode="&#xbb;" horiz-adv-x="990" 
d="M780 371l-433 -282l8 78l347 204l-147 206l67 77zM490 371l-433 -282l8 78l347 204l-147 206l67 77z" />
    <glyph glyph-name="onequarter" unicode="&#xbc;" horiz-adv-x="1555" 
d="M710 1390l-420 -807l-85 35q87 154 169 310t179 310q-125 -108 -282 -198q-32 -18 -43 -25l-24 40q17 0 118 68q100 68 184 132t163 157zM120 -20l1114 1464h84l-1114 -1464h-84zM997 330q93 0 236 -22l184 424l54 -14l-153 -415q90 3 155 42l22 -34q-24 -24 -87 -36
q-63 -13 -106 -13l-118 -320l-101 20l132 305q-137 21 -202 21q-148 0 -286 -63l-23 31q145 186 384 614l79 -38q0 -18 -72 -130q-168 -262 -294 -403q103 31 196 31z" />
    <glyph glyph-name="onehalf" unicode="&#xbd;" horiz-adv-x="1654" 
d="M776 55q0 -31 64 -31t156 38q-87 33 -136 33q-48 1 -66 -13t-18 -27zM1073 325q-247 0 -247 155q0 90 78 174q112 121 304 163q60 13 116 13q127 0 204 -53q76 -53 76 -167q0 -188 -256 -397q-106 -87 -233 -150q111 -46 165 -46t91 10l12 -42q-50 -12 -113 -12t-208 62
q-127 -54 -230 -54q-104 0 -104 74q0 51 68 75q25 8 81 8t172 -48q180 90 326 244t146 293q0 159 -203 159q-147 0 -275 -99q-129 -99 -129 -204q0 -116 139 -116q72 0 165 29l13 -33q-85 -38 -158 -38zM710 1390l-420 -807l-85 35q87 154 169 310t179 310
q-125 -108 -282 -198q-32 -18 -43 -25l-24 40q17 0 118 68q100 68 184 132t163 157zM120 -20l1114 1464h84l-1114 -1464h-84z" />
    <glyph glyph-name="threequarters" unicode="&#xbe;" horiz-adv-x="1884" 
d="M492 1043q0 -13 28 -13t96 46q-16 2 -44 2t-54 -11t-26 -24zM449 -20l1114 1464h84l-1114 -1464h-84zM1326 330q93 0 236 -22l184 424l54 -14l-153 -415q90 3 155 42l22 -34q-24 -24 -87 -36q-63 -13 -106 -13l-118 -320l-101 20l132 305q-136 21 -202 21
q-148 0 -286 -63l-23 31q145 186 384 614l79 -38q0 -18 -72 -130q-168 -262 -294 -403q103 31 196 31zM860 873q0 -154 -129 -259q-129 -104 -306 -104t-243 119q-22 39 -22 85q0 86 81 163l32 -33q-64 -60 -64 -130q-1 -72 53 -108t140 -36q169 0 274 95q106 95 106 239
q0 114 -109 156q-81 -72 -165 -72q-46 0 -58 35q-3 9 -3 19q0 28 37 52q37 25 87 25q51 0 87 -9q115 90 257 248q-91 -22 -167 -22q-113 0 -208 14q-94 14 -114 20l10 45q12 -2 40 -7q28 -6 95 -16t191 -10q123 0 224 44l19 -34q-71 -75 -141 -151t-155 -146q70 -32 99 -71
q52 -73 52 -151z" />
    <glyph glyph-name="questiondown" unicode="&#xbf;" horiz-adv-x="1136" 
d="M713 952q-1 30 21 52t52 21q30 1 52 -21t21 -52q1 -30 -21 -50q-22 -22 -52 -22t-52 22q-22 20 -21 50zM597 126q247 0 247 -181q0 -148 -166 -260q-166 -113 -377 -113q-161 0 -267 79q-105 79 -105 224q-1 209 245 363q78 49 216 123q138 73 192 113q122 90 122 193
q0 39 -14 74l40 23q24 -58 24 -120t-31 -118q-31 -55 -81 -100q-50 -46 -116 -84q-64 -38 -131 -76q-177 -100 -247 -168q-112 -109 -112 -239t80 -184q80 -55 180 -55q185 0 312 97q126 97 126 220q0 66 -41 102q-41 35 -112 35t-135 -27l-9 41q90 38 160 38z" />
    <glyph glyph-name="Agrave" unicode="&#xc0;" horiz-adv-x="2330" 
d="M1771 179q-100 320 -250 544q-160 -181 -297 -347q178 -98 434 -169q66 -18 113 -28zM916 749q0 -187 262 -346q171 208 311 365q-164 215 -327 215q-105 0 -176 -67q-70 -67 -70 -167zM2414 1301q0 35 -27 51t-62 17q-220 0 -765 -603q126 -194 255 -558
q262 570 549 984q50 74 50 109zM2480 1284q0 -62 -40 -141t-106 -189q-220 -362 -413 -801q94 -12 152 -10l2 -52q-91 0 -176 12q-64 -149 -64 -154l-119 37l60 137q-352 79 -590 208q-352 -406 -694 -406q-208 0 -370 117t-162 306q0 153 107 237q107 83 274 83
q220 0 371 -126q55 -46 94 -114l-44 -28q-19 38 -73 75t-129 68t-177 31q-103 0 -159 -26t-94 -64q-74 -78 -74 -184q0 -197 238 -286q358 -133 712 204q72 68 133 139q-314 189 -314 440q0 116 81 199t199 83q232 0 424 -267q546 609 798 609q61 0 94 -27q59 -48 59 -110z
M2421 1521l-155 194h125l78 -194h-48z" />
    <glyph glyph-name="Aacute" unicode="&#xc1;" horiz-adv-x="2330" 
d="M1771 179q-100 320 -250 544q-160 -181 -297 -347q178 -98 434 -169q66 -18 113 -28zM916 749q0 -187 262 -346q171 208 311 365q-164 215 -327 215q-105 0 -176 -67q-70 -67 -70 -167zM2414 1301q0 35 -27 51t-62 17q-220 0 -765 -603q126 -194 255 -558
q262 570 549 984q50 74 50 109zM2480 1284q0 -62 -40 -141t-106 -189q-220 -362 -413 -801q94 -12 152 -10l2 -52q-91 0 -176 12q-64 -149 -64 -154l-119 37l60 137q-352 79 -590 208q-352 -406 -694 -406q-208 0 -370 117t-162 306q0 153 107 237q107 83 274 83
q220 0 371 -126q55 -46 94 -114l-44 -28q-19 38 -73 75t-129 68t-177 31q-103 0 -159 -26t-94 -64q-74 -78 -74 -184q0 -197 238 -286q358 -133 712 204q72 68 133 139q-314 189 -314 440q0 116 81 199t199 83q232 0 424 -267q546 609 798 609q61 0 94 -27q59 -48 59 -110z
M2360 1521h-69l178 194h125z" />
    <glyph glyph-name="Acircumflex" unicode="&#xc2;" horiz-adv-x="2330" 
d="M1771 179q-100 320 -250 544q-160 -181 -297 -347q178 -98 434 -169q66 -18 113 -28zM916 749q0 -187 262 -346q171 208 311 365q-164 215 -327 215q-105 0 -176 -67q-70 -67 -70 -167zM2414 1301q0 35 -27 51t-62 17q-220 0 -765 -603q126 -194 255 -558
q262 570 549 984q50 74 50 109zM2480 1284q0 -62 -40 -141t-106 -189q-220 -362 -413 -801q94 -12 152 -10l2 -52q-91 0 -176 12q-64 -149 -64 -154l-119 37l60 137q-352 79 -590 208q-352 -406 -694 -406q-208 0 -370 117t-162 306q0 153 107 237q107 83 274 83
q220 0 371 -126q55 -46 94 -114l-44 -28q-19 38 -73 75t-129 68t-177 31q-103 0 -159 -26t-94 -64q-74 -78 -74 -184q0 -197 238 -286q358 -133 712 204q72 68 133 139q-314 189 -314 440q0 116 81 199t199 83q232 0 424 -267q546 609 798 609q61 0 94 -27q59 -48 59 -110z
M2495 1521l-59 120l-165 -120h-69l217 194h85l39 -194h-48z" />
    <glyph glyph-name="Atilde" unicode="&#xc3;" horiz-adv-x="2330" 
d="M1771 179q-100 320 -250 544q-160 -181 -297 -347q178 -98 434 -169q66 -18 113 -28zM916 749q0 -187 262 -346q171 208 311 365q-164 215 -327 215q-105 0 -176 -67q-70 -67 -70 -167zM2414 1301q0 35 -27 51t-62 17q-220 0 -765 -603q126 -194 255 -558
q262 570 549 984q50 74 50 109zM2480 1284q0 -62 -40 -141t-106 -189q-220 -362 -413 -801q94 -12 152 -10l2 -52q-91 0 -176 12q-64 -149 -64 -154l-119 37l60 137q-352 79 -590 208q-352 -406 -694 -406q-208 0 -370 117t-162 306q0 153 107 237q107 83 274 83
q220 0 371 -126q55 -46 94 -114l-44 -28q-19 38 -73 75t-129 68t-177 31q-103 0 -159 -26t-94 -64q-74 -78 -74 -184q0 -197 238 -286q358 -133 712 204q72 68 133 139q-314 189 -314 440q0 116 81 199t199 83q232 0 424 -267q546 609 798 609q61 0 94 -27q59 -48 59 -110z
M2505 1600q55 0 107 101l34 -16q-60 -156 -160 -156q-46 -1 -86 59q-16 22 -29 42q-14 18 -42 18t-66 -51q-18 -22 -32 -50l-34 16q60 156 160 156q31 -1 51 -19t34 -40q16 -22 30 -42q14 -18 33 -18z" />
    <glyph glyph-name="Adieresis" unicode="&#xc4;" horiz-adv-x="2330" 
d="M1771 179q-100 320 -250 544q-160 -181 -297 -347q178 -98 434 -169q66 -18 113 -28zM916 749q0 -187 262 -346q171 208 311 365q-164 215 -327 215q-105 0 -176 -67q-70 -67 -70 -167zM2414 1301q0 35 -27 51t-62 17q-220 0 -765 -603q126 -194 255 -558
q262 570 549 984q50 74 50 109zM2480 1284q0 -62 -40 -141t-106 -189q-220 -362 -413 -801q94 -12 152 -10l2 -52q-91 0 -176 12q-64 -149 -64 -154l-119 37l60 137q-352 79 -590 208q-352 -406 -694 -406q-208 0 -370 117t-162 306q0 153 107 237q107 83 274 83
q220 0 371 -126q55 -46 94 -114l-44 -28q-19 38 -73 75t-129 68t-177 31q-103 0 -159 -26t-94 -64q-74 -78 -74 -184q0 -197 238 -286q358 -133 712 204q72 68 133 139q-314 189 -314 440q0 116 81 199t199 83q232 0 424 -267q546 609 798 609q61 0 94 -27q59 -48 59 -110z
M2375 1616q1 -30 -21 -52t-52 -21q-30 -1 -51 21t-21 52t21 52t51 21q30 1 52 -21t21 -52zM2588 1616q0 -30 -22 -52t-51 -21q-30 -1 -51 21t-21 52t21 52t51 21q29 1 51 -21t22 -52z" />
    <glyph glyph-name="Aring" unicode="&#xc5;" horiz-adv-x="2330" 
d="M1771 179q-100 320 -250 544q-160 -181 -297 -347q178 -98 434 -169q66 -18 113 -28zM916 749q0 -187 262 -346q171 208 311 365q-164 215 -327 215q-105 0 -176 -67q-70 -67 -70 -167zM2414 1301q0 35 -27 51t-62 17q-220 0 -765 -603q126 -194 255 -558
q262 570 549 984q50 74 50 109zM2480 1284q0 -62 -40 -141t-106 -189q-220 -362 -413 -801q94 -12 152 -10l2 -52q-91 0 -176 12q-64 -149 -64 -154l-119 37l60 137q-352 79 -590 208q-352 -406 -694 -406q-208 0 -370 117t-162 306q0 153 107 237q107 83 274 83
q220 0 371 -126q55 -46 94 -114l-44 -28q-19 38 -73 75t-129 68t-177 31q-103 0 -159 -26t-94 -64q-74 -78 -74 -184q0 -197 238 -286q358 -133 712 204q72 68 133 139q-314 189 -314 440q0 116 81 199t199 83q232 0 424 -267q546 609 798 609q61 0 94 -27q59 -48 59 -110z
M2472 1623q0 29 -21 51t-52 22t-53 -22t-21 -52q-1 -30 21 -52t53 -22t52 22t21 53zM2520 1622q0 -50 -35 -85q-35 -36 -73 -36q-65 0 -100 35q-34 35 -34 73q0 64 35 99t73 35t60 -9q22 -10 39 -26q35 -36 35 -86z" />
    <glyph glyph-name="AE" unicode="&#xc6;" horiz-adv-x="3237" 
d="M2792 587q54 0 54 34q0 78 -244 83q56 -82 142 -109q26 -8 48 -8zM1771 179q-100 320 -250 544q-160 -181 -297 -347q178 -98 434 -169q66 -18 113 -28zM916 749q0 -187 262 -346q171 208 311 365q-164 215 -327 215q-105 0 -176 -67q-70 -67 -70 -167zM2414 1301
q0 35 -27 51t-62 17q-220 0 -765 -603q126 -194 255 -558q262 570 549 984q50 74 50 109zM3348 1217q0 142 -220 142q-135 -1 -278 -75q-134 -70 -216 -182q-84 -114 -84 -231q0 -59 22 -112q327 -9 327 -140q0 -40 -30 -61q-31 -21 -71 -21q-77 0 -151 45q-75 45 -127 120
q-223 -18 -369 -162t-146 -339q0 -161 107 -252q107 -92 312 -92q356 0 686 359q52 56 85 100q32 44 42 57l36 -28q-87 -125 -150 -192q-321 -348 -721 -348q-308 1 -444 179q-40 54 -60 116q-63 -147 -63 -151l-119 37l60 137q-352 79 -590 208q-352 -406 -694 -406
q-208 0 -370 117t-162 306q0 153 107 237q107 83 274 83q220 0 371 -126q55 -46 94 -114l-44 -28q-19 38 -73 75t-129 68t-177 31q-103 0 -159 -26t-94 -64q-74 -78 -74 -184q0 -197 238 -286q358 -133 712 204q72 68 133 139q-314 189 -314 440q0 116 81 199t199 83
q232 0 424 -267q546 609 798 609q61 0 94 -27q59 -48 59 -110t-40 -141t-115 -202t-143 -253q127 61 304 71q-38 76 -38 155q0 80 26 148t72 126q88 111 234 177q147 66 299 66q229 -1 299 -127q22 -40 22 -88q0 -50 -22 -96t-58 -84q-72 -74 -185 -115q-114 -42 -227 -42
q-18 0 -29 1t-13 1l6 52q3 -1 8 -1h24q164 0 304 82t140 203z" />
    <glyph glyph-name="Ccedilla" unicode="&#xc7;" horiz-adv-x="1316" 
d="M307 -405q73 -33 109 -33q61 0 95 19t34 45q-1 26 -7 37t-15 18t-20 9t-27 3q-16 0 -57 -15l-19 26l73 105q-202 30 -318 179q-115 149 -115 340q0 255 194 568q125 202 299 357q175 155 377 219q102 32 186 33q164 0 259 -82q94 -82 94 -248q-1 -125 -71 -267
q-122 -244 -334 -328q-76 -30 -163 -30q-158 0 -271 106l30 33q6 -13 63 -44t137 -31t150 30t130 79q114 94 185 236q71 143 71 255t-63 172t-162 60q-97 0 -191 -34t-182 -91q-88 -59 -169 -137t-151 -168q-139 -179 -224 -380t-85 -371q0 -169 106 -289t302 -121
q308 1 577 279q95 98 182 239l36 -28q-175 -285 -400 -425q-190 -119 -389 -118q-20 0 -42 2l-45 -67q16 4 38 4q22 1 43 -5t37 -18t26 -30t11 -44q0 -52 -54 -90t-138 -38q-85 0 -152 41z" />
    <glyph glyph-name="Egrave" unicode="&#xc8;" horiz-adv-x="1337" 
d="M892 587q54 0 54 34q0 78 -244 83q56 -82 142 -109q26 -8 48 -8zM1448 1217q0 142 -220 142q-135 -1 -278 -75q-134 -70 -216 -182q-84 -114 -84 -231q0 -59 22 -112q327 -9 327 -140q0 -40 -30 -61q-31 -21 -71 -21q-77 0 -151 45q-75 45 -127 120q-223 -18 -369 -162
t-146 -339q0 -161 107 -252q107 -92 312 -92q356 0 686 359q52 56 85 100q32 44 42 57l36 -28q-87 -125 -150 -192q-321 -348 -721 -348q-255 0 -388 119q-134 119 -134 309t141 339q163 173 465 187q-38 76 -38 155q0 80 26 148t72 126q88 111 234 177q147 66 299 66
q229 -1 299 -127q22 -40 22 -88q0 -50 -22 -96t-58 -84q-72 -74 -185 -115q-114 -42 -227 -42q-18 0 -29 1t-13 1l6 52q3 -1 8 -1h24q164 0 304 82t140 203zM1256 1531l-155 194h125l78 -194h-48z" />
    <glyph glyph-name="Eacute" unicode="&#xc9;" horiz-adv-x="1337" 
d="M892 587q54 0 54 34q0 78 -244 83q56 -82 142 -109q26 -8 48 -8zM1448 1217q0 142 -220 142q-135 -1 -278 -75q-134 -70 -216 -182q-84 -114 -84 -231q0 -59 22 -112q327 -9 327 -140q0 -40 -30 -61q-31 -21 -71 -21q-77 0 -151 45q-75 45 -127 120q-223 -18 -369 -162
t-146 -339q0 -161 107 -252q107 -92 312 -92q356 0 686 359q52 56 85 100q32 44 42 57l36 -28q-87 -125 -150 -192q-321 -348 -721 -348q-255 0 -388 119q-134 119 -134 309t141 339q163 173 465 187q-38 76 -38 155q0 80 26 148t72 126q88 111 234 177q147 66 299 66
q229 -1 299 -127q22 -40 22 -88q0 -50 -22 -96t-58 -84q-72 -74 -185 -115q-114 -42 -227 -42q-18 0 -29 1t-13 1l6 52q3 -1 8 -1h24q164 0 304 82t140 203zM1195 1531h-69l178 194h125z" />
    <glyph glyph-name="Ecircumflex" unicode="&#xca;" horiz-adv-x="1337" 
d="M892 587q54 0 54 34q0 78 -244 83q56 -82 142 -109q26 -8 48 -8zM1448 1217q0 142 -220 142q-135 -1 -278 -75q-134 -70 -216 -182q-84 -114 -84 -231q0 -59 22 -112q327 -9 327 -140q0 -40 -30 -61q-31 -21 -71 -21q-77 0 -151 45q-75 45 -127 120q-223 -18 -369 -162
t-146 -339q0 -161 107 -252q107 -92 312 -92q356 0 686 359q52 56 85 100q32 44 42 57l36 -28q-87 -125 -150 -192q-321 -348 -721 -348q-255 0 -388 119q-134 119 -134 309t141 339q163 173 465 187q-38 76 -38 155q0 80 26 148t72 126q88 111 234 177q147 66 299 66
q229 -1 299 -127q22 -40 22 -88q0 -50 -22 -96t-58 -84q-72 -74 -185 -115q-114 -42 -227 -42q-18 0 -29 1t-13 1l6 52q3 -1 8 -1h24q164 0 304 82t140 203zM1330 1531l-59 120l-165 -120h-69l217 194h85l39 -194h-48z" />
    <glyph glyph-name="Edieresis" unicode="&#xcb;" horiz-adv-x="1337" 
d="M892 587q54 0 54 34q0 78 -244 83q56 -82 142 -109q26 -8 48 -8zM1448 1217q0 142 -220 142q-135 -1 -278 -75q-134 -70 -216 -182q-84 -114 -84 -231q0 -59 22 -112q327 -9 327 -140q0 -40 -30 -61q-31 -21 -71 -21q-77 0 -151 45q-75 45 -127 120q-223 -18 -369 -162
t-146 -339q0 -161 107 -252q107 -92 312 -92q356 0 686 359q52 56 85 100q32 44 42 57l36 -28q-87 -125 -150 -192q-321 -348 -721 -348q-255 0 -388 119q-134 119 -134 309t141 339q163 173 465 187q-38 76 -38 155q0 80 26 148t72 126q88 111 234 177q147 66 299 66
q229 -1 299 -127q22 -40 22 -88q0 -50 -22 -96t-58 -84q-72 -74 -185 -115q-114 -42 -227 -42q-18 0 -29 1t-13 1l6 52q3 -1 8 -1h24q164 0 304 82t140 203zM1210 1626q0 -30 -22 -52t-51 -21q-30 -1 -51 21t-21 52t21 52t51 21q29 1 51 -21t22 -52zM1423 1626
q1 -30 -21 -52t-52 -21q-30 -1 -51 21t-21 52t21 52t51 21q30 1 52 -21t21 -52z" />
    <glyph glyph-name="Igrave" unicode="&#xcc;" horiz-adv-x="1516" 
d="M767 936q-1 88 21 178t58 162q67 135 173 209q106 73 190 73q152 0 239 -141q88 -141 88 -361q0 -297 -122 -555t-347 -415q-224 -157 -500 -157q-275 0 -454 128q-81 57 -127 133t-46 154q0 143 85 207q85 63 200 63q214 0 392 -107q179 -107 314 -299l-43 -30
q-133 190 -293 281q-160 90 -303 90q-181 0 -226 -119q-14 -37 -14 -98q0 -60 41 -128t110 -118q147 -106 347 -105q430 1 678 415q146 244 186 552q12 88 11 174q0 171 -60 277t-141 106q-59 0 -120 -43q-60 -43 -110 -125q-112 -185 -112 -476q0 -292 144 -461
q38 -45 75 -70l-27 -35q-266 183 -298 477q-8 76 -9 164zM1300 1657l-155 194h125l78 -194h-48z" />
    <glyph glyph-name="Iacute" unicode="&#xcd;" horiz-adv-x="1516" 
d="M767 936q-1 88 21 178t58 162q67 135 173 209q106 73 190 73q152 0 239 -141q88 -141 88 -361q0 -297 -122 -555t-347 -415q-224 -157 -500 -157q-275 0 -454 128q-81 57 -127 133t-46 154q0 143 85 207q85 63 200 63q214 0 392 -107q179 -107 314 -299l-43 -30
q-133 190 -293 281q-160 90 -303 90q-181 0 -226 -119q-14 -37 -14 -98q0 -60 41 -128t110 -118q147 -106 347 -105q430 1 678 415q146 244 186 552q12 88 11 174q0 171 -60 277t-141 106q-59 0 -120 -43q-60 -43 -110 -125q-112 -185 -112 -476q0 -292 144 -461
q38 -45 75 -70l-27 -35q-266 183 -298 477q-8 76 -9 164zM1239 1657h-69l178 194h125z" />
    <glyph glyph-name="Icircumflex" unicode="&#xce;" horiz-adv-x="1516" 
d="M767 936q-1 88 21 178t58 162q67 135 173 209q106 73 190 73q152 0 239 -141q88 -141 88 -361q0 -297 -122 -555t-347 -415q-224 -157 -500 -157q-275 0 -454 128q-81 57 -127 133t-46 154q0 143 85 207q85 63 200 63q214 0 392 -107q179 -107 314 -299l-43 -30
q-133 190 -293 281q-160 90 -303 90q-181 0 -226 -119q-14 -37 -14 -98q0 -60 41 -128t110 -118q147 -106 347 -105q430 1 678 415q146 244 186 552q12 88 11 174q0 171 -60 277t-141 106q-59 0 -120 -43q-60 -43 -110 -125q-112 -185 -112 -476q0 -292 144 -461
q38 -45 75 -70l-27 -35q-266 183 -298 477q-8 76 -9 164zM1374 1657l-59 120l-165 -120h-69l217 194h85l39 -194h-48z" />
    <glyph glyph-name="Idieresis" unicode="&#xcf;" horiz-adv-x="1516" 
d="M767 936q-1 88 21 178t58 162q67 135 173 209q106 73 190 73q152 0 239 -141q88 -141 88 -361q0 -297 -122 -555t-347 -415q-224 -157 -500 -157q-275 0 -454 128q-81 57 -127 133t-46 154q0 143 85 207q85 63 200 63q214 0 392 -107q179 -107 314 -299l-43 -30
q-133 190 -293 281q-160 90 -303 90q-181 0 -226 -119q-14 -37 -14 -98q0 -60 41 -128t110 -118q147 -106 347 -105q430 1 678 415q146 244 186 552q12 88 11 174q0 171 -60 277t-141 106q-59 0 -120 -43q-60 -43 -110 -125q-112 -185 -112 -476q0 -292 144 -461
q38 -45 75 -70l-27 -35q-266 183 -298 477q-8 76 -9 164zM1254 1752q0 -30 -22 -52t-51 -21q-30 -1 -51 21t-21 52t21 52t51 21q29 1 51 -21t22 -52zM1467 1752q1 -30 -21 -52t-52 -21q-30 -1 -51 21t-21 52t21 52t51 21q30 1 52 -21t21 -52z" />
    <glyph glyph-name="Eth" unicode="&#xd0;" horiz-adv-x="2000" 
d="M198 -37q0 -60 138 -60t258 87q-155 40 -237 40q-83 0 -121 -20t-38 -47zM1791 719q0 282 -182 464q-59 59 -135 101q-114 -164 -238 -442q-52 -116 -101 -230t-102 -220h315l-30 -65h-319q-119 -218 -248 -326q201 -55 351 -55t284 60t224 166q181 210 181 547z
M1089 1436q181 0 355 -79q57 61 123 114l31 -33q-50 -53 -93 -111q187 -103 291 -283t104 -393q0 -311 -177 -521q-202 -240 -603 -241q-154 0 -421 72q-163 -110 -375 -110q-132 1 -168 67q-10 20 -11 42q0 51 53 87q111 74 448 -16q110 100 215 296h-279l30 65h283
q55 110 109 230t115 240q143 287 289 455q-157 67 -350 67q-355 0 -625 -197q-163 -119 -227 -271q-32 -74 -32 -135q0 -110 71 -180t188 -70q116 1 272 95q44 27 52 34l32 -42q-243 -160 -432 -160q-124 0 -210 80q-87 80 -87 215t127 298t357 274q229 111 545 111z" />
    <glyph glyph-name="Ntilde" unicode="&#xd1;" horiz-adv-x="2090" 
d="M2878 1352q0 30 -16 68t-48 68q-69 64 -193 64t-242 -115q-211 -205 -516 -878q-148 -327 -205 -482t-58 -157l-51 13q-41 265 -46 346q-4 81 -4 139q1 58 5 125t12 142q40 357 105 577q-126 -189 -239 -411q-113 -223 -172 -339t-121 -218q-137 -226 -297 -343
q-159 -117 -371 -117t-347 100q-134 100 -134 269t139 274q139 106 331 106q254 0 399 -138l-39 -35l-22 18q-56 48 -146 74t-168 26q-158 0 -267 -82t-109 -228q0 -145 116 -233t274 -88q294 0 508 297q112 155 217 361q104 206 175 341q172 328 334 553l46 -24
q-86 -251 -98 -655q-5 -153 -5 -355q-1 -202 -6 -298q311 795 585 1189q148 214 288 270q76 30 144 29q131 0 213 -78q81 -78 81 -187q0 -28 -6 -58l-51 11q5 30 5 59zM2193 1677q55 0 107 101l34 -16q-60 -156 -160 -156q-46 0 -86 60q-16 22 -29 40q-14 18 -42 19
q-28 0 -66 -51q-18 -22 -32 -50l-34 16q60 156 160 156q31 0 51 -18t34 -42q16 -22 30 -40t33 -19z" />
    <glyph glyph-name="Ograve" unicode="&#xd2;" horiz-adv-x="1573" 
d="M1101 1384q-101 0 -221 -48t-230 -133q-219 -169 -363 -438q-143 -269 -143 -527q0 -186 112 -302q112 -117 304 -117q252 0 488 198t354 465q79 179 79 344q0 166 -85 258t-223 92q-197 0 -366 -191q-170 -191 -170 -429q0 -116 53 -201t127 -106l-9 -42
q-114 16 -201 112q-88 96 -88 259q-1 162 91 314q140 232 392 310q82 26 167 26q168 0 266 -110q98 -109 98 -295q0 -266 -179 -541q-179 -276 -434 -416q-181 -99 -360 -99q-224 0 -372 145t-148 413q0 269 142 531q142 261 386 420q243 160 526 160q215 0 317 -112
q20 -22 31 -43l-47 -22q-34 69 -141 107q-52 18 -153 18zM1147 1536l-155 194h125l78 -194h-48z" />
    <glyph glyph-name="Oacute" unicode="&#xd3;" horiz-adv-x="1573" 
d="M1101 1384q-101 0 -221 -48t-230 -133q-219 -169 -363 -438q-143 -269 -143 -527q0 -186 112 -302q112 -117 304 -117q252 0 488 198t354 465q79 179 79 344q0 166 -85 258t-223 92q-197 0 -366 -191q-170 -191 -170 -429q0 -116 53 -201t127 -106l-9 -42
q-114 16 -201 112q-88 96 -88 259q-1 162 91 314q140 232 392 310q82 26 167 26q168 0 266 -110q98 -109 98 -295q0 -266 -179 -541q-179 -276 -434 -416q-181 -99 -360 -99q-224 0 -372 145t-148 413q0 269 142 531q142 261 386 420q243 160 526 160q215 0 317 -112
q20 -22 31 -43l-47 -22q-34 69 -141 107q-52 18 -153 18zM1086 1536h-69l178 194h125z" />
    <glyph glyph-name="Ocircumflex" unicode="&#xd4;" horiz-adv-x="1573" 
d="M1101 1384q-101 0 -221 -48t-230 -133q-219 -169 -363 -438q-143 -269 -143 -527q0 -186 112 -302q112 -117 304 -117q252 0 488 198t354 465q79 179 79 344q0 166 -85 258t-223 92q-197 0 -366 -191q-170 -191 -170 -429q0 -116 53 -201t127 -106l-9 -42
q-114 16 -201 112q-88 96 -88 259q-1 162 91 314q140 232 392 310q82 26 167 26q168 0 266 -110q98 -109 98 -295q0 -266 -179 -541q-179 -276 -434 -416q-181 -99 -360 -99q-224 0 -372 145t-148 413q0 269 142 531q142 261 386 420q243 160 526 160q215 0 317 -112
q20 -22 31 -43l-47 -22q-34 69 -141 107q-52 18 -153 18zM1221 1536l-59 120l-165 -120h-69l217 194h85l39 -194h-48z" />
    <glyph glyph-name="Otilde" unicode="&#xd5;" horiz-adv-x="1573" 
d="M1101 1384q-101 0 -221 -48t-230 -133q-219 -169 -363 -438q-143 -269 -143 -527q0 -186 112 -302q112 -117 304 -117q252 0 488 198t354 465q79 179 79 344q0 166 -85 258t-223 92q-197 0 -366 -191q-170 -191 -170 -429q0 -116 53 -201t127 -106l-9 -42
q-114 16 -201 112q-88 96 -88 259q-1 162 91 314q140 232 392 310q82 26 167 26q168 0 266 -110q98 -109 98 -295q0 -266 -179 -541q-179 -276 -434 -416q-181 -99 -360 -99q-224 0 -372 145t-148 413q0 269 142 531q142 261 386 420q243 160 526 160q215 0 317 -112
q20 -22 31 -43l-47 -22q-34 69 -141 107q-52 18 -153 18zM1231 1615q55 0 107 101l34 -16q-60 -156 -160 -156q-46 0 -86 60q-16 22 -29 40q-14 18 -42 19q-28 0 -66 -51q-18 -22 -32 -50l-34 16q60 156 160 156q31 0 51 -18t34 -42q16 -22 30 -40t33 -19z" />
    <glyph glyph-name="Odieresis" unicode="&#xd6;" horiz-adv-x="1573" 
d="M1101 1384q-101 0 -221 -48t-230 -133q-219 -169 -363 -438q-143 -269 -143 -527q0 -186 112 -302q112 -117 304 -117q252 0 488 198t354 465q79 179 79 344q0 166 -85 258t-223 92q-197 0 -366 -191q-170 -191 -170 -429q0 -116 53 -201t127 -106l-9 -42
q-114 16 -201 112q-88 96 -88 259q-1 162 91 314q140 232 392 310q82 26 167 26q168 0 266 -110q98 -109 98 -295q0 -266 -179 -541q-179 -276 -434 -416q-181 -99 -360 -99q-224 0 -372 145t-148 413q0 269 142 531q142 261 386 420q243 160 526 160q215 0 317 -112
q20 -22 31 -43l-47 -22q-34 69 -141 107q-52 18 -153 18zM1101 1631q1 -29 -21 -51t-52 -22t-51 22t-21 51t21 51t51 22t52 -22t21 -51zM1314 1631q0 -29 -22 -51t-51 -22q-30 0 -51 22t-21 51t21 51t51 22q29 0 51 -22t22 -51z" />
    <glyph glyph-name="multiply" unicode="&#xd7;" 
d="M500 676l144 -204l-43 -33l-145 205l-265 -206l-32 43l267 205l-143 201l43 33l142 -201l265 205l32 -43z" />
    <glyph glyph-name="Oslash" unicode="&#xd8;" horiz-adv-x="1573" 
d="M658 714q-22 -78 -21 -144q0 -66 8 -99l670 673q-63 32 -135 32t-137 -24t-125 -66t-110 -100q-52 -58 -90 -126t-60 -146zM1402 482q79 179 79 354q0 176 -112 273l-703 -707q51 -123 151 -153l-9 -42q-130 19 -212 125l-365 -367q114 -146 329 -146q252 0 488 198
t354 465zM40 307q0 288 142 549t386 420q243 160 526 160q213 0 319 -113l-47 -25q-80 86 -223 86t-263 -48t-230 -133q-219 -169 -363 -438q-143 -269 -143 -527q0 -127 51 -219l366 368q-42 80 -42 176q0 97 24 177q23 80 67 152q90 151 241 244q151 92 320 92
q103 0 183 -45l320 322l46 -44l-313 -315q126 -111 126 -323q0 -266 -179 -541q-179 -276 -434 -416q-181 -99 -360 -99q-231 0 -377 150l-262 -264l-46 44l267 269q-102 140 -102 341z" />
    <glyph glyph-name="Ugrave" unicode="&#xd9;" horiz-adv-x="2374" 
d="M60 828q0 108 52 206t149 173q211 165 535 165q240 0 394 -114t156 -309q2 -194 -230 -492q-146 -188 -189 -265q-43 -78 -43 -120q0 -80 52 -127t159 -47q106 0 211 60t205 164q99 104 197 242t200 296t210 325q109 168 231 330l45 -25q-66 -124 -199 -357
q-238 -417 -329 -594q-90 -177 -90 -242t34 -93t84 -27q48 0 96 19q48 18 93 50q130 91 291 327l37 -28q-193 -319 -404 -399q-54 -20 -109 -21q-101 0 -153 57t-52 129q0 71 18 139q-184 -218 -331 -313q-147 -96 -324 -96t-241 133q-21 44 -21 110t35 144q35 76 87 152
t114 154q236 295 235 445q0 150 -118 245t-352 95q-299 0 -459 -150q-161 -150 -161 -339q0 -142 92 -210q92 -67 228 -67t266 76q24 14 25 15l26 -38q-167 -133 -374 -133q-156 0 -267 90t-111 265zM1825 1389l-155 194h125l78 -194h-48z" />
    <glyph glyph-name="Uacute" unicode="&#xda;" horiz-adv-x="2374" 
d="M60 828q0 108 52 206t149 173q211 165 535 165q240 0 394 -114t156 -309q2 -194 -230 -492q-146 -188 -189 -265q-43 -78 -43 -120q0 -80 52 -127t159 -47q106 0 211 60t205 164q99 104 197 242t200 296t210 325q109 168 231 330l45 -25q-66 -124 -199 -357
q-238 -417 -329 -594q-90 -177 -90 -242t34 -93t84 -27q48 0 96 19q48 18 93 50q130 91 291 327l37 -28q-193 -319 -404 -399q-54 -20 -109 -21q-101 0 -153 57t-52 129q0 71 18 139q-184 -218 -331 -313q-147 -96 -324 -96t-241 133q-21 44 -21 110t35 144q35 76 87 152
t114 154q236 295 235 445q0 150 -118 245t-352 95q-299 0 -459 -150q-161 -150 -161 -339q0 -142 92 -210q92 -67 228 -67t266 76q24 14 25 15l26 -38q-167 -133 -374 -133q-156 0 -267 90t-111 265zM1764 1389h-69l178 194h125z" />
    <glyph glyph-name="Ucircumflex" unicode="&#xdb;" horiz-adv-x="2374" 
d="M60 828q0 108 52 206t149 173q211 165 535 165q240 0 394 -114t156 -309q2 -194 -230 -492q-146 -188 -189 -265q-43 -78 -43 -120q0 -80 52 -127t159 -47q106 0 211 60t205 164q99 104 197 242t200 296t210 325q109 168 231 330l45 -25q-66 -124 -199 -357
q-238 -417 -329 -594q-90 -177 -90 -242t34 -93t84 -27q48 0 96 19q48 18 93 50q130 91 291 327l37 -28q-193 -319 -404 -399q-54 -20 -109 -21q-101 0 -153 57t-52 129q0 71 18 139q-184 -218 -331 -313q-147 -96 -324 -96t-241 133q-21 44 -21 110t35 144q35 76 87 152
t114 154q236 295 235 445q0 150 -118 245t-352 95q-299 0 -459 -150q-161 -150 -161 -339q0 -142 92 -210q92 -67 228 -67t266 76q24 14 25 15l26 -38q-167 -133 -374 -133q-156 0 -267 90t-111 265zM1899 1389l-59 120l-165 -120h-69l217 194h85l39 -194h-48z" />
    <glyph glyph-name="Udieresis" unicode="&#xdc;" horiz-adv-x="2374" 
d="M60 828q0 108 52 206t149 173q211 165 535 165q240 0 394 -114t156 -309q2 -194 -230 -492q-146 -188 -189 -265q-43 -78 -43 -120q0 -80 52 -127t159 -47q106 0 211 60t205 164q99 104 197 242t200 296t210 325q109 168 231 330l45 -25q-66 -124 -199 -357
q-238 -417 -329 -594q-90 -177 -90 -242t34 -93t84 -27q48 0 96 19q48 18 93 50q130 91 291 327l37 -28q-193 -319 -404 -399q-54 -20 -109 -21q-101 0 -153 57t-52 129q0 71 18 139q-184 -218 -331 -313q-147 -96 -324 -96t-241 133q-21 44 -21 110t35 144q35 76 87 152
t114 154q236 295 235 445q0 150 -118 245t-352 95q-299 0 -459 -150q-161 -150 -161 -339q0 -142 92 -210q92 -67 228 -67t266 76q24 14 25 15l26 -38q-167 -133 -374 -133q-156 0 -267 90t-111 265zM1779 1484q1 -30 -21 -52t-52 -21q-30 -1 -51 21t-21 52t21 52t51 21
q30 1 52 -21t21 -52zM1992 1484q0 -30 -22 -52t-51 -21q-30 -1 -51 21t-21 52t21 52t51 21q29 1 51 -21t22 -52z" />
    <glyph glyph-name="Yacute" unicode="&#xdd;" horiz-adv-x="2023" 
d="M969 692q-207 -226 -499 -226q-163 0 -276 94t-113 278q0 183 133 324t332 215q199 73 406 73t335 -113t128 -318q1 -257 -203 -524q-52 -69 -98 -127t-76 -106t-30 -81q0 -61 30 -93q71 -76 220 0q203 103 453 419q285 502 559 769l33 -32q-207 -250 -435 -668
q-92 -170 -178 -336t-177 -313q-91 -148 -193 -274q-335 -412 -867 -412q-254 0 -423 114q-190 128 -190 361t192 371q161 115 359 115q146 0 246 -31l-17 -49q-97 29 -200 29q-202 0 -336 -124q-133 -124 -133 -316t144 -302q144 -111 371 -111q375 0 655 296
q162 171 316 433q73 124 147 255q-132 -141 -217 -193t-143 -71t-106 -19q-99 0 -164 49q-64 49 -64 132q0 84 52 168t145 189q262 299 262 513q0 178 -118 262q-118 85 -296 85q-279 0 -499 -144q-148 -97 -208 -241q-30 -74 -30 -151q0 -145 88 -229q89 -84 245 -85
q155 0 311 102q50 33 96 76zM1791 1384h-69l178 194h125z" />
    <glyph glyph-name="Thorn" unicode="&#xde;" horiz-adv-x="1769" 
d="M1300 384q66 0 132 27q68 27 119 77q111 108 111 278q0 171 -163 261q-74 -138 -164 -332q-89 -195 -153 -302q52 -9 118 -9zM107 263q0 -134 96 -228q96 -93 252 -93q269 0 465 250q62 80 122 179q-104 39 -197 106l16 28q109 -56 209 -86q60 107 163 318
q104 212 174 329q-115 35 -271 35q-157 1 -296 -37q-140 -38 -254 -102q-222 -124 -350 -320q-129 -197 -129 -379zM1130 1160q168 0 304 -49q78 123 170 219t216 154l16 -23q-159 -118 -312 -390q125 -67 184 -169t59 -200q0 -183 -127 -284t-309 -101q-93 0 -183 21
q-290 -449 -677 -449q-200 0 -320 112q-121 112 -121 306q0 239 144 434t392 307t564 112z" />
    <glyph glyph-name="germandbls" unicode="&#xdf;" horiz-adv-x="792" 
d="M797 1396q0 58 -34 57q-119 0 -291 -322q-69 -129 -147 -320q-79 -191 -120 -289t-75 -182q-34 -82 -71 -172t-75 -182t-72 -180q-36 -86 -67 -162t-55 -132t-36 -90q-14 -34 -15 -35l-105 52q66 165 126 307t116 277t112 269t128 310t147 327q73 150 137 254
q201 329 356 329q123 0 123 -133q-1 -212 -185 -410q-123 -133 -153 -180q-31 -49 -31 -81t10 -72t30 -134q22 -93 22 -183q0 -164 -84 -266q156 84 304 320l34 -30q-237 -392 -525 -392q-67 -1 -105 27q-65 47 -76 117l36 7q0 -21 27 -50t73 -29q46 1 78 19t54 48
q44 56 65 141t21 146q0 79 -12 191l-9 77q-4 37 -4 69t26 78q27 46 65 102q38 54 83 116t83 128t65 132q26 68 26 126z" />
    <glyph glyph-name="agrave" unicode="&#xe0;" horiz-adv-x="905" 
d="M41 136q-1 -119 103 -119q95 0 190 88q48 45 154 180q13 21 32 53q71 122 116 188q0 73 -51 105q-24 15 -61 15q-77 0 -166 -46q-88 -46 -165 -138q-152 -182 -152 -326zM941 345q-179 -337 -381 -337q-50 0 -79 36q-28 36 -28 78t3 54q-168 -212 -341 -212
q-78 0 -132 50q-53 50 -53 123q0 153 109 296t227 206t214 63q176 0 196 -124q22 28 87 101l32 -14q-13 -26 -37 -68q-24 -43 -50 -93t-54 -105t-50 -107t-38 -100q-14 -46 -14 -78t12 -42t38 -9q24 0 54 17t60 44t58 61q28 35 52 69t45 66q20 32 34 53zM610 856l-155 194
h125l78 -194h-48z" />
    <glyph glyph-name="aacute" unicode="&#xe1;" horiz-adv-x="905" 
d="M41 136q-1 -119 103 -119q95 0 190 88q48 45 154 180q13 21 32 53q71 122 116 188q0 73 -51 105q-24 15 -61 15q-77 0 -166 -46q-88 -46 -165 -138q-152 -182 -152 -326zM941 345q-179 -337 -381 -337q-50 0 -79 36q-28 36 -28 78t3 54q-168 -212 -341 -212
q-78 0 -132 50q-53 50 -53 123q0 153 109 296t227 206t214 63q176 0 196 -124q22 28 87 101l32 -14q-13 -26 -37 -68q-24 -43 -50 -93t-54 -105t-50 -107t-38 -100q-14 -46 -14 -78t12 -42t38 -9q24 0 54 17t60 44t58 61q28 35 52 69t45 66q20 32 34 53zM549 856h-69
l178 194h125z" />
    <glyph glyph-name="acircumflex" unicode="&#xe2;" horiz-adv-x="905" 
d="M41 136q-1 -119 103 -119q95 0 190 88q48 45 154 180q13 21 32 53q71 122 116 188q0 73 -51 105q-24 15 -61 15q-77 0 -166 -46q-88 -46 -165 -138q-152 -182 -152 -326zM941 345q-179 -337 -381 -337q-50 0 -79 36q-28 36 -28 78t3 54q-168 -212 -341 -212
q-78 0 -132 50q-53 50 -53 123q0 153 109 296t227 206t214 63q176 0 196 -124q22 28 87 101l32 -14q-13 -26 -37 -68q-24 -43 -50 -93t-54 -105t-50 -107t-38 -100q-14 -46 -14 -78t12 -42t38 -9q24 0 54 17t60 44t58 61q28 35 52 69t45 66q20 32 34 53zM684 856l-59 120
l-165 -120h-69l217 194h85l39 -194h-48z" />
    <glyph glyph-name="atilde" unicode="&#xe3;" horiz-adv-x="905" 
d="M41 136q-1 -119 103 -119q95 0 190 88q48 45 154 180q13 21 32 53q71 122 116 188q0 73 -51 105q-24 15 -61 15q-77 0 -166 -46q-88 -46 -165 -138q-152 -182 -152 -326zM941 345q-179 -337 -381 -337q-50 0 -79 36q-28 36 -28 78t3 54q-168 -212 -341 -212
q-78 0 -132 50q-53 50 -53 123q0 153 109 296t227 206t214 63q176 0 196 -124q22 28 87 101l32 -14q-13 -26 -37 -68q-24 -43 -50 -93t-54 -105t-50 -107t-38 -100q-14 -46 -14 -78t12 -42t38 -9q24 0 54 17t60 44t58 61q28 35 52 69t45 66q20 32 34 53zM694 935
q55 0 107 101l34 -16q-60 -156 -160 -156q-45 0 -85 60q-16 22 -30 40t-42 19q-28 0 -66 -51q-18 -22 -32 -50l-34 16q60 156 160 156q30 0 50 -18t36 -42q16 -22 29 -40q14 -18 33 -19z" />
    <glyph glyph-name="adieresis" unicode="&#xe4;" horiz-adv-x="905" 
d="M41 136q-1 -119 103 -119q95 0 190 88q48 45 154 180q13 21 32 53q71 122 116 188q0 73 -51 105q-24 15 -61 15q-77 0 -166 -46q-88 -46 -165 -138q-152 -182 -152 -326zM941 345q-179 -337 -381 -337q-50 0 -79 36q-28 36 -28 78t3 54q-168 -212 -341 -212
q-78 0 -132 50q-53 50 -53 123q0 153 109 296t227 206t214 63q176 0 196 -124q22 28 87 101l32 -14q-13 -26 -37 -68q-24 -43 -50 -93t-54 -105t-50 -107t-38 -100q-14 -46 -14 -78t12 -42t38 -9q24 0 54 17t60 44t58 61q28 35 52 69t45 66q20 32 34 53zM564 951
q0 -29 -22 -51t-51 -22q-30 0 -51 22t-21 51t21 51t51 22q29 0 51 -22t22 -51zM777 951q1 -29 -21 -51t-52 -22t-51 22t-21 51t21 51t51 22t52 -22t21 -51z" />
    <glyph glyph-name="aring" unicode="&#xe5;" horiz-adv-x="905" 
d="M41 136q-1 -119 103 -119q95 0 190 88q48 45 154 180q13 21 32 53q71 122 116 188q0 73 -51 105q-24 15 -61 15q-77 0 -166 -46q-88 -46 -165 -138q-152 -182 -152 -326zM941 345q-179 -337 -381 -337q-50 0 -79 36q-28 36 -28 78t3 54q-168 -212 -341 -212
q-78 0 -132 50q-53 50 -53 123q0 153 109 296t227 206t214 63q176 0 196 -124q22 28 87 101l32 -14q-13 -26 -37 -68q-24 -43 -50 -93t-54 -105t-50 -107t-38 -100q-14 -46 -14 -78t12 -42t38 -9q24 0 54 17t60 44t58 61q28 35 52 69t45 66q20 32 34 53zM661 958
q0 30 -21 52t-52 21q-30 1 -52 -21t-22 -53t22 -53t52 -21q31 1 52 23t21 52zM709 958q0 -50 -35 -86t-73 -36q-65 0 -100 35q-34 35 -34 73q0 64 35 99t73 35q39 0 61 -9t38 -25q35 -36 35 -86z" />
    <glyph glyph-name="ae" unicode="&#xe6;" horiz-adv-x="1251" 
d="M1045 622q0 59 -61 59q-32 1 -87 -31t-110 -88q-124 -125 -182 -291q185 19 321 146q74 69 105 144q14 34 14 61zM41 141q0 -124 99 -124t198 91q98 91 166 204q37 123 132 224q-8 110 -121 110q-169 0 -341 -207q-58 -69 -96 -153t-37 -145zM750 638q130 94 228 94
t136 -78q14 -28 14 -74t-24 -92t-66 -86q-79 -77 -207 -125q-127 -47 -234 -49q-4 -24 -4 -54q0 -70 43 -121t119 -51q263 0 496 371l34 -30q-183 -305 -402 -376q-65 -21 -116 -21q-111 0 -187 52q-94 65 -94 192v15q0 7 1 15q-186 -256 -372 -256q-78 0 -132 50
q-53 50 -53 123q0 153 109 296t227 206t229 63q141 0 175 -103l83 130l32 -14q-15 -40 -35 -77z" />
    <glyph glyph-name="ccedilla" unicode="&#xe7;" horiz-adv-x="693" 
d="M-11 -238q73 -33 109 -33q61 0 95 19t34 45q-1 26 -7 37t-15 18q-9 8 -20 10t-27 2t-57 -15l-19 26l81 115q-183 38 -183 258q0 135 82 264q74 116 187 185q113 70 206 70t130 -39t37 -73t-7 -61q-7 -28 -19 -50t-32 -37q-18 -15 -40 -15t-38 14t-16 26q0 29 16 54t66 25
h12q6 16 6 34q0 69 -97 69t-187 -73q-136 -109 -184 -299q-16 -62 -15 -124q0 -183 153 -183q126 0 243 99q118 99 210 243l37 -28q-160 -270 -370 -343q-66 -23 -100 -23h-40q-6 0 -10 1l-52 -76q16 4 38 4t43 -6t37 -17q16 -13 26 -31t11 -43q0 -52 -54 -90t-138 -38
q-85 0 -152 41z" />
    <glyph glyph-name="egrave" unicode="&#xe8;" horiz-adv-x="730" 
d="M524 622q0 59 -61 59q-32 1 -87 -31t-110 -88q-124 -125 -182 -291q186 19 322 146q74 69 104 144q14 34 14 61zM246 -54q-112 0 -188 52q-94 65 -93 198q0 133 85 258t205 202q119 76 210 76t129 -78q14 -28 13 -74t-25 -92t-65 -86q-79 -77 -207 -125
q-127 -47 -234 -49q-4 -24 -4 -54q0 -70 43 -121t119 -51q263 0 496 371l34 -30q-183 -305 -402 -376q-65 -21 -116 -21zM528 856l-155 194h125l78 -194h-48z" />
    <glyph glyph-name="eacute" unicode="&#xe9;" horiz-adv-x="730" 
d="M524 622q0 59 -61 59q-32 1 -87 -31t-110 -88q-124 -125 -182 -291q186 19 322 146q74 69 104 144q14 34 14 61zM246 -54q-112 0 -188 52q-94 65 -93 198q0 133 85 258t205 202q119 76 210 76t129 -78q14 -28 13 -74t-25 -92t-65 -86q-79 -77 -207 -125
q-127 -47 -234 -49q-4 -24 -4 -54q0 -70 43 -121t119 -51q263 0 496 371l34 -30q-183 -305 -402 -376q-65 -21 -116 -21zM467 856h-69l178 194h125z" />
    <glyph glyph-name="ecircumflex" unicode="&#xea;" horiz-adv-x="730" 
d="M524 622q0 59 -61 59q-32 1 -87 -31t-110 -88q-124 -125 -182 -291q186 19 322 146q74 69 104 144q14 34 14 61zM246 -54q-112 0 -188 52q-94 65 -93 198q0 133 85 258t205 202q119 76 210 76t129 -78q14 -28 13 -74t-25 -92t-65 -86q-79 -77 -207 -125
q-127 -47 -234 -49q-4 -24 -4 -54q0 -70 43 -121t119 -51q263 0 496 371l34 -30q-183 -305 -402 -376q-65 -21 -116 -21zM602 856l-59 120l-165 -120h-69l217 194h85l39 -194h-48z" />
    <glyph glyph-name="edieresis" unicode="&#xeb;" horiz-adv-x="730" 
d="M524 622q0 59 -61 59q-32 1 -87 -31t-110 -88q-124 -125 -182 -291q186 19 322 146q74 69 104 144q14 34 14 61zM246 -54q-112 0 -188 52q-94 65 -93 198q0 133 85 258t205 202q119 76 210 76t129 -78q14 -28 13 -74t-25 -92t-65 -86q-79 -77 -207 -125
q-127 -47 -234 -49q-4 -24 -4 -54q0 -70 43 -121t119 -51q263 0 496 371l34 -30q-183 -305 -402 -376q-65 -21 -116 -21zM482 951q0 -29 -22 -51t-51 -22q-30 0 -51 22t-21 51t21 51t51 22q29 0 51 -22t22 -51zM695 951q1 -29 -21 -51t-52 -22t-51 22t-21 51t21 51t51 22
t52 -22t21 -51z" />
    <glyph glyph-name="igrave" unicode="&#xec;" horiz-adv-x="372" 
d="M62 63q74 -1 160 97q43 49 150 213l36 -28q-83 -148 -137 -210q-113 -127 -227 -127q-60 0 -92 36t-32 98q0 114 108 280q58 89 202 257l32 -14q-12 -27 -36 -69t-51 -92q-156 -292 -156 -387q-1 -54 43 -54zM344 840l-155 194h125l78 -194h-48z" />
    <glyph glyph-name="iacute" unicode="&#xed;" horiz-adv-x="372" 
d="M62 63q74 -1 160 97q43 49 150 213l36 -28q-83 -148 -137 -210q-113 -127 -227 -127q-60 0 -92 36t-32 98q0 114 108 280q58 89 202 257l32 -14q-12 -27 -36 -69t-51 -92q-156 -292 -156 -387q-1 -54 43 -54zM283 840h-69l178 194h125z" />
    <glyph glyph-name="icircumflex" unicode="&#xee;" horiz-adv-x="372" 
d="M62 63q74 -1 160 97q43 49 150 213l36 -28q-83 -148 -137 -210q-113 -127 -227 -127q-60 0 -92 36t-32 98q0 114 108 280q58 89 202 257l32 -14q-12 -27 -36 -69t-51 -92q-156 -292 -156 -387q-1 -54 43 -54zM418 840l-59 120l-165 -120h-69l217 194h85l39 -194h-48z" />
    <glyph glyph-name="idieresis" unicode="&#xef;" horiz-adv-x="372" 
d="M62 63q74 -1 160 97q43 49 150 213l36 -28q-83 -148 -137 -210q-113 -127 -227 -127q-60 0 -92 36t-32 98q0 114 108 280q58 89 202 257l32 -14q-12 -27 -36 -69t-51 -92q-156 -292 -156 -387q-1 -54 43 -54zM298 935q0 -29 -22 -51t-51 -22q-30 0 -51 22t-21 51t21 51
t51 22q29 0 51 -22t22 -51zM511 935q1 -29 -21 -51t-52 -22t-51 22t-21 51t21 51t51 22t52 -22t21 -51z" />
    <glyph glyph-name="eth" unicode="&#xf0;" horiz-adv-x="747" 
d="M510 1163q185 -215 185 -492q1 -277 -155 -489q-100 -137 -240 -193q-70 -28 -130 -28q-60 -1 -98 15t-65 45t-42 69t-15 90t18 106t50 110q70 117 187 200q118 84 264 104l32 -42q-163 -29 -305 -200q-84 -102 -120 -210q-18 -54 -17 -101q0 -132 113 -132
q108 1 209 105q147 150 198 406q16 80 16 156q0 266 -131 440l-177 -156l-37 45l176 155q-70 75 -199 150l33 48q114 -64 211 -158l176 156l38 -45z" />
    <glyph glyph-name="ntilde" unicode="&#xf1;" horiz-adv-x="1027" 
d="M431 545q149 146 249 146q100 1 140 -85q16 -34 15 -82q0 -48 -15 -92t-38 -90q-23 -44 -49 -87t-64 -109t-38 -111t32 -45q115 0 364 383l36 -28q-8 -11 -29 -47t-52 -82q-192 -281 -336 -281q-81 -1 -111 71q-9 22 -9 54t18 76q18 46 43 94q26 48 57 96
q118 185 118 233q0 79 -63 79q-113 0 -399 -379q-56 -75 -85 -111q-28 -36 -45 -60t-34 -46t-32 -42l-27 -36l-88 36l117 161q108 147 176 285q69 138 69 190q0 51 -38 51q-61 0 -197 -215q-24 -38 -45 -72t-35 -55l-36 28q50 81 92 147t80 114q81 101 153 101q47 -1 71 -27
q41 -47 41 -109q0 -26 -6 -54zM803 918q55 0 107 101l34 -16q-60 -156 -160 -156q-46 -1 -86 59q-16 22 -29 42q-14 18 -42 18t-66 -51q-18 -22 -32 -50l-34 16q60 156 160 156q31 -1 51 -19t34 -40q16 -22 30 -42q14 -18 33 -18z" />
    <glyph glyph-name="ograve" unicode="&#xf2;" horiz-adv-x="747" 
d="M451 385q23 -68 68 -96q67 130 67 241q0 154 -70 154q-37 0 -63 -50q-25 -47 -25 -114t23 -135zM172 15q158 0 322 231q-86 50 -110 189q-8 42 -8 86q0 89 42 152t102 63q84 0 110 -115q8 -35 8 -70q0 -69 -21 -149t-53 -130q4 -1 8 -1h9q104 0 166 102l36 -28
q-86 -122 -207 -122q-21 0 -37 4q-120 -201 -293 -251q-50 -14 -94 -15t-80 15q-38 16 -65 45t-42 69t-15 90t16 102t44 103q55 101 145 188q91 86 180 127l32 -42q-117 -84 -212 -232q-96 -148 -96 -280q0 -131 113 -131zM559 856l-155 194h125l78 -194h-48z" />
    <glyph glyph-name="oacute" unicode="&#xf3;" horiz-adv-x="747" 
d="M451 385q23 -68 68 -96q67 130 67 241q0 154 -70 154q-37 0 -63 -50q-25 -47 -25 -114t23 -135zM172 15q158 0 322 231q-86 50 -110 189q-8 42 -8 86q0 89 42 152t102 63q84 0 110 -115q8 -35 8 -70q0 -69 -21 -149t-53 -130q4 -1 8 -1h9q104 0 166 102l36 -28
q-86 -122 -207 -122q-21 0 -37 4q-120 -201 -293 -251q-50 -14 -94 -15t-80 15q-38 16 -65 45t-42 69t-15 90t16 102t44 103q55 101 145 188q91 86 180 127l32 -42q-117 -84 -212 -232q-96 -148 -96 -280q0 -131 113 -131zM498 856h-69l178 194h125z" />
    <glyph glyph-name="ocircumflex" unicode="&#xf4;" horiz-adv-x="747" 
d="M451 385q23 -68 68 -96q67 130 67 241q0 154 -70 154q-37 0 -63 -50q-25 -47 -25 -114t23 -135zM172 15q158 0 322 231q-86 50 -110 189q-8 42 -8 86q0 89 42 152t102 63q84 0 110 -115q8 -35 8 -70q0 -69 -21 -149t-53 -130q4 -1 8 -1h9q104 0 166 102l36 -28
q-86 -122 -207 -122q-21 0 -37 4q-120 -201 -293 -251q-50 -14 -94 -15t-80 15q-38 16 -65 45t-42 69t-15 90t16 102t44 103q55 101 145 188q91 86 180 127l32 -42q-117 -84 -212 -232q-96 -148 -96 -280q0 -131 113 -131zM633 856l-59 120l-165 -120h-69l217 194h85
l39 -194h-48z" />
    <glyph glyph-name="otilde" unicode="&#xf5;" horiz-adv-x="747" 
d="M451 385q23 -68 68 -96q67 130 67 241q0 154 -70 154q-37 0 -63 -50q-25 -47 -25 -114t23 -135zM172 15q158 0 322 231q-86 50 -110 189q-8 42 -8 86q0 89 42 152t102 63q84 0 110 -115q8 -35 8 -70q0 -69 -21 -149t-53 -130q4 -1 8 -1h9q104 0 166 102l36 -28
q-86 -122 -207 -122q-21 0 -37 4q-120 -201 -293 -251q-50 -14 -94 -15t-80 15q-38 16 -65 45t-42 69t-15 90t16 102t44 103q55 101 145 188q91 86 180 127l32 -42q-117 -84 -212 -232q-96 -148 -96 -280q0 -131 113 -131zM643 935q55 0 107 101l34 -16q-60 -156 -160 -156
q-46 0 -86 60q-16 22 -29 40q-14 18 -42 19q-28 0 -66 -51q-18 -22 -32 -50l-34 16q60 156 160 156q31 0 51 -18t34 -42q16 -22 30 -40t33 -19z" />
    <glyph glyph-name="odieresis" unicode="&#xf6;" horiz-adv-x="747" 
d="M451 385q23 -68 68 -96q67 130 67 241q0 154 -70 154q-37 0 -63 -50q-25 -47 -25 -114t23 -135zM172 15q158 0 322 231q-86 50 -110 189q-8 42 -8 86q0 89 42 152t102 63q84 0 110 -115q8 -35 8 -70q0 -69 -21 -149t-53 -130q4 -1 8 -1h9q104 0 166 102l36 -28
q-86 -122 -207 -122q-21 0 -37 4q-120 -201 -293 -251q-50 -14 -94 -15t-80 15q-38 16 -65 45t-42 69t-15 90t16 102t44 103q55 101 145 188q91 86 180 127l32 -42q-117 -84 -212 -232q-96 -148 -96 -280q0 -131 113 -131zM513 951q1 -29 -21 -51t-52 -22t-51 22t-21 51
t21 51t51 22t52 -22t21 -51zM726 951q0 -29 -22 -51t-51 -22q-30 0 -51 22t-21 51t21 51t51 22q29 0 51 -22t22 -51z" />
    <glyph glyph-name="divide" unicode="&#xf7;" 
d="M140 655l27 55h582l-27 -55h-582zM307 465q0 25 17 42t42 17t42 -17t17 -42t-17 -42t-42 -17t-42 17t-17 42zM465 904q0 25 17 42t42 17t42 -17t17 -42t-17 -42t-42 -17t-42 17t-17 42z" />
    <glyph glyph-name="oslash" unicode="&#xf8;" horiz-adv-x="747" 
d="M574 628q-19 56 -57 56t-63 -48q-26 -48 -26 -91q0 -42 2 -62zM586 538v18q0 6 -1 11l-145 -145q26 -98 79 -133q67 131 67 249zM165 15q99 0 182 68t147 163q-64 39 -96 133l-319 -319q28 -45 86 -45zM539 227q-159 -266 -403 -266q-60 0 -112 44l-207 -208l-37 35
l210 210q-40 57 -40 122q0 66 16 118t44 103q55 101 145 188q91 86 180 127l32 -42q-117 -84 -212 -232q-96 -148 -96 -279v-17q0 -8 2 -16l322 323q-7 38 -7 83q0 90 42 153t103 63t93 -68l207 208l37 -35l-227 -228q7 -37 7 -67q0 -137 -74 -274q4 -1 8 -1h9
q104 0 166 102l36 -28q-86 -122 -207 -122q-21 0 -37 4z" />
    <glyph glyph-name="ugrave" unicode="&#xf9;" horiz-adv-x="888" 
d="M544 -15q-76 0 -103 68q-8 20 -8 56t33 109q-103 -121 -164 -165q-112 -82 -190 -82t-125 51t-47 130q0 236 318 535l43 -30q-116 -171 -160 -251q-98 -177 -98 -279q0 -103 75 -103q162 0 459 429q104 150 171 270l73 -36q-57 -115 -111 -213t-120 -223t-66 -169
q0 -45 25 -45q111 -3 339 336l36 -28q-216 -360 -380 -360zM559 856l-155 194h125l78 -194h-48z" />
    <glyph glyph-name="uacute" unicode="&#xfa;" horiz-adv-x="888" 
d="M544 -15q-76 0 -103 68q-8 20 -8 56t33 109q-103 -121 -164 -165q-112 -82 -190 -82t-125 51t-47 130q0 236 318 535l43 -30q-116 -171 -160 -251q-98 -177 -98 -279q0 -103 75 -103q162 0 459 429q104 150 171 270l73 -36q-57 -115 -111 -213t-120 -223t-66 -169
q0 -45 25 -45q111 -3 339 336l36 -28q-216 -360 -380 -360zM498 856h-69l178 194h125z" />
    <glyph glyph-name="ucircumflex" unicode="&#xfb;" horiz-adv-x="888" 
d="M544 -15q-76 0 -103 68q-8 20 -8 56t33 109q-103 -121 -164 -165q-112 -82 -190 -82t-125 51t-47 130q0 236 318 535l43 -30q-116 -171 -160 -251q-98 -177 -98 -279q0 -103 75 -103q162 0 459 429q104 150 171 270l73 -36q-57 -115 -111 -213t-120 -223t-66 -169
q0 -45 25 -45q111 -3 339 336l36 -28q-216 -360 -380 -360zM633 856l-59 120l-165 -120h-69l217 194h85l39 -194h-48z" />
    <glyph glyph-name="udieresis" unicode="&#xfc;" horiz-adv-x="888" 
d="M544 -15q-76 0 -103 68q-8 20 -8 56t33 109q-103 -121 -164 -165q-112 -82 -190 -82t-125 51t-47 130q0 236 318 535l43 -30q-116 -171 -160 -251q-98 -177 -98 -279q0 -103 75 -103q162 0 459 429q104 150 171 270l73 -36q-57 -115 -111 -213t-120 -223t-66 -169
q0 -45 25 -45q111 -3 339 336l36 -28q-216 -360 -380 -360zM513 951q1 -29 -21 -51t-52 -22t-51 22t-21 51t21 51t51 22t52 -22t21 -51zM726 951q0 -29 -22 -51t-51 -22q-30 0 -51 22t-21 51t21 51t51 22q29 0 51 -22t22 -51z" />
    <glyph glyph-name="yacute" unicode="&#xfd;" horiz-adv-x="887" 
d="M-316 -781q0 -78 71 -78q133 -1 321 341q73 133 147 304q-227 -140 -385 -310q-72 -78 -113 -148q-41 -69 -41 -109zM136 22q-78 0 -124 56t-47 131q0 127 83 257q83 129 189 221l43 -30q-216 -306 -216 -482q0 -101 74 -101q128 0 345 275q90 114 143 202q54 87 86 141
t64 105l47 -24q-24 -49 -59 -121q-36 -72 -74 -152q-109 -226 -255 -536q270 149 452 409l37 -28q-169 -258 -527 -461q-185 -397 -321 -577q-167 -220 -321 -220q-54 0 -90 36q-36 35 -36 97t25 121t69 119q87 118 235 229q148 112 311 194q114 238 174 340
q-182 -201 -307 -201zM513 856h-69l178 194h125z" />
    <glyph glyph-name="thorn" unicode="&#xfe;" horiz-adv-x="819" 
d="M504 25q68 -1 218 203q52 70 97 145l37 -28q-53 -106 -117 -183t-102 -111q-86 -77 -165 -77t-111 75q-11 25 -11 65q0 101 85 224q41 58 71 98t58 83t29 82q0 67 -50 67t-104 -29t-107 -77t-104 -108q-50 -60 -96 -124t-84 -125t-67 -109q-27 -48 -43 -78t-38 -74
t-61 -124t-75 -152l-66 -132t-52 -103l-34 -69q-12 -25 -14 -26l-109 62q171 314 290 554q118 241 235 474q178 356 310 556t268 358l43 -28q-108 -157 -229 -376q-121 -220 -152 -280l-126 -242q238 305 425 305q114 0 114 -114q0 -115 -107 -281t-107 -233q0 -68 51 -68z
" />
    <glyph glyph-name="ydieresis" unicode="&#xff;" horiz-adv-x="887" 
d="M-316 -781q0 -78 71 -78q133 -1 321 341q73 133 147 304q-227 -140 -385 -310q-72 -78 -113 -148q-41 -69 -41 -109zM136 22q-78 0 -124 56t-47 131q0 127 83 257q83 129 189 221l43 -30q-216 -306 -216 -482q0 -101 74 -101q128 0 345 275q90 114 143 202q54 87 86 141
t64 105l47 -24q-24 -49 -59 -121q-36 -72 -74 -152q-109 -226 -255 -536q270 149 452 409l37 -28q-169 -258 -527 -461q-185 -397 -321 -577q-167 -220 -321 -220q-54 0 -90 36q-36 35 -36 97t25 121t69 119q87 118 235 229q148 112 311 194q114 238 174 340
q-182 -201 -307 -201zM528 951q0 -29 -22 -51t-51 -22q-30 0 -51 22t-21 51t21 51t51 22q29 0 51 -22t22 -51zM741 951q1 -29 -21 -51t-52 -22t-51 22t-21 51t21 51t51 22t52 -22t21 -51z" />
    <glyph glyph-name="Amacron" unicode="&#x100;" horiz-adv-x="2330" 
d="M1771 179q-100 320 -250 544q-160 -181 -297 -347q178 -98 434 -169q66 -18 113 -28zM916 749q0 -187 262 -346q171 208 311 365q-164 215 -327 215q-105 0 -176 -67q-70 -67 -70 -167zM2414 1301q0 35 -27 51t-62 17q-220 0 -765 -603q126 -194 255 -558
q262 570 549 984q50 74 50 109zM2480 1284q0 -62 -40 -141t-106 -189q-220 -362 -413 -801q94 -12 152 -10l2 -52q-91 0 -176 12q-64 -149 -64 -154l-119 37l60 137q-352 79 -590 208q-352 -406 -694 -406q-208 0 -370 117t-162 306q0 153 107 237q107 83 274 83
q220 0 371 -126q55 -46 94 -114l-44 -28q-19 38 -73 75t-129 68t-177 31q-103 0 -159 -26t-94 -64q-74 -78 -74 -184q0 -197 238 -286q358 -133 712 204q72 68 133 139q-314 189 -314 440q0 116 81 199t199 83q232 0 424 -267q546 609 798 609q61 0 94 -27q59 -48 59 -110z
M2234 1590l21 69h358l-21 -69h-358z" />
    <glyph glyph-name="amacron" unicode="&#x101;" horiz-adv-x="905" 
d="M41 136q-1 -119 103 -119q95 0 190 88q48 45 154 180q13 21 32 53q71 122 116 188q0 73 -51 105q-24 15 -61 15q-77 0 -166 -46q-88 -46 -165 -138q-152 -182 -152 -326zM941 345q-179 -337 -381 -337q-50 0 -79 36q-28 36 -28 78t3 54q-168 -212 -341 -212
q-78 0 -132 50q-53 50 -53 123q0 153 109 296t227 206t214 63q176 0 196 -124q22 28 87 101l32 -14q-13 -26 -37 -68q-24 -43 -50 -93t-54 -105t-50 -107t-38 -100q-14 -46 -14 -78t12 -42t38 -9q24 0 54 17t60 44t58 61q28 35 52 69t45 66q20 32 34 53zM423 925l21 69h358
l-21 -69h-358z" />
    <glyph glyph-name="Abreve" unicode="&#x102;" horiz-adv-x="2330" 
d="M1771 179q-100 320 -250 544q-160 -181 -297 -347q178 -98 434 -169q66 -18 113 -28zM916 749q0 -187 262 -346q171 208 311 365q-164 215 -327 215q-105 0 -176 -67q-70 -67 -70 -167zM2414 1301q0 35 -27 51t-62 17q-220 0 -765 -603q126 -194 255 -558
q262 570 549 984q50 74 50 109zM2480 1284q0 -62 -40 -141t-106 -189q-220 -362 -413 -801q94 -12 152 -10l2 -52q-91 0 -176 12q-64 -149 -64 -154l-119 37l60 137q-352 79 -590 208q-352 -406 -694 -406q-208 0 -370 117t-162 306q0 153 107 237q107 83 274 83
q220 0 371 -126q55 -46 94 -114l-44 -28q-19 38 -73 75t-129 68t-177 31q-103 0 -159 -26t-94 -64q-74 -78 -74 -184q0 -197 238 -286q358 -133 712 204q72 68 133 139q-314 189 -314 440q0 116 81 199t199 83q232 0 424 -267q546 609 798 609q61 0 94 -27q59 -48 59 -110z
M2406 1602q86 0 148 61q26 26 42 61h48q-22 -85 -96 -144t-157 -59q-85 -1 -131 59q-47 59 -28 144h48q-4 -66 47 -103q25 -19 79 -19z" />
    <glyph glyph-name="abreve" unicode="&#x103;" horiz-adv-x="905" 
d="M41 136q-1 -119 103 -119q95 0 190 88q48 45 154 180q13 21 32 53q71 122 116 188q0 73 -51 105q-24 15 -61 15q-77 0 -166 -46q-88 -46 -165 -138q-152 -182 -152 -326zM941 345q-179 -337 -381 -337q-50 0 -79 36q-28 36 -28 78t3 54q-168 -212 -341 -212
q-78 0 -132 50q-53 50 -53 123q0 153 109 296t227 206t214 63q176 0 196 -124q22 28 87 101l32 -14q-13 -26 -37 -68q-24 -43 -50 -93t-54 -105t-50 -107t-38 -100q-14 -46 -14 -78t12 -42t38 -9q24 0 54 17t60 44t58 61q28 35 52 69t45 66q20 32 34 53zM450 916
q-47 59 -29 143h48q-4 -66 47 -103q26 -19 80 -19q86 0 147 61q26 26 42 61h48q-22 -85 -96 -144t-158 -59q-82 0 -129 60z" />
    <glyph glyph-name="Aogonek" unicode="&#x104;" horiz-adv-x="2330" 
d="M1771 179q-100 320 -250 544q-160 -181 -297 -347q178 -98 434 -169q66 -18 113 -28zM916 749q0 -187 262 -346q171 208 311 365q-164 215 -327 215q-105 0 -176 -67q-70 -67 -70 -167zM2414 1301q0 35 -27 51t-62 17q-220 0 -765 -603q126 -194 255 -558
q262 570 549 984q50 74 50 109zM1678 -212q0 -32 23 -48t50 -17q27 0 67 15l-10 -42q-53 -23 -105 -23q-52 -1 -83 29t-31 69q0 67 61 116q61 50 133 78l-67 21q15 35 30 69l30 68q-352 79 -590 208q-352 -406 -694 -406q-208 0 -370 117t-162 306q0 153 107 237
q107 83 274 83q220 0 371 -126q55 -46 94 -114l-44 -28q-19 38 -73 75t-129 68t-177 31q-103 0 -159 -26t-94 -64q-74 -78 -74 -184q0 -197 238 -286q358 -133 712 204q72 68 133 139q-314 189 -314 440q0 116 81 199t199 83q232 0 424 -267q546 609 798 609q61 0 94 -27
q59 -48 59 -110t-40 -141t-106 -189q-220 -362 -413 -801q94 -12 152 -10l2 -52q-91 0 -176 12q-64 -149 -64 -154q-14 -7 -40 -19t-52 -33q-65 -50 -65 -109z" />
    <glyph glyph-name="aogonek" unicode="&#x105;" horiz-adv-x="905" 
d="M41 136q-1 -119 103 -119q95 0 190 88q48 45 154 180q13 21 32 53q71 122 116 188q0 73 -51 105q-24 15 -61 15q-77 0 -166 -46q-88 -46 -165 -138q-152 -182 -152 -326zM359 -180q0 113 182 190q-88 15 -88 127q0 27 3 39q-168 -212 -341 -212q-78 0 -132 50
q-53 50 -53 123q0 153 109 296t227 206t214 63q176 0 196 -124q22 28 87 101l32 -14q-13 -26 -37 -68q-24 -43 -50 -93t-54 -105t-50 -107t-38 -100q-14 -46 -14 -78t12 -42t38 -9q24 0 54 17t60 44t58 61q28 35 52 69t45 66q20 32 34 53l36 -28q-153 -279 -314 -332
q-99 -33 -157 -112q-22 -29 -22 -62t23 -49t50 -17q27 0 67 15l-10 -42q-53 -23 -105 -23q-52 -1 -83 29t-31 68z" />
    <glyph glyph-name="Cacute" unicode="&#x106;" horiz-adv-x="1316" 
d="M857 614q63 0 133 30t130 79q114 94 185 236q71 143 71 255t-63 172t-162 60q-97 0 -191 -34t-182 -91q-88 -59 -169 -137t-151 -168q-139 -179 -224 -380t-85 -371q0 -169 106 -289t302 -121q308 1 577 279q95 98 182 239l36 -28q-175 -285 -400 -425
q-190 -119 -389 -118q-243 0 -383 157t-140 369q0 255 194 568q125 202 299 357q175 155 377 219q102 32 186 33q164 0 259 -82q94 -82 94 -248q-1 -125 -71 -267q-122 -244 -334 -328q-76 -30 -163 -30q-158 0 -271 106l30 33q6 -13 43 -33t74 -31t100 -11zM1153 1605h-69
l178 194h125z" />
    <glyph glyph-name="cacute" unicode="&#x107;" horiz-adv-x="693" 
d="M87 214q0 -183 153 -183q126 0 243 99q118 99 210 243l37 -28q-160 -270 -370 -343q-66 -23 -122 -23q-114 0 -186 64t-72 189q0 218 169 382q99 96 211 132q54 18 102 17q85 0 123 -39q37 -39 37 -73t-7 -61q-7 -28 -19 -50t-32 -37q-18 -15 -40 -15t-38 14t-16 26
q0 29 16 54t66 25h12q6 16 6 34q0 69 -97 69t-187 -73q-136 -109 -184 -299q-16 -62 -15 -124zM457 856h-69l178 194h125z" />
    <glyph glyph-name="Ccircumflex" unicode="&#x108;" horiz-adv-x="1316" 
d="M857 614q63 0 133 30t130 79q114 94 185 236q71 143 71 255t-63 172t-162 60q-97 0 -191 -34t-182 -91q-88 -59 -169 -137t-151 -168q-139 -179 -224 -380t-85 -371q0 -169 106 -289t302 -121q308 1 577 279q95 98 182 239l36 -28q-175 -285 -400 -425
q-190 -119 -389 -118q-243 0 -383 157t-140 369q0 255 194 568q125 202 299 357q175 155 377 219q102 32 186 33q164 0 259 -82q94 -82 94 -248q-1 -125 -71 -267q-122 -244 -334 -328q-76 -30 -163 -30q-158 0 -271 106l30 33q6 -13 43 -33t74 -31t100 -11zM1288 1605
l-59 120l-165 -120h-69l217 194h85l39 -194h-48z" />
    <glyph glyph-name="ccircumflex" unicode="&#x109;" horiz-adv-x="693" 
d="M87 214q0 -183 153 -183q126 0 243 99q118 99 210 243l37 -28q-160 -270 -370 -343q-66 -23 -122 -23q-114 0 -186 64t-72 189q0 218 169 382q99 96 211 132q54 18 102 17q85 0 123 -39q37 -39 37 -73t-7 -61q-7 -28 -19 -50t-32 -37q-18 -15 -40 -15t-38 14t-16 26
q0 29 16 54t66 25h12q6 16 6 34q0 69 -97 69t-187 -73q-136 -109 -184 -299q-16 -62 -15 -124zM592 856l-59 120l-165 -120h-69l217 194h85l39 -194h-48z" />
    <glyph glyph-name="Cdotaccent" unicode="&#x10a;" horiz-adv-x="1316" 
d="M857 614q63 0 133 30t130 79q114 94 185 236q71 143 71 255t-63 172t-162 60q-97 0 -191 -34t-182 -91q-88 -59 -169 -137t-151 -168q-139 -179 -224 -380t-85 -371q0 -169 106 -289t302 -121q308 1 577 279q95 98 182 239l36 -28q-175 -285 -400 -425
q-190 -119 -389 -118q-243 0 -383 157t-140 369q0 255 194 568q125 202 299 357q175 155 377 219q102 32 186 33q164 0 259 -82q94 -82 94 -248q-1 -125 -71 -267q-122 -244 -334 -328q-76 -30 -163 -30q-158 0 -271 106l30 33q6 -13 43 -33t74 -31t100 -11zM1274 1700
q0 -30 -21 -52t-51 -21q-30 -1 -52 21t-21 52q-1 30 21 51t52 21t51 -21t21 -51z" />
    <glyph glyph-name="cdotaccent" unicode="&#x10b;" horiz-adv-x="693" 
d="M87 214q0 -183 153 -183q126 0 243 99q118 99 210 243l37 -28q-160 -270 -370 -343q-66 -23 -122 -23q-114 0 -186 64t-72 189q0 218 169 382q99 96 211 132q54 18 102 17q85 0 123 -39q37 -39 37 -73t-7 -61q-7 -28 -19 -50t-32 -37q-18 -15 -40 -15t-38 14t-16 26
q0 29 16 54t66 25h12q6 16 6 34q0 69 -97 69t-187 -73q-136 -109 -184 -299q-16 -62 -15 -124zM578 951q0 -29 -21 -51t-51 -22t-52 22t-21 51q-1 30 21 51t52 21t51 -21t21 -51z" />
    <glyph glyph-name="Ccaron" unicode="&#x10c;" horiz-adv-x="1316" 
d="M857 614q63 0 133 30t130 79q114 94 185 236q71 143 71 255t-63 172t-162 60q-97 0 -191 -34t-182 -91q-88 -59 -169 -137t-151 -168q-139 -179 -224 -380t-85 -371q0 -169 106 -289t302 -121q308 1 577 279q95 98 182 239l36 -28q-175 -285 -400 -425
q-190 -119 -389 -118q-243 0 -383 157t-140 369q0 255 194 568q125 202 299 357q175 155 377 219q102 32 186 33q164 0 259 -82q94 -82 94 -248q-1 -125 -71 -267q-122 -244 -334 -328q-76 -30 -163 -30q-158 0 -271 106l30 33q6 -13 43 -33t74 -31t100 -11zM1120 1799
l59 -120l165 120h69l-217 -194h-85l-39 194h48z" />
    <glyph glyph-name="ccaron" unicode="&#x10d;" horiz-adv-x="693" 
d="M87 214q0 -183 153 -183q126 0 243 99q118 99 210 243l37 -28q-160 -270 -370 -343q-66 -23 -122 -23q-114 0 -186 64t-72 189q0 218 169 382q99 96 211 132q54 18 102 17q85 0 123 -39q37 -39 37 -73t-7 -61q-7 -28 -19 -50t-32 -37q-18 -15 -40 -15t-38 14t-16 26
q0 29 16 54t66 25h12q6 16 6 34q0 69 -97 69t-187 -73q-136 -109 -184 -299q-16 -62 -15 -124zM424 1050l59 -120l165 120h69l-217 -194h-85l-39 194h48z" />
    <glyph glyph-name="Dcaron" unicode="&#x10e;" horiz-adv-x="2000" 
d="M198 -37q0 -60 138 -60t258 87q-155 40 -237 40q-83 0 -121 -20t-38 -47zM1791 719q0 282 -182 464q-59 59 -135 101q-119 -171 -246 -459q-53 -120 -104 -238q-50 -117 -106 -225q-125 -241 -267 -361q201 -55 351 -55t284 60t224 166q181 210 181 547zM1089 1436
q181 0 355 -79q57 61 123 114l31 -33q-50 -53 -93 -111q187 -103 291 -283t104 -393q0 -311 -177 -521q-202 -240 -603 -241q-154 0 -421 72q-163 -110 -375 -110q-132 1 -168 67q-10 20 -11 42q0 51 53 87q111 74 448 -16q124 111 250 361q56 110 108 229q211 472 404 696
q-157 67 -350 67q-355 0 -625 -197q-163 -119 -227 -271q-32 -74 -32 -135q0 -110 71 -180t188 -70q116 1 272 95q44 27 52 34l32 -42q-243 -160 -432 -160q-124 0 -210 80q-87 80 -87 215t127 298t357 274q229 111 545 111zM1064 1730l59 -120l165 120h69l-217 -194h-85
l-39 194h48z" />
    <glyph glyph-name="dcaron" unicode="&#x10f;" horiz-adv-x="1027" 
d="M519 693q-59 0 -109 -20t-96 -54q-96 -70 -161 -182q-64 -112 -64 -204q-1 -93 31 -135t85 -42q119 0 277 187q11 161 125 406q-30 44 -88 44zM586 186q0 -101 65 -101q106 0 234 219q29 49 42 69l36 -28q-11 -17 -27 -47t-38 -65q-121 -201 -265 -201q-88 0 -129 68
q-16 26 -21 68q-152 -164 -285 -164t-195 120q-23 44 -23 115q0 70 23 137q23 66 62 124q77 113 194 183q117 69 217 69t157 -48q137 275 341 526q48 60 98 112l43 -28q-393 -573 -499 -951q-30 -105 -30 -177zM1204 1279q0 27 20 45t45 18q26 0 44 -19t18 -45
q0 -48 -46 -97t-99 -78l-28 33q71 48 91 83q-45 10 -45 60z" />
    <glyph glyph-name="Dcroat" unicode="&#x110;" horiz-adv-x="2000" 
d="M198 -37q0 -60 138 -60t258 87q-155 40 -237 40q-83 0 -121 -20t-38 -47zM1791 719q0 282 -182 464q-59 59 -135 101q-114 -164 -238 -442q-52 -116 -101 -230t-102 -220h315l-30 -65h-319q-119 -218 -248 -326q201 -55 351 -55t284 60t224 166q181 210 181 547z
M1089 1436q181 0 355 -79q57 61 123 114l31 -33q-50 -53 -93 -111q187 -103 291 -283t104 -393q0 -311 -177 -521q-202 -240 -603 -241q-154 0 -421 72q-163 -110 -375 -110q-132 1 -168 67q-10 20 -11 42q0 51 53 87q111 74 448 -16q110 100 215 296h-279l30 65h283
q55 110 109 230t115 240q143 287 289 455q-157 67 -350 67q-355 0 -625 -197q-163 -119 -227 -271q-32 -74 -32 -135q0 -110 71 -180t188 -70q116 1 272 95q44 27 52 34l32 -42q-243 -160 -432 -160q-124 0 -210 80q-87 80 -87 215t127 298t357 274q229 111 545 111z" />
    <glyph glyph-name="dcroat" unicode="&#x111;" horiz-adv-x="927" 
d="M519 693q-59 0 -109 -20t-96 -54q-96 -70 -161 -182q-64 -112 -64 -204q-1 -93 31 -135t85 -42q119 0 277 187q11 161 125 406q-30 44 -88 44zM586 186q0 -101 65 -101q106 0 234 219q29 49 42 69l36 -28q-11 -17 -27 -47t-38 -65q-121 -201 -265 -201q-88 0 -129 68
q-16 26 -21 68q-152 -164 -285 -164t-195 120q-23 44 -23 115q0 70 23 137q23 66 62 124q77 113 194 183q117 69 217 69t157 -48q65 129 182 309h-293l25 55h305q115 165 220 274l43 -28l-24 -36q-47 -68 -137 -210h178l-25 -55h-186q-335 -552 -335 -827z" />
    <glyph glyph-name="Emacron" unicode="&#x112;" horiz-adv-x="1337" 
d="M892 587q54 0 54 34q0 78 -244 83q56 -82 142 -109q26 -8 48 -8zM1448 1217q0 142 -220 142q-135 -1 -278 -75q-134 -70 -216 -182q-84 -114 -84 -231q0 -59 22 -112q327 -9 327 -140q0 -40 -30 -61q-31 -21 -71 -21q-77 0 -151 45q-75 45 -127 120q-223 -18 -369 -162
t-146 -339q0 -161 107 -252q107 -92 312 -92q356 0 686 359q52 56 85 100q32 44 42 57l36 -28q-87 -125 -150 -192q-321 -348 -721 -348q-255 0 -388 119q-134 119 -134 309t141 339q163 173 465 187q-38 76 -38 155q0 80 26 148t72 126q88 111 234 177q147 66 299 66
q229 -1 299 -127q22 -40 22 -88q0 -50 -22 -96t-58 -84q-72 -74 -185 -115q-114 -42 -227 -42q-18 0 -29 1t-13 1l6 52q3 -1 8 -1h24q164 0 304 82t140 203zM1069 1600l21 69h358l-21 -69h-358z" />
    <glyph glyph-name="emacron" unicode="&#x113;" horiz-adv-x="730" 
d="M524 622q0 59 -61 59q-32 1 -87 -31t-110 -88q-124 -125 -182 -291q186 19 322 146q74 69 104 144q14 34 14 61zM246 -54q-112 0 -188 52q-94 65 -93 198q0 133 85 258t205 202q119 76 210 76t129 -78q14 -28 13 -74t-25 -92t-65 -86q-79 -77 -207 -125
q-127 -47 -234 -49q-4 -24 -4 -54q0 -70 43 -121t119 -51q263 0 496 371l34 -30q-183 -305 -402 -376q-65 -21 -116 -21zM341 925l21 69h358l-21 -69h-358z" />
    <glyph glyph-name="Ebreve" unicode="&#x114;" horiz-adv-x="1337" 
d="M892 587q54 0 54 34q0 78 -244 83q56 -82 142 -109q26 -8 48 -8zM1448 1217q0 142 -220 142q-135 -1 -278 -75q-134 -70 -216 -182q-84 -114 -84 -231q0 -59 22 -112q327 -9 327 -140q0 -40 -30 -61q-31 -21 -71 -21q-77 0 -151 45q-75 45 -127 120q-223 -18 -369 -162
t-146 -339q0 -161 107 -252q107 -92 312 -92q356 0 686 359q52 56 85 100q32 44 42 57l36 -28q-87 -125 -150 -192q-321 -348 -721 -348q-255 0 -388 119q-134 119 -134 309t141 339q163 173 465 187q-38 76 -38 155q0 80 26 148t72 126q88 111 234 177q147 66 299 66
q229 -1 299 -127q22 -40 22 -88q0 -50 -22 -96t-58 -84q-72 -74 -185 -115q-114 -42 -227 -42q-18 0 -29 1t-13 1l6 52q3 -1 8 -1h24q164 0 304 82t140 203zM1096 1590q-47 59 -29 144h48q-4 -66 47 -103q26 -19 80 -19q86 0 147 61q26 26 42 61h48q-22 -85 -96 -144
t-158 -59q-82 -1 -129 59z" />
    <glyph glyph-name="ebreve" unicode="&#x115;" horiz-adv-x="730" 
d="M524 622q0 59 -61 59q-32 1 -87 -31t-110 -88q-124 -125 -182 -291q186 19 322 146q74 69 104 144q14 34 14 61zM246 -54q-112 0 -188 52q-94 65 -93 198q0 133 85 258t205 202q119 76 210 76t129 -78q14 -28 13 -74t-25 -92t-65 -86q-79 -77 -207 -125
q-127 -47 -234 -49q-4 -24 -4 -54q0 -70 43 -121t119 -51q263 0 496 371l34 -30q-183 -305 -402 -376q-65 -21 -116 -21zM368 916q-47 59 -29 143h48q-4 -66 47 -103q26 -19 80 -19q86 0 147 61q26 26 42 61h48q-22 -85 -96 -144t-158 -59q-82 0 -129 60z" />
    <glyph glyph-name="Edotaccent" unicode="&#x116;" horiz-adv-x="1337" 
d="M892 587q54 0 54 34q0 78 -244 83q56 -82 142 -109q26 -8 48 -8zM1448 1217q0 142 -220 142q-135 -1 -278 -75q-134 -70 -216 -182q-84 -114 -84 -231q0 -59 22 -112q327 -9 327 -140q0 -40 -30 -61q-31 -21 -71 -21q-77 0 -151 45q-75 45 -127 120q-223 -18 -369 -162
t-146 -339q0 -161 107 -252q107 -92 312 -92q356 0 686 359q52 56 85 100q32 44 42 57l36 -28q-87 -125 -150 -192q-321 -348 -721 -348q-255 0 -388 119q-134 119 -134 309t141 339q163 173 465 187q-38 76 -38 155q0 80 26 148t72 126q88 111 234 177q147 66 299 66
q229 -1 299 -127q22 -40 22 -88q0 -50 -22 -96t-58 -84q-72 -74 -185 -115q-114 -42 -227 -42q-18 0 -29 1t-13 1l6 52q3 -1 8 -1h24q164 0 304 82t140 203zM1316 1626q0 -30 -21 -52t-51 -21q-30 -1 -52 21t-21 52q-1 30 21 51t52 21t51 -21t21 -51z" />
    <glyph glyph-name="edotaccent" unicode="&#x117;" horiz-adv-x="730" 
d="M524 622q0 59 -61 59q-32 1 -87 -31t-110 -88q-124 -125 -182 -291q186 19 322 146q74 69 104 144q14 34 14 61zM246 -54q-112 0 -188 52q-94 65 -93 198q0 133 85 258t205 202q119 76 210 76t129 -78q14 -28 13 -74t-25 -92t-65 -86q-79 -77 -207 -125
q-127 -47 -234 -49q-4 -24 -4 -54q0 -70 43 -121t119 -51q263 0 496 371l34 -30q-183 -305 -402 -376q-65 -21 -116 -21zM588 951q0 -29 -21 -51t-51 -22t-52 22t-21 51q-1 30 21 51t52 21t51 -21t21 -51z" />
    <glyph glyph-name="Eogonek" unicode="&#x118;" horiz-adv-x="1337" 
d="M892 587q54 0 54 34q0 78 -244 83q56 -82 142 -109q26 -8 48 -8zM1448 1217q0 142 -220 142q-135 -1 -278 -75q-134 -70 -216 -182q-84 -114 -84 -231q0 -59 22 -112q327 -9 327 -140q0 -40 -30 -61q-31 -21 -71 -21q-77 0 -151 45q-75 45 -127 120q-223 -18 -369 -162
t-146 -339q0 -161 107 -252q107 -92 312 -92q356 0 686 359q52 56 85 100q32 44 42 57l36 -28q-226 -339 -534 -471q-87 -38 -187 -56q-108 -50 -156 -116q-22 -30 -21 -62q0 -32 23 -48t50 -17q27 0 67 15l-10 -42q-53 -23 -105 -23q-52 -1 -83 29t-31 71q0 104 170 182
q-28 -2 -54 -2q-255 0 -388 119q-134 119 -134 309t141 339q163 173 465 187q-38 76 -38 155q0 80 26 148t72 126q88 111 234 177q147 66 299 66q229 -1 299 -127q22 -40 22 -88q0 -50 -22 -96t-58 -84q-72 -74 -185 -115q-114 -42 -227 -42q-18 0 -29 1t-13 1l6 52
q3 -1 8 -1h24q164 0 304 82t140 203z" />
    <glyph glyph-name="eogonek" unicode="&#x119;" horiz-adv-x="730" 
d="M524 622q0 59 -61 59q-32 1 -87 -31t-110 -88q-124 -125 -182 -291q186 19 322 146q74 69 104 144q14 34 14 61zM271 -172q0 -32 23 -48t50 -17q27 0 67 15l-10 -42q-53 -23 -105 -23q-52 -1 -83 29t-31 72q0 71 107 136q-28 -4 -61 -4q-94 0 -170 52q-94 65 -93 198
q0 133 85 258t205 202q119 76 210 76t129 -78q14 -28 13 -74t-25 -92t-65 -86q-79 -77 -207 -125q-127 -47 -234 -49q-4 -24 -4 -54q0 -70 43 -121t119 -51q263 0 496 371l34 -30q-155 -257 -352 -360q-141 -74 -141 -155z" />
    <glyph glyph-name="Ecaron" unicode="&#x11a;" horiz-adv-x="1337" 
d="M892 587q54 0 54 34q0 78 -244 83q56 -82 142 -109q26 -8 48 -8zM1448 1217q0 142 -220 142q-135 -1 -278 -75q-134 -70 -216 -182q-84 -114 -84 -231q0 -59 22 -112q327 -9 327 -140q0 -40 -30 -61q-31 -21 -71 -21q-77 0 -151 45q-75 45 -127 120q-223 -18 -369 -162
t-146 -339q0 -161 107 -252q107 -92 312 -92q356 0 686 359q52 56 85 100q32 44 42 57l36 -28q-87 -125 -150 -192q-321 -348 -721 -348q-255 0 -388 119q-134 119 -134 309t141 339q163 173 465 187q-38 76 -38 155q0 80 26 148t72 126q88 111 234 177q147 66 299 66
q229 -1 299 -127q22 -40 22 -88q0 -50 -22 -96t-58 -84q-72 -74 -185 -115q-114 -42 -227 -42q-18 0 -29 1t-13 1l6 52q3 -1 8 -1h24q164 0 304 82t140 203zM1162 1725l59 -120l165 120h69l-217 -194h-85l-39 194h48z" />
    <glyph glyph-name="ecaron" unicode="&#x11b;" horiz-adv-x="730" 
d="M524 622q0 59 -61 59q-32 1 -87 -31t-110 -88q-124 -125 -182 -291q186 19 322 146q74 69 104 144q14 34 14 61zM246 -54q-112 0 -188 52q-94 65 -93 198q0 133 85 258t205 202q119 76 210 76t129 -78q14 -28 13 -74t-25 -92t-65 -86q-79 -77 -207 -125
q-127 -47 -234 -49q-4 -24 -4 -54q0 -70 43 -121t119 -51q263 0 496 371l34 -30q-183 -305 -402 -376q-65 -21 -116 -21zM434 1050l59 -120l165 120h69l-217 -194h-85l-39 194h48z" />
    <glyph glyph-name="Gcircumflex" unicode="&#x11c;" horiz-adv-x="1452" 
d="M1336 1307q0 120 -133 120q-153 0 -301 -114q-226 -173 -320 -475q-30 -98 -39 -199q374 105 599 316q98 92 146 184t48 168zM1171 1484q217 0 217 -177q0 -209 -234 -415t-613 -311q0 -134 65 -226q65 -93 185 -93q121 0 275 107q153 107 259 242q105 135 203 233
l36 -38q-195 -188 -403 -601q-119 -235 -203 -344q-84 -108 -164 -167q-171 -126 -416 -126t-391 110q-147 110 -147 279q0 168 102 255t235 87t229 -81l-29 -41q-83 69 -154 69q-129 0 -198 -80q-70 -80 -70 -207q0 -158 123 -248q123 -91 283 -91q287 0 463 249
q52 73 103 157q50 84 103 172t121 171q-224 -185 -416 -185q-131 0 -224 95t-99 271q-113 -24 -255 -37l-4 52q148 17 260 41q10 236 130 437q120 202 294 321q175 120 334 120zM1314 1584l-59 120l-165 -120h-69l217 194h85l39 -194h-48z" />
    <glyph glyph-name="gcircumflex" unicode="&#x11d;" horiz-adv-x="924" 
d="M-279 -768q0 -93 83 -93q178 0 472 651q-266 -139 -427 -324q-67 -77 -97 -139t-31 -95zM376 600q-98 -45 -175 -137q-152 -180 -152 -322q0 -65 33 -99q34 -34 92 -33q113 0 259 135q144 271 242 409q-8 58 -68 83q-22 9 -78 9q-55 0 -153 -45zM-48 182q0 68 27 137
t72 129q88 117 220 190q132 74 236 74q144 0 203 -104l54 71l33 -22q0 -1 -16 -31t-42 -82q-174 -342 -282 -585q177 101 279 193q103 92 188 221l37 -28q-80 -130 -196 -231t-344 -238q-175 -429 -349 -627q-142 -161 -268 -161q-96 0 -132 71q-14 28 -14 92t44 146
q125 229 614 485q19 44 35 82t30 70q-116 -78 -214 -78q-141 0 -195 115q-20 43 -20 111zM657 856l-59 120l-165 -120h-69l217 194h85l39 -194h-48z" />
    <glyph glyph-name="Gbreve" unicode="&#x11e;" horiz-adv-x="1452" 
d="M1336 1307q0 120 -133 120q-153 0 -301 -114q-226 -173 -320 -475q-30 -98 -39 -199q374 105 599 316q98 92 146 184t48 168zM1171 1484q217 0 217 -177q0 -209 -234 -415t-613 -311q0 -134 65 -226q65 -93 185 -93q121 0 275 107q153 107 259 242q105 135 203 233
l36 -38q-195 -188 -403 -601q-119 -235 -203 -344q-84 -108 -164 -167q-171 -126 -416 -126t-391 110q-147 110 -147 279q0 168 102 255t235 87t229 -81l-29 -41q-83 69 -154 69q-129 0 -198 -80q-70 -80 -70 -207q0 -158 123 -248q123 -91 283 -91q287 0 463 249
q52 73 103 157q50 84 103 172t121 171q-224 -185 -416 -185q-131 0 -224 95t-99 271q-113 -24 -255 -37l-4 52q148 17 260 41q10 236 130 437q120 202 294 321q175 120 334 120zM1080 1644q-47 59 -29 143h48q-4 -66 47 -103q26 -19 80 -19q86 0 147 61q26 26 42 61h48
q-22 -85 -96 -144t-158 -59q-82 0 -129 60z" />
    <glyph glyph-name="gbreve" unicode="&#x11f;" horiz-adv-x="924" 
d="M-279 -768q0 -93 83 -93q178 0 472 651q-266 -139 -427 -324q-67 -77 -97 -139t-31 -95zM376 600q-98 -45 -175 -137q-152 -180 -152 -322q0 -65 33 -99q34 -34 92 -33q113 0 259 135q144 271 242 409q-8 58 -68 83q-22 9 -78 9q-55 0 -153 -45zM-48 182q0 68 27 137
t72 129q88 117 220 190q132 74 236 74q144 0 203 -104l54 71l33 -22q0 -1 -16 -31t-42 -82q-174 -342 -282 -585q177 101 279 193q103 92 188 221l37 -28q-80 -130 -196 -231t-344 -238q-175 -429 -349 -627q-142 -161 -268 -161q-96 0 -132 71q-14 28 -14 92t44 146
q125 229 614 485q19 44 35 82t30 70q-116 -78 -214 -78q-141 0 -195 115q-20 43 -20 111zM568 937q86 0 148 61q26 26 42 61h48q-22 -85 -96 -144t-157 -59q-85 0 -131 60q-47 59 -28 143h48q-4 -66 47 -103q25 -19 79 -19z" />
    <glyph glyph-name="Gdotaccent" unicode="&#x120;" horiz-adv-x="1452" 
d="M1336 1307q0 120 -133 120q-153 0 -301 -114q-226 -173 -320 -475q-30 -98 -39 -199q374 105 599 316q98 92 146 184t48 168zM1171 1484q217 0 217 -177q0 -209 -234 -415t-613 -311q0 -134 65 -226q65 -93 185 -93q121 0 275 107q153 107 259 242q105 135 203 233
l36 -38q-195 -188 -403 -601q-119 -235 -203 -344q-84 -108 -164 -167q-171 -126 -416 -126t-391 110q-147 110 -147 279q0 168 102 255t235 87t229 -81l-29 -41q-83 69 -154 69q-129 0 -198 -80q-70 -80 -70 -207q0 -158 123 -248q123 -91 283 -91q287 0 463 249
q52 73 103 157q50 84 103 172t121 171q-224 -185 -416 -185q-131 0 -224 95t-99 271q-113 -24 -255 -37l-4 52q148 17 260 41q10 236 130 437q120 202 294 321q175 120 334 120zM1300 1679q0 -29 -21 -51t-51 -22t-52 22t-21 51q-1 30 21 51t52 21t51 -21t21 -51z" />
    <glyph glyph-name="gdotaccent" unicode="&#x121;" horiz-adv-x="924" 
d="M-279 -768q0 -93 83 -93q178 0 472 651q-266 -139 -427 -324q-67 -77 -97 -139t-31 -95zM376 600q-98 -45 -175 -137q-152 -180 -152 -322q0 -65 33 -99q34 -34 92 -33q113 0 259 135q144 271 242 409q-8 58 -68 83q-22 9 -78 9q-55 0 -153 -45zM-48 182q0 68 27 137
t72 129q88 117 220 190q132 74 236 74q144 0 203 -104l54 71l33 -22q0 -1 -16 -31t-42 -82q-174 -342 -282 -585q177 101 279 193q103 92 188 221l37 -28q-80 -130 -196 -231t-344 -238q-175 -429 -349 -627q-142 -161 -268 -161q-96 0 -132 71q-14 28 -14 92t44 146
q125 229 614 485q19 44 35 82t30 70q-116 -78 -214 -78q-141 0 -195 115q-20 43 -20 111zM643 951q0 -29 -21 -51t-51 -22q-29 0 -51 22t-22 51q0 30 22 51t51 21q30 0 51 -21t21 -51z" />
    <glyph glyph-name="Gcommaaccent" unicode="&#x122;" horiz-adv-x="1452" 
d="M1336 1307q0 120 -133 120q-153 0 -301 -114q-226 -173 -320 -475q-30 -98 -39 -199q374 105 599 316q98 92 146 184t48 168zM1171 1484q217 0 217 -177q0 -209 -234 -415t-613 -311q0 -134 65 -226q65 -93 185 -93q121 0 275 107q153 107 259 242q105 135 203 233
l36 -38q-195 -188 -403 -601q-119 -235 -203 -344q-84 -108 -164 -167q-171 -126 -416 -126t-391 110q-147 110 -147 279q0 168 102 255t235 87t229 -81l-29 -41q-83 69 -154 69q-129 0 -198 -80q-70 -80 -70 -207q0 -158 123 -248q123 -91 283 -91q287 0 463 249
q52 73 103 157q50 84 103 172t121 171q-224 -185 -416 -185q-131 0 -224 95t-99 271q-113 -24 -255 -37l-4 52q148 17 260 41q10 236 130 437q120 202 294 321q175 120 334 120zM242 -578q0 27 20 45t45 18q26 0 44 -19t18 -45q0 -48 -46 -97t-99 -78l-28 33q71 48 91 83
q-45 10 -45 60z" />
    <glyph glyph-name="gcommaaccent" unicode="&#x123;" horiz-adv-x="924" 
d="M636 927q0 -27 -20 -45t-45 -18q-26 0 -44 19t-18 45q0 48 43 95t102 80l28 -33q-77 -51 -91 -83q45 -10 45 -60zM-279 -768q0 -93 83 -93q178 0 472 651q-266 -139 -427 -324q-67 -77 -97 -139t-31 -95zM376 600q-98 -45 -175 -137q-152 -180 -152 -322q0 -65 33 -99
q34 -34 92 -33q113 0 259 135q144 271 242 409q-8 58 -68 83q-22 9 -78 9q-55 0 -153 -45zM-48 182q0 68 27 137t72 129q88 117 220 190q132 74 236 74q144 0 203 -104l54 71l33 -22q0 -1 -16 -31t-42 -82q-174 -342 -282 -585q177 101 279 193q103 92 188 221l37 -28
q-80 -130 -196 -231t-344 -238q-175 -429 -349 -627q-142 -161 -268 -161q-96 0 -132 71q-14 28 -14 92t44 146q125 229 614 485q19 44 35 82t30 70q-116 -78 -214 -78q-141 0 -195 115q-20 43 -20 111z" />
    <glyph glyph-name="Hcircumflex" unicode="&#x124;" horiz-adv-x="2205" 
d="M2273 1410q1 24 -17 44t-58 20t-82 -24q-44 -24 -89 -64q-160 -148 -337 -502q221 114 423 280q160 131 160 246zM74 34q0 -78 124 -78q64 0 156 44t186 122q193 160 352 413l-62 -18q-570 -169 -718 -373q-38 -52 -38 -110zM1769 583q265 -38 265 -301q0 -152 -105 -270
q-105 -119 -254 -119q-232 1 -290 201q-18 62 -18 140q0 212 127 501q-191 -78 -452 -155q-183 -283 -449 -489q-265 -206 -458 -206q-104 0 -147 51q-44 51 -44 97q0 83 61 161t170 134q180 92 351 151t410 130q158 277 210 507q18 76 18 132q0 104 -60 165q-60 60 -158 60
q-98 -1 -182 -23q-86 -22 -160 -60t-134 -89t-102 -108t-65 -117t-23 -115q0 -101 83 -151q64 -39 161 -38q97 0 202 45l22 -48q-46 -28 -138 -41q-91 -14 -151 -14q-131 0 -214 61t-83 198t124 266t307 208q183 78 340 78q156 0 247 -81t91 -252q0 -170 -117 -415
q-33 -69 -68 -124q266 78 441 154q201 391 397 575q151 142 276 143q59 0 92 -32t33 -93q0 -127 -204 -297q-204 -169 -468 -297q-192 -408 -192 -635q0 -169 128 -213q39 -14 93 -13q117 0 208 99t91 239q1 189 -151 237q-33 10 -63 11zM1699 1606l-59 120l-165 -120h-69
l217 194h85l39 -194h-48z" />
    <glyph glyph-name="hcircumflex" unicode="&#x125;" horiz-adv-x="859" 
d="M758 1420q0 39 -40 39q-40 -1 -78 -35t-85 -119t-237 -512q199 194 320 376q120 181 120 251zM543 -28q-146 0 -146 144q0 114 111 292q29 46 70 116q41 69 41 103q-1 41 -49 41q-96 0 -223 -120q-128 -120 -258 -298l-152 -286l-91 36q126 278 244 548t190 422t96 201
q26 48 56 96q64 105 138 175t147 70q45 0 69 -24t24 -71q0 -45 -25 -105t-67 -126q-147 -231 -460 -528l-122 -267q172 231 340 305q56 24 100 25q75 0 103 -36q27 -36 27 -78q0 -41 -15 -83t-37 -87t-49 -92q-25 -47 -63 -122t-38 -137t48 -62q100 0 307 349l36 -28
q-11 -15 -30 -49t-45 -74q-154 -250 -277 -250zM832 1612l-59 120l-165 -120h-69l217 194h85l39 -194h-48z" />
    <glyph glyph-name="Hbar" unicode="&#x126;" horiz-adv-x="2205" 
d="M1690 884q46 23 91 50h-67zM1086 653q266 78 441 154q13 26 23 45t22 43t21 39h-378q-58 -170 -129 -281zM2273 1405q0 69 -87 69t-207 -137t-231 -338h140q385 243 385 406zM74 34q0 -78 124 -78q64 0 156 44t186 122q193 160 352 413q-818 -245 -818 -501zM1769 583
q265 -38 265 -301q0 -152 -105 -270q-105 -119 -254 -119q-232 1 -290 201q-18 62 -18 140q0 212 127 501q-191 -78 -452 -155q-183 -283 -449 -489q-265 -206 -458 -206q-104 0 -147 51q-44 51 -44 97q0 83 61 161t170 134q180 92 351 151t410 130q97 173 155 325h-529
l30 65h522q50 154 50 230q0 124 -60 184t-158 60q-98 -1 -182 -23q-86 -22 -160 -60t-134 -89t-102 -108t-65 -117t-23 -115q0 -101 83 -151q64 -39 161 -38q97 0 202 45l22 -48q-46 -28 -138 -41q-91 -14 -151 -14q-131 0 -214 61t-83 198t124 266t307 208q183 78 340 78
q156 0 247 -81q91 -80 91 -236q0 -80 -36 -209h395q164 281 330 417q133 109 240 109q59 0 92 -32t33 -93q-1 -60 -49 -134t-125 -138t-169 -129h250l-30 -65h-318q-104 -64 -231 -128q-192 -408 -192 -635q0 -169 128 -213q39 -14 93 -13q117 0 208 99t91 239
q1 189 -151 237q-33 10 -63 11z" />
    <glyph glyph-name="hbar" unicode="&#x127;" horiz-adv-x="859" 
d="M318 793q113 110 203 220h-106zM758 1420q0 40 -36 39q-68 0 -123 -82q-56 -82 -159 -309h125q97 126 145 219t48 133zM543 -28q-146 0 -146 144q0 114 111 292q29 46 70 116q41 69 41 103q-1 41 -49 41q-96 0 -223 -120q-128 -120 -258 -298l-152 -286l-91 36
q119 260 229 512t225 501h-168l25 55h168l51 103q182 341 344 341q42 0 66 -24t24 -70q0 -124 -175 -350h167l-25 -55h-186q-129 -159 -333 -355l-122 -267q172 231 340 305q56 24 100 25q75 0 103 -36q27 -36 27 -78q0 -41 -15 -83t-37 -87t-49 -92q-25 -47 -63 -122
t-38 -137t48 -62q100 0 307 349l36 -28q-11 -15 -30 -49t-45 -74q-154 -250 -277 -250z" />
    <glyph glyph-name="Itilde" unicode="&#x128;" horiz-adv-x="1516" 
d="M767 936q-1 88 21 178t58 162q67 135 173 209q106 73 190 73q152 0 239 -141q88 -141 88 -361q0 -297 -122 -555t-347 -415q-224 -157 -500 -157q-275 0 -454 128q-81 57 -127 133t-46 154q0 143 85 207q85 63 200 63q214 0 392 -107q179 -107 314 -299l-43 -30
q-133 190 -293 281q-160 90 -303 90q-181 0 -226 -119q-14 -37 -14 -98q0 -60 41 -128t110 -118q147 -106 347 -105q430 1 678 415q146 244 186 552q12 88 11 174q0 171 -60 277t-141 106q-59 0 -120 -43q-60 -43 -110 -125q-112 -185 -112 -476q0 -292 144 -461
q38 -45 75 -70l-27 -35q-266 183 -298 477q-8 76 -9 164zM1384 1736q55 0 107 101l34 -16q-60 -156 -160 -156q-45 -1 -85 59q-16 22 -30 42q-14 18 -42 18t-66 -51q-18 -22 -32 -50l-34 16q60 156 160 156q30 -1 50 -19t36 -40t29 -42q14 -18 33 -18z" />
    <glyph glyph-name="itilde" unicode="&#x129;" horiz-adv-x="372" 
d="M62 63q74 -1 160 97q43 49 150 213l36 -28q-83 -148 -137 -210q-113 -127 -227 -127q-60 0 -92 36t-32 98q0 114 108 280q58 89 202 257l32 -14q-12 -27 -36 -69t-51 -92q-156 -292 -156 -387q-1 -54 43 -54zM428 919q55 0 107 101l34 -16q-60 -156 -160 -156
q-45 0 -85 60q-16 22 -30 40t-42 19q-28 0 -66 -51q-18 -22 -32 -50l-34 16q60 156 160 156q30 0 50 -18t36 -42q16 -22 29 -40q14 -18 33 -19z" />
    <glyph glyph-name="Imacron" unicode="&#x12a;" horiz-adv-x="1516" 
d="M767 936q-1 88 21 178t58 162q67 135 173 209q106 73 190 73q152 0 239 -141q88 -141 88 -361q0 -297 -122 -555t-347 -415q-224 -157 -500 -157q-275 0 -454 128q-81 57 -127 133t-46 154q0 143 85 207q85 63 200 63q214 0 392 -107q179 -107 314 -299l-43 -30
q-133 190 -293 281q-160 90 -303 90q-181 0 -226 -119q-14 -37 -14 -98q0 -60 41 -128t110 -118q147 -106 347 -105q430 1 678 415q146 244 186 552q12 88 11 174q0 171 -60 277t-141 106q-59 0 -120 -43q-60 -43 -110 -125q-112 -185 -112 -476q0 -292 144 -461
q38 -45 75 -70l-27 -35q-266 183 -298 477q-8 76 -9 164zM1113 1726l21 69h358l-21 -69h-358z" />
    <glyph glyph-name="imacron" unicode="&#x12b;" horiz-adv-x="372" 
d="M62 63q74 -1 160 97q43 49 150 213l36 -28q-83 -148 -137 -210q-113 -127 -227 -127q-60 0 -92 36t-32 98q0 114 108 280q58 89 202 257l32 -14q-12 -27 -36 -69t-51 -92q-156 -292 -156 -387q-1 -54 43 -54zM157 909l21 69h358l-21 -69h-358z" />
    <glyph glyph-name="Ibreve" unicode="&#x12c;" horiz-adv-x="1516" 
d="M767 936q-1 88 21 178t58 162q67 135 173 209q106 73 190 73q152 0 239 -141q88 -141 88 -361q0 -297 -122 -555t-347 -415q-224 -157 -500 -157q-275 0 -454 128q-81 57 -127 133t-46 154q0 143 85 207q85 63 200 63q214 0 392 -107q179 -107 314 -299l-43 -30
q-133 190 -293 281q-160 90 -303 90q-181 0 -226 -119q-14 -37 -14 -98q0 -60 41 -128t110 -118q147 -106 347 -105q430 1 678 415q146 244 186 552q12 88 11 174q0 171 -60 277t-141 106q-59 0 -120 -43q-60 -43 -110 -125q-112 -185 -112 -476q0 -292 144 -461
q38 -45 75 -70l-27 -35q-266 183 -298 477q-8 76 -9 164zM1140 1716q-47 59 -29 144h48q-4 -66 47 -103q26 -19 80 -19q86 0 147 61q26 26 42 61h48q-22 -85 -96 -144t-158 -59q-82 -1 -129 59z" />
    <glyph glyph-name="ibreve" unicode="&#x12d;" horiz-adv-x="372" 
d="M62 63q74 -1 160 97q43 49 150 213l36 -28q-83 -148 -137 -210q-113 -127 -227 -127q-60 0 -92 36t-32 98q0 114 108 280q58 89 202 257l32 -14q-12 -27 -36 -69t-51 -92q-156 -292 -156 -387q-1 -54 43 -54zM330 921q86 0 147 61q26 26 42 61h48q-22 -85 -96 -144
t-157 -59q-84 0 -130 60q-47 59 -29 143h48q-4 -66 47 -103q26 -19 80 -19z" />
    <glyph glyph-name="Iogonek" unicode="&#x12e;" horiz-adv-x="1516" 
d="M-60 344q0 143 85 207q85 63 200 63q214 0 392 -107q179 -107 314 -299l-43 -30q-133 190 -293 281q-160 90 -303 90q-181 0 -226 -119q-14 -37 -14 -98q0 -60 41 -128t110 -118q147 -106 347 -105q430 1 678 415q146 244 186 552q12 88 11 174q0 171 -60 277t-141 106
q-59 0 -120 -43q-60 -43 -110 -125q-112 -185 -112 -476q0 -292 144 -461q38 -45 75 -70l-27 -35q-266 183 -298 477q-8 76 -9 164t21 178t58 162q67 135 173 209q106 73 190 73q152 0 239 -141q88 -141 88 -361q0 -414 -224 -728q-148 -208 -370 -314q-112 -54 -240 -73
q-14 -7 -44 -23t-62 -40q-80 -59 -79 -119q0 -33 23 -49t50 -16t67 15l-10 -42q-53 -23 -105 -23t-83 30t-31 66q0 65 58 115q58 49 124 76q-30 -2 -60 -2q-258 0 -437 128q-81 57 -127 133t-46 154z" />
    <glyph glyph-name="iogonek" unicode="&#x12f;" horiz-adv-x="372" 
d="M306 811q0 69 53 113q17 14 39 14t36 -16q15 -16 15 -36q1 -41 -35 -79q-36 -39 -72 -39t-36 43zM23 9q-103 13 -103 135q0 110 108 278q58 89 202 257l32 -14q-12 -27 -36 -69t-51 -92q-156 -292 -156 -387q-1 -54 43 -54q74 -1 160 97q43 49 150 213l36 -28
q-150 -270 -282 -321q-94 -39 -138 -111q-16 -27 -15 -57q0 -30 23 -46t50 -17q27 0 67 15l-10 -42q-53 -23 -105 -23q-52 -1 -83 29t-31 71q0 91 139 166z" />
    <glyph glyph-name="Idotaccent" unicode="&#x130;" horiz-adv-x="1516" 
d="M767 936q-1 88 21 178t58 162q67 135 173 209q106 73 190 73q152 0 239 -141q88 -141 88 -361q0 -297 -122 -555t-347 -415q-224 -157 -500 -157q-275 0 -454 128q-81 57 -127 133t-46 154q0 143 85 207q85 63 200 63q214 0 392 -107q179 -107 314 -299l-43 -30
q-133 190 -293 281q-160 90 -303 90q-181 0 -226 -119q-14 -37 -14 -98q0 -60 41 -128t110 -118q147 -106 347 -105q430 1 678 415q146 244 186 552q12 88 11 174q0 171 -60 277t-141 106q-59 0 -120 -43q-60 -43 -110 -125q-112 -185 -112 -476q0 -292 144 -461
q38 -45 75 -70l-27 -35q-266 183 -298 477q-8 76 -9 164zM1360 1752q0 -30 -21 -52t-51 -21q-30 -1 -52 21t-21 52q-1 30 21 51t52 21t51 -21t21 -51z" />
    <glyph glyph-name="dotlessi" unicode="&#x131;" horiz-adv-x="372" 
d="M62 63q74 -1 160 97q43 49 150 213l36 -28q-83 -148 -137 -210q-113 -127 -227 -127q-60 0 -92 36t-32 98q0 114 108 280q58 89 202 257l32 -14q-12 -27 -36 -69t-51 -92q-156 -292 -156 -387q-1 -54 43 -54z" />
    <glyph glyph-name="IJ" unicode="&#x132;" horiz-adv-x="2790" 
d="M767 936q-1 88 21 178t58 162q67 135 173 209q106 73 190 73q152 0 239 -141q88 -141 88 -361q0 -297 -122 -555t-347 -415q-224 -157 -500 -157q-275 0 -454 128q-81 57 -127 133t-46 154q0 143 85 207q85 63 200 63q214 0 392 -107q179 -107 314 -299l-43 -30
q-133 190 -293 281q-160 90 -303 90q-181 0 -226 -119q-14 -37 -14 -98q0 -60 41 -128t110 -118q147 -106 347 -105q430 1 678 415q146 244 186 552q12 88 11 174q0 171 -60 277t-141 106q-59 0 -120 -43q-60 -43 -110 -125q-112 -185 -112 -476q0 -292 144 -461
q38 -45 75 -70l-27 -35q-266 183 -298 477q-8 76 -9 164zM2150 235q-126 0 -258 -35t-242 -93q-205 -110 -324 -280q-120 -170 -120 -309q0 -103 68 -167t187 -64q285 -15 641 468q155 210 283 465q-109 15 -235 15zM2670 1184q0 343 -246 344q-65 0 -128 -38
q-62 -38 -106 -107q-90 -142 -90 -383q0 -291 162 -515q50 -70 57 -70l-31 -32q-214 183 -282 429q-24 86 -24 188q0 224 126 403q126 178 336 178q110 0 196 -69q120 -98 120 -350q0 -84 -22 -233q-48 -322 -215 -682q80 -17 161 -40l-15 -47q-111 29 -168 41
q-172 -350 -350 -559q-179 -208 -403 -326q-154 -81 -287 -81q-134 0 -240 91q-105 91 -105 254q0 209 206 426q276 291 803 291q129 0 284 -27q180 373 240 715q21 119 21 199z" />
    <glyph glyph-name="ij" unicode="&#x133;" horiz-adv-x="921" 
d="M62 63q74 -1 160 97q43 49 150 213l36 -28q-83 -148 -137 -210q-113 -127 -227 -127q-60 0 -92 36t-32 98q0 114 108 280q58 89 202 257l32 -14q-12 -27 -36 -69t-51 -92q-156 -292 -156 -387q-1 -54 43 -54zM306 811q0 69 53 113q17 14 39 14t36 -16q15 -16 15 -36
q1 -41 -35 -79q-36 -39 -72 -39t-36 43zM848 768q-35 0 -35 40t28 85t57 45q30 0 44 -16t14 -38t-20 -50q-46 -66 -88 -66zM-231 -744q1 -61 55 -61q98 0 208 161q81 118 229 423l-43 -23q-199 -107 -324 -256t-125 -244zM-162 -858q-126 0 -126 131q0 153 156 313t443 297
q33 68 61 127t57 116q126 247 335 553l34 -17q-97 -177 -195 -394q-98 -216 -139 -306q251 139 385 310q40 51 72 101l36 -28q-135 -203 -355 -359q-80 -56 -179 -115q-80 -175 -130 -272q-51 -97 -111 -180t-122 -145t-124 -96q-62 -36 -98 -36z" />
    <glyph glyph-name="Jcircumflex" unicode="&#x134;" horiz-adv-x="1274" 
d="M-310 -482q0 -103 68 -167t187 -64q285 -15 641 468q155 210 283 465q-109 15 -235 15t-258 -35t-242 -93q-205 -110 -324 -280q-120 -169 -120 -309zM1154 1184q0 344 -246 344q-65 0 -128 -38q-62 -38 -106 -107q-90 -142 -90 -383q0 -291 162 -515q50 -70 57 -70
l-31 -32q-214 183 -282 429q-24 86 -24 188q0 224 126 403q126 178 336 178q110 0 196 -69q120 -98 120 -350q0 -84 -22 -233q-48 -322 -215 -682q80 -17 161 -40l-15 -47q-111 29 -168 41q-172 -350 -350 -559q-179 -208 -403 -326q-154 -80 -287 -81q-134 0 -240 91
q-105 91 -105 254q0 209 206 426q276 291 803 291q129 0 284 -27q180 373 240 715q21 119 21 199zM1068 1681l-59 120l-165 -120h-69l217 194h85l39 -194h-48z" />
    <glyph glyph-name="jcircumflex" unicode="&#x135;" horiz-adv-x="549" 
d="M-603 -744q1 -61 55 -61q98 0 208 161q81 118 229 423q-223 -119 -357 -272q-135 -153 -135 -251zM-534 -858q-126 0 -126 131q0 153 156 313t443 297q33 68 61 127t57 116q126 247 335 553l34 -17q-97 -177 -195 -394q-98 -216 -139 -306q251 139 385 310q40 51 72 101
l36 -28q-135 -203 -355 -359q-80 -56 -179 -115q-80 -175 -130 -272q-51 -97 -111 -180t-122 -145t-124 -96q-62 -36 -98 -36zM554 840l-59 120l-165 -120h-69l217 194h85l39 -194h-48z" />
    <glyph glyph-name="Kcommaaccent" unicode="&#x136;" horiz-adv-x="2369" 
d="M1560 667q0 -11 14 -22t73 -11q58 0 124 30q-62 48 -115 48q-96 0 -96 -45zM1650 581q-146 0 -146 90q0 33 38 63t113 30q76 0 172 -67q123 87 272 375q40 78 82 155q75 137 170 209t197 73q102 0 177 -60t75 -155q0 -96 -48 -188q-10 -18 -10 -22l-46 25q0 1 8 17t25 62
t17 91q0 79 -46 122q-46 44 -104 44t-100 -24t-106 -99t-201 -328q-136 -252 -305 -349q78 -92 78 -238q0 -59 -36 -206t-36 -201q0 -97 49 -133t105 -36q127 0 233 89l33 -41q-2 -1 -26 -19t-62 -38q-162 -85 -292 -33q-95 38 -137 137q-20 48 -20 106q0 80 45 220t45 190
q0 107 -46 171q-105 -32 -167 -32zM1311 1280q-68 0 -141 10q-72 10 -152 9q-182 0 -317 -98q-134 -98 -134 -276q0 -115 71 -184q71 -68 189 -68q119 0 207 55q34 21 51 39t19 20l42 -31q-58 -78 -210 -128q-66 -22 -138 -22q-148 0 -236 66q-110 82 -110 241
q0 204 168 322t397 118l318 -21q177 0 426 110l25 -45l-21 -21q-111 -111 -265 -478q-153 -367 -234 -512q-82 -146 -166 -254q-277 -356 -726 -355q-203 0 -328 91q-126 91 -126 244q0 183 143 286t339 103t375 -69l-19 -49q-131 49 -259 49q-129 0 -210 -22t-137 -64
t-86 -100q-30 -59 -30 -132q0 -136 116 -206q116 -71 250 -71q134 1 232 33t176 88q136 98 256 292q66 107 182 355q194 449 358 665q38 50 73 82q-193 -72 -368 -72zM1290 -361q0 27 20 45t45 18q26 0 44 -19t18 -45q0 -48 -46 -97t-99 -78l-28 33q71 48 91 83
q-45 10 -45 60z" />
    <glyph glyph-name="kcommaaccent" unicode="&#x137;" horiz-adv-x="863" 
d="M308 341q0 -12 35 -12t80 20q-13 28 -42 28t-51 -12t-22 -24zM757 1426q0 33 -35 33q-70 0 -159 -151t-268 -569q222 172 342 368q120 195 120 319zM351 291q-86 0 -86 51q-1 30 35 52q35 22 89 23q54 0 91 -28q92 71 114 181q5 24 5 36q0 58 -41 58q-156 0 -482 -465
q-49 -81 -79 -140q-30 -58 -39 -74t-10 -11l-99 26q459 1046 604 1279t269 233q88 0 88 -101q0 -57 -36 -151t-105 -201q-161 -244 -418 -416l-131 -292q184 255 350 339q61 31 108 31q76 0 103 -35q28 -35 28 -75q0 -75 -49 -149t-143 -123q11 -26 11 -56q0 -38 -19 -100
t-19 -84q0 -37 9 -55t34 -18t51 16t55 44q96 90 224 287l37 -28q-132 -197 -189 -258q-114 -122 -202 -122t-122 61q-12 22 -12 57t25 105t28 116q-54 -13 -77 -13zM84 -172q0 27 20 45t45 18q26 0 44 -19t18 -45q0 -48 -46 -97t-99 -78l-28 33q71 48 91 83q-45 10 -45 60z
" />
    <glyph glyph-name="kgreenlandic" unicode="&#x138;" horiz-adv-x="1043" 
d="M488 341q0 -12 35 -12t80 20q-13 28 -42 28t-51 -12t-22 -24zM531 291q-86 0 -86 51q-1 30 35 52q35 22 89 23q54 0 91 -28q92 71 114 181q5 24 5 36q0 58 -41 58q-135 0 -385 -329q-49 -64 -103 -150q-54 -85 -86 -133t-57 -88l-88 36q57 94 101 166t120 201
q111 187 111 276q0 44 -38 44q-61 0 -197 -215q-24 -38 -45 -72t-35 -55l-36 28q50 81 92 147t80 114q81 101 153 101q47 -1 71 -27q41 -47 41 -98t-20 -113q196 224 352 224q120 0 120 -120q0 -107 -106 -203q-36 -32 -86 -59q11 -26 11 -56q0 -38 -19 -100t-19 -84
q0 -37 9 -55t34 -18t51 16t55 44q96 90 224 287l37 -28q-132 -197 -189 -258q-114 -122 -202 -122t-122 61q-12 22 -12 57t25 105t28 116q-54 -13 -77 -13z" />
    <glyph glyph-name="Lacute" unicode="&#x139;" horiz-adv-x="1708" 
d="M281 65q-81 0 -113 -20t-32 -37q0 -63 122 -63t255 77q-150 43 -232 43zM1746 1404q-40 0 -95 -40t-111 -108q-81 -98 -244 -378q-163 -279 -253 -414q349 96 597 346q150 152 207 312q28 78 28 131t-9 79q-8 26 -24 42t-36 23t-60 7zM1294 1112q227 348 466 347
q168 0 168 -205q0 -64 -30 -150t-87 -172q-123 -187 -337 -333t-480 -205q-147 -203 -284 -317q76 -21 149 -43q274 -84 359 -84q137 0 242 100l41 -32q-1 0 -11 -12t-30 -28q-206 -170 -593 -66q-68 18 -136 41q-68 22 -134 43q-170 -103 -346 -103q-81 0 -124 29t-43 77
q0 131 282 131q104 0 253 -32q112 98 231 272q-82 -10 -204 -10q-121 0 -244 38t-208 102q-174 134 -174 357q0 222 169 355t427 133q128 0 216 -26t115 -39t30 -14l-26 -45q-1 -1 -25 11t-102 36t-192 24q-228 0 -364 -127t-136 -319t167 -309q167 -118 409 -118
q99 0 183 13q71 111 137 230q166 299 266 450zM1720 1559h-69l178 194h125z" />
    <glyph glyph-name="lacute" unicode="&#x13a;" horiz-adv-x="562" 
d="M752 1350q0 53 -29 53t-80 -41q-51 -42 -111 -112q-135 -160 -251 -382q-117 -223 -156 -427q261 269 441 529q115 166 151 260q35 94 35 120zM100 216q0 -171 108 -171q108 1 262 199q28 36 52 70q23 34 40 59l37 -28q-3 -3 -19 -31t-44 -67q-69 -100 -156 -177
t-175 -77q-141 0 -191 150q-18 52 -17 134q-1 81 21 181t59 200t87 199t106 187q115 180 241 295q125 116 210 116t85 -79q0 -122 -160 -384q-108 -178 -357 -456q-72 -81 -118 -123t-64 -61q-7 -38 -7 -72v-64zM737 1554h-69l178 194h125z" />
    <glyph glyph-name="Lcommaaccent" unicode="&#x13b;" horiz-adv-x="1708" 
d="M281 65q-81 0 -113 -20t-32 -37q0 -63 122 -63t255 77q-150 43 -232 43zM1746 1404q-40 0 -95 -40t-111 -108q-81 -98 -244 -378q-163 -279 -253 -414q349 96 597 346q150 152 207 312q28 78 28 131t-9 79q-8 26 -24 42t-36 23t-60 7zM1294 1112q227 348 466 347
q168 0 168 -205q0 -64 -30 -150t-87 -172q-123 -187 -337 -333t-480 -205q-147 -203 -284 -317q76 -21 149 -43q274 -84 359 -84q137 0 242 100l41 -32q-1 0 -11 -12t-30 -28q-206 -170 -593 -66q-68 18 -136 41q-68 22 -134 43q-170 -103 -346 -103q-81 0 -124 29t-43 77
q0 131 282 131q104 0 253 -32q112 98 231 272q-82 -10 -204 -10q-121 0 -244 38t-208 102q-174 134 -174 357q0 222 169 355t427 133q128 0 216 -26t115 -39t30 -14l-26 -45q-1 -1 -25 11t-102 36t-192 24q-228 0 -364 -127t-136 -319t167 -309q167 -118 409 -118
q99 0 183 13q71 111 137 230q166 299 266 450zM537 -299q-1 27 19 45t46 18t44 -19t18 -45q0 -48 -46 -97t-99 -78l-28 33q71 48 91 83q-45 10 -45 60z" />
    <glyph glyph-name="lcommaaccent" unicode="&#x13c;" horiz-adv-x="562" 
d="M752 1350q0 53 -29 53t-80 -41q-51 -42 -111 -112q-135 -160 -251 -382q-117 -223 -156 -427q261 269 441 529q115 166 151 260q35 94 35 120zM100 216q0 -171 108 -171q108 1 262 199q28 36 52 70q23 34 40 59l37 -28q-3 -3 -19 -31t-44 -67q-69 -100 -156 -177
t-175 -77q-141 0 -191 150q-18 52 -17 134q-1 81 21 181t59 200t87 199t106 187q115 180 241 295q125 116 210 116t85 -79q0 -122 -160 -384q-108 -178 -357 -456q-72 -81 -118 -123t-64 -61q-7 -38 -7 -72v-64zM80 -172q0 27 20 45t45 18q26 0 44 -19t18 -45q0 -48 -46 -97
t-99 -78l-28 33q71 48 91 83q-45 10 -45 60z" />
    <glyph glyph-name="Lcaron" unicode="&#x13d;" horiz-adv-x="1862" 
d="M281 65q-81 0 -113 -20t-32 -37q0 -63 122 -63t255 77q-150 43 -232 43zM1746 1404q-40 0 -95 -40t-111 -108q-81 -98 -244 -378q-163 -279 -253 -414q349 96 597 346q150 152 207 312q28 78 28 131t-9 79q-8 26 -24 42t-36 23t-60 7zM1294 1112q227 348 466 347
q168 0 168 -205q0 -64 -30 -150t-87 -172q-123 -187 -337 -333t-480 -205q-147 -203 -284 -317q76 -21 149 -43q274 -84 359 -84q137 0 242 100l41 -32q-1 0 -11 -12t-30 -28q-206 -170 -593 -66q-68 18 -136 41q-68 22 -134 43q-170 -103 -346 -103q-81 0 -124 29t-43 77
q0 131 282 131q104 0 253 -32q112 98 231 272q-82 -10 -204 -10q-121 0 -244 38t-208 102q-174 134 -174 357q0 222 169 355t427 133q128 0 216 -26t115 -39t30 -14l-26 -45q-1 -1 -25 11t-102 36t-192 24q-228 0 -364 -127t-136 -319t167 -309q167 -118 409 -118
q99 0 183 13q71 111 137 230q166 299 266 450zM2055 1372q0 32 22 52t52 20q31 0 51 -22t20 -52q0 -58 -57 -116q-57 -57 -133 -87l-19 32q95 47 124 102q-60 13 -60 71z" />
    <glyph glyph-name="lcaron" unicode="&#x13e;" horiz-adv-x="682" 
d="M752 1350q0 53 -29 53t-80 -41q-51 -42 -111 -112q-135 -160 -251 -382q-117 -223 -156 -427q261 269 441 529q115 166 151 260q35 94 35 120zM100 216q0 -171 108 -171q108 1 262 199q28 36 52 70q23 34 40 59l37 -28q-3 -3 -19 -31t-44 -67q-69 -100 -156 -177
t-175 -77q-141 0 -191 150q-18 52 -17 134q-1 81 21 181t59 200t87 199t106 187q115 180 241 295q125 116 210 116t85 -79q0 -122 -160 -384q-108 -178 -357 -456q-72 -81 -118 -123t-64 -61q-7 -38 -7 -72v-64zM906 1381q0 27 20 45t45 18q26 0 44 -19t18 -45
q0 -48 -46 -97t-99 -78l-28 33q71 48 91 83q-45 10 -45 60z" />
    <glyph glyph-name="Ldot" unicode="&#x13f;" horiz-adv-x="1708" 
d="M281 65q-81 0 -113 -20t-32 -37q0 -63 122 -63t255 77q-150 43 -232 43zM1746 1404q-40 0 -95 -40t-111 -108q-81 -98 -244 -378q-163 -279 -253 -414q349 96 597 346q150 152 207 312q28 78 28 131t-9 79q-8 26 -24 42t-36 23t-60 7zM1294 1112q227 348 466 347
q168 0 168 -205q0 -64 -30 -150t-87 -172q-123 -187 -337 -333t-480 -205q-147 -203 -284 -317q76 -21 149 -43q274 -84 359 -84q137 0 242 100l41 -32q-1 0 -11 -12t-30 -28q-206 -170 -593 -66q-68 18 -136 41q-68 22 -134 43q-170 -103 -346 -103q-81 0 -124 29t-43 77
q0 131 282 131q104 0 253 -32q112 98 231 272q-82 -10 -204 -10q-121 0 -244 38t-208 102q-174 134 -174 357q0 222 169 355t427 133q128 0 216 -26t115 -39t30 -14l-26 -45q-1 -1 -25 11t-102 36t-192 24q-228 0 -364 -127t-136 -319t167 -309q167 -118 409 -118
q99 0 183 13q71 111 137 230q166 299 266 450zM1427 254q1 -30 -21 -50q-22 -22 -52 -22t-52 22t-21 50q-1 30 21 52t52 21q30 1 52 -21t21 -52z" />
    <glyph glyph-name="ldotaccent" unicode="&#x140;" horiz-adv-x="716" 
d="M752 1350q0 53 -29 53t-80 -41q-51 -42 -111 -112q-135 -160 -251 -382q-117 -223 -156 -427q261 269 441 529q115 166 151 260q35 94 35 120zM100 216q0 -171 108 -171q108 1 262 199q28 36 52 70q23 34 40 59l37 -28q-3 -3 -19 -31t-44 -67q-69 -100 -156 -177
t-175 -77q-141 0 -191 150q-18 52 -17 134q-1 81 21 181t59 200t87 199t106 187q115 180 241 295q125 116 210 116t85 -79q0 -122 -160 -384q-108 -178 -357 -456q-72 -81 -118 -123t-64 -61q-7 -38 -7 -72v-64zM615 530q1 -30 -21 -52t-52 -21q-30 -1 -52 21t-21 52
q-1 30 21 50q22 22 52 22t52 -22q22 -20 21 -50z" />
    <glyph glyph-name="Lslash" unicode="&#x141;" horiz-adv-x="1708" 
d="M281 65q-81 0 -113 -20t-32 -37q0 -63 122 -63t255 77q-150 43 -232 43zM1750 1404q-36 0 -83 -30t-94 -80q-47 -52 -95 -123t-99 -154q-50 -83 -103 -175t-110 -185q303 93 506 273t203 340q1 103 -69 127q-20 7 -56 7zM673 530q-297 0 -475 113t-178 297q0 183 168 294
t428 111q128 0 216 -26t115 -39t30 -14l-26 -45q-1 -1 -25 11t-102 36t-192 24q-227 0 -363 -102q-137 -102 -137 -257t168 -250q168 -94 408 -94q153 0 295 28q58 101 115 203q56 102 114 196q132 213 242 315q138 128 284 128q119 0 157 -106q13 -36 13 -89
q0 -54 -26 -118t-74 -129q-103 -137 -288 -253t-419 -178q-73 -119 -135 -203l271 73l-12 -60l-312 -84q-108 -139 -223 -235q76 -21 149 -43q274 -84 359 -84q137 0 242 100l41 -32q-1 0 -11 -12t-30 -28q-206 -170 -593 -66q-68 18 -136 41q-68 22 -134 43
q-170 -103 -346 -103q-81 0 -124 29t-43 77q0 131 282 131q104 0 253 -32q81 71 159 172l-244 -65l12 60l284 76q78 114 136 212q-145 -23 -293 -23z" />
    <glyph glyph-name="lslash" unicode="&#x142;" horiz-adv-x="562" 
d="M114 378q53 55 141 155l-120 -48q-13 -53 -21 -107zM716 1403q-20 0 -63 -33q-45 -34 -97 -92q-117 -131 -230 -328t-172 -398l176 70q179 221 301 433q121 212 121 313q0 8 -8 22t-28 13zM806 1376q0 -222 -379 -715l266 106l-4 -61l-332 -133q-173 -207 -257 -282v-69
t8 -80q22 -96 99 -97q109 1 263 199q28 36 52 70q23 34 40 59l37 -28q-3 -3 -19 -31t-44 -67q-69 -100 -156 -177t-175 -77q-141 0 -191 150q-18 52 -17 126q0 74 17 167l-143 -57l4 62l153 61q54 215 180 438q126 222 271 369q145 146 236 146t91 -79z" />
    <glyph glyph-name="Nacute" unicode="&#x143;" horiz-adv-x="2090" 
d="M2878 1352q0 30 -16 68t-48 68q-69 64 -193 64t-242 -115q-211 -205 -516 -878q-148 -327 -205 -482t-58 -157l-51 13q-41 265 -46 346q-4 81 -4 139q1 58 5 125t12 142q40 357 105 577q-126 -189 -239 -411q-113 -223 -172 -339t-121 -218q-137 -226 -297 -343
q-159 -117 -371 -117t-347 100q-134 100 -134 269t139 274q139 106 331 106q254 0 399 -138l-39 -35l-22 18q-56 48 -146 74t-168 26q-158 0 -267 -82t-109 -228q0 -145 116 -233t274 -88q294 0 508 297q112 155 217 361q104 206 175 341q172 328 334 553l46 -24
q-86 -251 -98 -655q-5 -153 -5 -355q-1 -202 -6 -298q311 795 585 1189q148 214 288 270q76 30 144 29q131 0 213 -78q81 -78 81 -187q0 -28 -6 -58l-51 11q5 30 5 59zM2068 1598h-69l178 194h125z" />
    <glyph glyph-name="nacute" unicode="&#x144;" horiz-adv-x="1027" 
d="M431 545q149 146 249 146q100 1 140 -85q16 -34 15 -82q0 -48 -15 -92t-38 -90q-23 -44 -49 -87t-64 -109t-38 -111t32 -45q115 0 364 383l36 -28q-8 -11 -29 -47t-52 -82q-192 -281 -336 -281q-81 -1 -111 71q-9 22 -9 54t18 76q18 46 43 94q26 48 57 96
q118 185 118 233q0 79 -63 79q-113 0 -399 -379q-56 -75 -85 -111q-28 -36 -45 -60t-34 -46t-32 -42l-27 -36l-88 36l117 161q108 147 176 285q69 138 69 190q0 51 -38 51q-61 0 -197 -215q-24 -38 -45 -72t-35 -55l-36 28q50 81 92 147t80 114q81 101 153 101q47 -1 71 -27
q41 -47 41 -109q0 -26 -6 -54zM717 839h-69l178 194h125z" />
    <glyph glyph-name="Ncommaaccent" unicode="&#x145;" horiz-adv-x="2090" 
d="M2878 1352q0 30 -16 68t-48 68q-69 64 -193 64t-242 -115q-211 -205 -516 -878q-148 -327 -205 -482t-58 -157l-51 13q-41 265 -46 346q-4 81 -4 139q1 58 5 125t12 142q40 357 105 577q-126 -189 -239 -411q-113 -223 -172 -339t-121 -218q-137 -226 -297 -343
q-159 -117 -371 -117t-347 100q-134 100 -134 269t139 274q139 106 331 106q254 0 399 -138l-39 -35l-22 18q-56 48 -146 74t-168 26q-158 0 -267 -82t-109 -228q0 -145 116 -233t274 -88q294 0 508 297q112 155 217 361q104 206 175 341q172 328 334 553l46 -24
q-86 -251 -98 -655q-5 -153 -5 -355q-1 -202 -6 -298q311 795 585 1189q148 214 288 270q76 30 144 29q131 0 213 -78q81 -78 81 -187q0 -28 -6 -58l-51 11q5 30 5 59zM1183 -172q-1 27 19 45t46 18t44 -19t18 -45q0 -48 -46 -97t-99 -78l-28 33q71 48 91 83q-45 10 -45 60z
" />
    <glyph glyph-name="ncommaaccent" unicode="&#x146;" horiz-adv-x="1027" 
d="M431 545q149 146 249 146q100 1 140 -85q16 -34 15 -82q0 -48 -15 -92t-38 -90q-23 -44 -49 -87t-64 -109t-38 -111t32 -45q115 0 364 383l36 -28q-8 -11 -29 -47t-52 -82q-192 -281 -336 -281q-81 -1 -111 71q-9 22 -9 54t18 76q18 46 43 94q26 48 57 96
q118 185 118 233q0 79 -63 79q-113 0 -399 -379q-56 -75 -85 -111q-28 -36 -45 -60t-34 -46t-32 -42l-27 -36l-88 36l117 161q108 147 176 285q69 138 69 190q0 51 -38 51q-61 0 -197 -215q-24 -38 -45 -72t-35 -55l-36 28q50 81 92 147t80 114q81 101 153 101q47 -1 71 -27
q41 -47 41 -109q0 -26 -6 -54zM234 -172q0 27 20 45t45 18q26 0 44 -19t18 -45q0 -48 -46 -97t-99 -78l-28 33q71 48 91 83q-45 10 -45 60z" />
    <glyph glyph-name="Ncaron" unicode="&#x147;" horiz-adv-x="2090" 
d="M2878 1352q0 30 -16 68t-48 68q-69 64 -193 64t-242 -115q-211 -205 -516 -878q-148 -327 -205 -482t-58 -157l-51 13q-41 265 -46 346q-4 81 -4 139q1 58 5 125t12 142q40 357 105 577q-126 -189 -239 -411q-113 -223 -172 -339t-121 -218q-137 -226 -297 -343
q-159 -117 -371 -117t-347 100q-134 100 -134 269t139 274q139 106 331 106q254 0 399 -138l-39 -35l-22 18q-56 48 -146 74t-168 26q-158 0 -267 -82t-109 -228q0 -145 116 -233t274 -88q294 0 508 297q112 155 217 361q104 206 175 341q172 328 334 553l46 -24
q-86 -251 -98 -655q-5 -153 -5 -355q-1 -202 -6 -298q311 795 585 1189q148 214 288 270q76 30 144 29q131 0 213 -78q81 -78 81 -187q0 -28 -6 -58l-51 11q5 30 5 59zM1995 1792l59 -120l165 120h69l-217 -194h-85l-39 194h48z" />
    <glyph glyph-name="ncaron" unicode="&#x148;" horiz-adv-x="1027" 
d="M431 545q149 146 249 146q100 1 140 -85q16 -34 15 -82q0 -48 -15 -92t-38 -90q-23 -44 -49 -87t-64 -109t-38 -111t32 -45q115 0 364 383l36 -28q-8 -11 -29 -47t-52 -82q-192 -281 -336 -281q-81 -1 -111 71q-9 22 -9 54t18 76q18 46 43 94q26 48 57 96
q118 185 118 233q0 79 -63 79q-113 0 -399 -379q-56 -75 -85 -111q-28 -36 -45 -60t-34 -46t-32 -42l-27 -36l-88 36l117 161q108 147 176 285q69 138 69 190q0 51 -38 51q-61 0 -197 -215q-24 -38 -45 -72t-35 -55l-36 28q50 81 92 147t80 114q81 101 153 101q47 -1 71 -27
q41 -47 41 -109q0 -26 -6 -54zM642 1033l59 -120l165 120h69l-217 -194h-85l-39 194h48z" />
    <glyph glyph-name="napostrophe" unicode="&#x149;" horiz-adv-x="1027" 
d="M431 545q149 146 249 146q100 1 140 -85q16 -34 15 -82q0 -48 -15 -92t-38 -90q-23 -44 -49 -87t-64 -109t-38 -111t32 -45q115 0 364 383l36 -28q-8 -11 -29 -47t-52 -82q-192 -281 -336 -281q-81 -1 -111 71q-9 22 -9 54t18 76q18 46 43 94q26 48 57 96
q118 185 118 233q0 79 -63 79q-113 0 -399 -379q-56 -75 -85 -111q-28 -36 -45 -60t-34 -46t-32 -42l-27 -36l-88 36l117 161q108 147 176 285q69 138 69 190q0 51 -38 51q-61 0 -197 -215q-24 -38 -45 -72t-35 -55l-36 28q50 81 92 147t80 114q81 101 153 101q47 -1 71 -27
q41 -47 41 -109q0 -26 -6 -54zM355 1333q-1 27 19 45t46 18t44 -19t18 -45q0 -48 -46 -97t-99 -78l-28 33q71 48 91 83q-45 10 -45 60z" />
    <glyph glyph-name="Eng" unicode="&#x14a;" horiz-adv-x="2090" 
d="M1571 134q-72 218 -72 465q0 246 122 663q-126 -189 -239 -411q-113 -223 -172 -339t-121 -218q-137 -226 -297 -343q-159 -117 -371 -117t-347 100q-134 100 -134 269t139 274q139 106 331 106q254 0 399 -138l-39 -35l-22 18q-56 48 -146 74t-168 26q-158 0 -267 -82
t-109 -228q0 -145 116 -233t274 -88q294 0 508 297q112 155 217 361q104 206 175 341q172 328 334 553l46 -24q-106 -307 -106 -932q0 -156 -7 -300q126 323 334 712t393 569q136 131 281 131q144 0 226 -78q81 -78 81 -187q0 -28 -6 -58l-51 11q5 30 5 59q0 30 -16 68
t-48 68q-69 64 -193 64t-242 -115q-177 -170 -379 -579q-103 -209 -168 -383q-66 -174 -112 -289t-101 -230q-53 -114 -119 -220q-145 -234 -336 -368q-191 -133 -447 -133t-449 163l37 59q102 -97 264 -137q59 -14 125 -15q256 0 489 227q234 228 388 602z" />
    <glyph glyph-name="eng" unicode="&#x14b;" horiz-adv-x="1027" 
d="M-175 -744q0 -61 55 -61q98 -1 230 185q85 119 252 424q-254 -137 -396 -294q-141 -156 -141 -254zM342 -449q-264 -409 -455 -409q-81 0 -109 64q-10 22 -10 55q0 339 652 648q33 59 71 125t76 133q195 344 195 397q0 32 -16 53t-48 21q-61 0 -160 -97t-197 -227
t-126 -166t-45 -60t-34 -46t-32 -42l-27 -36l-88 36l117 161q108 147 176 285q69 138 69 190q0 51 -38 51q-61 0 -197 -215q-24 -38 -45 -72t-35 -55l-36 28q50 81 92 147t80 114q81 101 153 101q47 -1 71 -27q41 -47 41 -109q0 -26 -6 -54q149 146 249 146q100 1 140 -85
q16 -34 15 -81q0 -137 -218 -511q292 173 410 359l36 -28q-146 -221 -506 -431q-29 -51 -63 -111q-77 -136 -152 -252z" />
    <glyph glyph-name="Omacron" unicode="&#x14c;" horiz-adv-x="1573" 
d="M1101 1384q-101 0 -221 -48t-230 -133q-219 -169 -363 -438q-143 -269 -143 -527q0 -186 112 -302q112 -117 304 -117q252 0 488 198t354 465q79 179 79 344q0 166 -85 258t-223 92q-197 0 -366 -191q-170 -191 -170 -429q0 -116 53 -201t127 -106l-9 -42
q-114 16 -201 112q-88 96 -88 259q-1 162 91 314q140 232 392 310q82 26 167 26q168 0 266 -110q98 -109 98 -295q0 -266 -179 -541q-179 -276 -434 -416q-181 -99 -360 -99q-224 0 -372 145t-148 413q0 269 142 531q142 261 386 420q243 160 526 160q215 0 317 -112
q20 -22 31 -43l-47 -22q-34 69 -141 107q-52 18 -153 18zM960 1605l21 69h358l-21 -69h-358z" />
    <glyph glyph-name="omacron" unicode="&#x14d;" horiz-adv-x="747" 
d="M451 385q23 -68 68 -96q67 130 67 241q0 154 -70 154q-37 0 -63 -50q-25 -47 -25 -114t23 -135zM172 15q158 0 322 231q-86 50 -110 189q-8 42 -8 86q0 89 42 152t102 63q84 0 110 -115q8 -35 8 -70q0 -69 -21 -149t-53 -130q4 -1 8 -1h9q104 0 166 102l36 -28
q-86 -122 -207 -122q-21 0 -37 4q-120 -201 -293 -251q-50 -14 -94 -15t-80 15q-38 16 -65 45t-42 69t-15 90t16 102t44 103q55 101 145 188q91 86 180 127l32 -42q-117 -84 -212 -232q-96 -148 -96 -280q0 -131 113 -131zM372 925l21 69h358l-21 -69h-358z" />
    <glyph glyph-name="Obreve" unicode="&#x14e;" horiz-adv-x="1573" 
d="M1101 1384q-101 0 -221 -48t-230 -133q-219 -169 -363 -438q-143 -269 -143 -527q0 -186 112 -302q112 -117 304 -117q252 0 488 198t354 465q79 179 79 344q0 166 -85 258t-223 92q-197 0 -366 -191q-170 -191 -170 -429q0 -116 53 -201t127 -106l-9 -42
q-114 16 -201 112q-88 96 -88 259q-1 162 91 314q140 232 392 310q82 26 167 26q168 0 266 -110q98 -109 98 -295q0 -266 -179 -541q-179 -276 -434 -416q-181 -99 -360 -99q-224 0 -372 145t-148 413q0 269 142 531q142 261 386 420q243 160 526 160q215 0 317 -112
q20 -22 31 -43l-47 -22q-34 69 -141 107q-52 18 -153 18zM986 1596q-47 59 -28 143h48q-4 -66 47 -103q25 -19 79 -19q86 0 148 61q26 26 42 61h48q-22 -85 -96 -144t-158 -59q-83 0 -130 60z" />
    <glyph glyph-name="obreve" unicode="&#x14f;" horiz-adv-x="747" 
d="M451 385q23 -68 68 -96q67 130 67 241q0 154 -70 154q-37 0 -63 -50q-25 -47 -25 -114t23 -135zM172 15q158 0 322 231q-86 50 -110 189q-8 42 -8 86q0 89 42 152t102 63q84 0 110 -115q8 -35 8 -70q0 -69 -21 -149t-53 -130q4 -1 8 -1h9q104 0 166 102l36 -28
q-86 -122 -207 -122q-21 0 -37 4q-120 -201 -293 -251q-50 -14 -94 -15t-80 15q-38 16 -65 45t-42 69t-15 90t16 102t44 103q55 101 145 188q91 86 180 127l32 -42q-117 -84 -212 -232q-96 -148 -96 -280q0 -131 113 -131zM398 916q-47 59 -28 143h48q-4 -66 47 -103
q25 -19 79 -19q86 0 148 61q26 26 42 61h48q-22 -85 -96 -144t-158 -59q-83 0 -130 60z" />
    <glyph glyph-name="Ohungarumlaut" unicode="&#x150;" horiz-adv-x="1573" 
d="M1101 1384q-101 0 -221 -48t-230 -133q-219 -169 -363 -438q-143 -269 -143 -527q0 -186 112 -302q112 -117 304 -117q252 0 488 198t354 465q79 179 79 344q0 166 -85 258t-223 92q-197 0 -366 -191q-170 -191 -170 -429q0 -116 53 -201t127 -106l-9 -42
q-114 16 -201 112q-88 96 -88 259q-1 162 91 314q140 232 392 310q82 26 167 26q168 0 266 -110q98 -109 98 -295q0 -266 -179 -541q-179 -276 -434 -416q-181 -99 -360 -99q-224 0 -372 145t-148 413q0 269 142 531q142 261 386 420q243 160 526 160q215 0 317 -112
q20 -22 31 -43l-47 -22q-34 69 -141 107q-52 18 -153 18zM1189 1536h-69l178 194h125zM993 1536h-69l178 194h125z" />
    <glyph glyph-name="ohungarumlaut" unicode="&#x151;" horiz-adv-x="747" 
d="M451 385q23 -68 68 -96q67 130 67 241q0 154 -70 154q-37 0 -63 -50q-25 -47 -25 -114t23 -135zM172 15q158 0 322 231q-86 50 -110 189q-8 42 -8 86q0 89 42 152t102 63q84 0 110 -115q8 -35 8 -70q0 -69 -21 -149t-53 -130q4 -1 8 -1h9q104 0 166 102l36 -28
q-86 -122 -207 -122q-21 0 -37 4q-120 -201 -293 -251q-50 -14 -94 -15t-80 15q-38 16 -65 45t-42 69t-15 90t16 102t44 103q55 101 145 188q91 86 180 127l32 -42q-117 -84 -212 -232q-96 -148 -96 -280q0 -131 113 -131zM601 856h-69l178 194h125zM405 856h-69l178 194
h125z" />
    <glyph glyph-name="OE" unicode="&#x152;" horiz-adv-x="2410" 
d="M1965 587q54 0 54 34q0 78 -244 83q55 -82 141 -109q26 -8 49 -8zM1198 334q-20 -64 -20 -112t4 -77q206 230 273 490q-197 -103 -257 -301zM2521 1217q0 142 -220 142q-135 -1 -278 -75q-134 -70 -216 -182q-84 -114 -84 -231q0 -59 22 -112q327 -9 327 -140
q0 -40 -30 -61t-70 -21q-77 0 -152 45t-127 120q-93 -8 -178 -40q-48 -229 -208 -449q-51 -70 -111 -132q35 -106 135 -165q99 -59 239 -59q140 1 242 35t190 87q87 53 158 117q72 64 124 120t84 100t42 57l36 -28q-268 -401 -642 -509q-106 -30 -229 -31q-328 0 -459 199
q-272 -237 -556 -237q-224 0 -372 145t-148 413q0 269 142 531q142 261 386 420q243 160 526 160q215 0 317 -112q20 -22 31 -43l-47 -22q-34 69 -141 107q-52 18 -153 18t-221 -48t-230 -133q-219 -169 -363 -438q-143 -269 -143 -527q0 -186 112 -302q112 -117 304 -117
q270 0 529 233q-36 76 -36 160q0 175 106 319t315 201q7 54 7 116t-23 128t-64 110q-82 90 -221 90q-197 0 -366 -191q-170 -191 -170 -429q0 -116 53 -201t127 -106l-9 -42q-114 16 -201 112q-88 96 -88 259q-1 162 91 314q140 232 392 310q82 26 167 26q168 0 266 -110
q98 -109 98 -295q0 -29 -5 -79q72 12 131 15q-38 76 -38 155q0 80 26 148q25 68 71 126q88 111 235 177t299 66q229 -1 299 -127q22 -40 22 -88q1 -50 -21 -96t-58 -84q-72 -74 -186 -115q-114 -42 -227 -42q-18 0 -29 1t-13 1l6 52q3 -1 8 -1h24q164 0 304 82t140 203z" />
    <glyph glyph-name="oe" unicode="&#x153;" horiz-adv-x="1284" 
d="M451 386q23 -67 68 -96q67 130 67 240q0 154 -70 154q-37 0 -63 -50q-25 -47 -25 -114t23 -134zM1078 622q0 59 -61 59q-32 1 -87 -31t-110 -88q-124 -125 -182 -291q186 19 322 146q74 69 104 144q14 34 14 61zM172 15q158 0 322 231q-86 54 -110 189q-8 42 -8 86
q0 89 42 152t102 63q84 0 110 -115q8 -35 8 -67t-3 -57q125 159 291 218q48 17 80 17q65 0 110 -36t45 -99q-1 -63 -25 -109t-65 -86q-79 -77 -207 -125q-127 -47 -234 -49q-4 -24 -4 -54q0 -70 43 -121t119 -51q263 0 496 371l34 -30q-183 -305 -402 -376q-65 -21 -116 -21
q-114 0 -188 52q-94 66 -93 196q-117 -175 -279 -220q-46 -13 -88 -13q-42 -1 -80 15t-65 45t-42 69t-15 90t16 102t44 103q55 101 145 188q91 86 180 127l32 -42q-117 -84 -212 -232q-96 -148 -96 -280q0 -131 113 -131z" />
    <glyph glyph-name="Racute" unicode="&#x154;" horiz-adv-x="2167" 
d="M1410 632q0 -17 42 -25t84 -5q-60 41 -93 41t-33 -11zM1358 1352q-144 0 -310 -50q-168 -50 -312 -135q-280 -166 -452 -428q-173 -262 -173 -502q0 -151 100 -253t271 -102q266 0 454 332q85 150 179 359t158 327q148 272 321 425q-92 27 -236 27zM1644 -55
q0 -57 74 -57q128 0 255 170q63 84 114 175t80 140l37 -28q-62 -111 -118 -205t-114 -162q-123 -143 -271 -143q-77 1 -119 43t-43 108q0 66 16 115q15 49 51 135t36 161q0 76 -55 150q-147 0 -205 41q-24 18 -24 44q0 58 79 57q79 0 170 -74q116 26 194 128t78 225
q0 180 -138 284q-42 32 -92 52q-160 -174 -371 -662q-124 -286 -214 -426q-90 -141 -170 -219q-173 -168 -387 -168q-213 0 -345 122t-132 354q0 231 162 497q122 200 320 347q350 258 878 258q130 0 253 -41q72 56 153 98l17 -27q-65 -37 -122 -91q203 -90 265 -280
q22 -66 22 -140q0 -140 -88 -243t-225 -129q74 -101 74 -218q0 -64 -30 -159q-65 -205 -65 -232zM1385 1507h-69l178 194h125z" />
    <glyph glyph-name="racute" unicode="&#x155;" horiz-adv-x="594" 
d="M196 66q0 -58 60 -58q113 0 280 272q40 65 58 93l37 -28q-15 -21 -35 -59t-48 -82q-70 -113 -130 -169q-88 -82 -181 -82q-93 -1 -126 79q-11 26 -11 70q0 42 20 96q34 94 90 184q57 90 57 112q0 28 -34 54t-44 42q-25 -40 -64 -100t-89 -145l-36 28l214 335l29 -15
q-11 -33 -11 -53t29 -46q29 -24 52 -44t33 -32t14 -18q2 -8 2 -20q0 -56 -50 -142q-74 -128 -95 -177t-21 -95zM299 806h-69l178 194h125z" />
    <glyph glyph-name="Rcommaaccent" unicode="&#x156;" horiz-adv-x="2167" 
d="M1410 632q0 -17 42 -25t84 -5q-60 41 -93 41t-33 -11zM1358 1352q-144 0 -310 -50q-168 -50 -312 -135q-280 -166 -452 -428q-173 -262 -173 -502q0 -151 100 -253t271 -102q266 0 454 332q85 150 179 359t158 327q148 272 321 425q-92 27 -236 27zM1644 -55
q0 -57 74 -57q128 0 255 170q63 84 114 175t80 140l37 -28q-62 -111 -118 -205t-114 -162q-123 -143 -271 -143q-77 1 -119 43t-43 108q0 66 16 115q15 49 51 135t36 161q0 76 -55 150q-147 0 -205 41q-24 18 -24 44q0 58 79 57q79 0 170 -74q116 26 194 128t78 225
q0 180 -138 284q-42 32 -92 52q-160 -174 -371 -662q-124 -286 -214 -426q-90 -141 -170 -219q-173 -168 -387 -168q-213 0 -345 122t-132 354q0 231 162 497q122 200 320 347q350 258 878 258q130 0 253 -41q72 56 153 98l17 -27q-65 -37 -122 -91q203 -90 265 -280
q22 -66 22 -140q0 -140 -88 -243t-225 -129q74 -101 74 -218q0 -64 -30 -159q-65 -205 -65 -232zM1133 -221q-1 27 19 45t46 18t44 -19t18 -45q0 -48 -46 -97t-99 -78l-28 33q71 48 91 83q-45 10 -45 60z" />
    <glyph glyph-name="rcommaaccent" unicode="&#x157;" horiz-adv-x="594" 
d="M196 66q0 -58 60 -58q113 0 280 272q40 65 58 93l37 -28q-15 -21 -35 -59t-48 -82q-70 -113 -130 -169q-88 -82 -181 -82q-93 -1 -126 79q-11 26 -11 70q0 42 20 96q34 94 90 184q57 90 57 112q0 28 -34 54t-44 42q-25 -40 -64 -100t-89 -145l-36 28l214 335l29 -15
q-11 -33 -11 -53t29 -46q29 -24 52 -44t33 -32t14 -18q2 -8 2 -20q0 -56 -50 -142q-74 -128 -95 -177t-21 -95zM67 -181q-1 27 19 45t46 18t44 -19t18 -45q0 -48 -46 -97t-99 -78l-28 33q71 48 91 83q-45 10 -45 60z" />
    <glyph glyph-name="Rcaron" unicode="&#x158;" horiz-adv-x="2167" 
d="M1410 632q0 -17 42 -25t84 -5q-60 41 -93 41t-33 -11zM1358 1352q-144 0 -310 -50q-168 -50 -312 -135q-280 -166 -452 -428q-173 -262 -173 -502q0 -151 100 -253t271 -102q266 0 454 332q85 150 179 359t158 327q148 272 321 425q-92 27 -236 27zM1644 -55
q0 -57 74 -57q128 0 255 170q63 84 114 175t80 140l37 -28q-62 -111 -118 -205t-114 -162q-123 -143 -271 -143q-77 1 -119 43t-43 108q0 66 16 115q15 49 51 135t36 161q0 76 -55 150q-147 0 -205 41q-24 18 -24 44q0 58 79 57q79 0 170 -74q116 26 194 128t78 225
q0 180 -138 284q-42 32 -92 52q-160 -174 -371 -662q-124 -286 -214 -426q-90 -141 -170 -219q-173 -168 -387 -168q-213 0 -345 122t-132 354q0 231 162 497q122 200 320 347q350 258 878 258q130 0 253 -41q72 56 153 98l17 -27q-65 -37 -122 -91q203 -90 265 -280
q22 -66 22 -140q0 -140 -88 -243t-225 -129q74 -101 74 -218q0 -64 -30 -159q-65 -205 -65 -232zM1352 1701l59 -120l165 120h69l-217 -194h-85l-39 194h48z" />
    <glyph glyph-name="rcaron" unicode="&#x159;" horiz-adv-x="594" 
d="M196 66q0 -58 60 -58q113 0 280 272q40 65 58 93l37 -28q-15 -21 -35 -59t-48 -82q-70 -113 -130 -169q-88 -82 -181 -82q-93 -1 -126 79q-11 26 -11 70q0 42 20 96q34 94 90 184q57 90 57 112q0 28 -34 54t-44 42q-25 -40 -64 -100t-89 -145l-36 28l214 335l29 -15
q-11 -33 -11 -53t29 -46q29 -24 52 -44t33 -32t14 -18q2 -8 2 -20q0 -56 -50 -142q-74 -128 -95 -177t-21 -95zM267 1000l59 -120l165 120h69l-217 -194h-85l-39 194h48z" />
    <glyph glyph-name="Sacute" unicode="&#x15a;" horiz-adv-x="1752" 
d="M2061 1236q0 149 -121 149q-169 1 -330 -225q-82 -115 -161 -264t-129 -242q356 47 566 253q116 115 156 231q18 54 19 98zM397 512q-141 0 -246 -91t-105 -231t98 -226t250 -86q240 0 438 219q111 123 220 314q50 88 99 180h-27q-328 0 -528 127q-199 127 -199 311
q0 185 130 285t322 100q250 0 425 -131q28 -21 44 -37l21 -21l-34 -30q-83 83 -231 133q-72 24 -160 25q-177 0 -292 -95t-115 -238q0 -168 177 -273t445 -105h48q151 287 207 379q124 202 250 310t285 108q129 -1 176 -101q17 -36 17 -95t-25 -128t-73 -136
q-103 -143 -290 -247q-188 -104 -433 -132q-130 -238 -213 -350q-158 -214 -319 -320q-161 -107 -355 -107t-329 103t-135 280t123 278t295 101t320 -94q46 -29 80 -64l-30 -32q-122 117 -331 117zM1835 1539h-69l178 194h125z" />
    <glyph glyph-name="sacute" unicode="&#x15b;" horiz-adv-x="560" 
d="M82 -47q-170 0 -194 142l36 7q0 -21 27 -50t73 -29q46 1 77 19t54 48t39 68t26 80q10 41 13 80q4 39 4 71q-1 32 -3 71q-2 38 -5 74t-5 62t-3 35v2q-36 -39 -111 -163q-74 -124 -74 -125l-36 28q1 1 25 43q126 220 256 402l40 -33q-5 -9 -13 -19t-21 -34q-13 -23 -13 -55
q0 -31 10 -67q56 -190 56 -296q0 -160 -84 -261q156 84 304 320l34 -30q-161 -265 -357 -355q-75 -34 -155 -35zM323 927h-69l178 194h125z" />
    <glyph glyph-name="Scircumflex" unicode="&#x15c;" horiz-adv-x="1752" 
d="M2061 1236q0 149 -121 149q-169 1 -330 -225q-82 -115 -161 -264t-129 -242q356 47 566 253q116 115 156 231q18 54 19 98zM397 512q-141 0 -246 -91t-105 -231t98 -226t250 -86q240 0 438 219q111 123 220 314q50 88 99 180h-27q-328 0 -528 127q-199 127 -199 311
q0 185 130 285t322 100q250 0 425 -131q28 -21 44 -37l21 -21l-34 -30q-83 83 -231 133q-72 24 -160 25q-177 0 -292 -95t-115 -238q0 -168 177 -273t445 -105h48q151 287 207 379q124 202 250 310t285 108q129 -1 176 -101q17 -36 17 -95t-25 -128t-73 -136
q-103 -143 -290 -247q-188 -104 -433 -132q-130 -238 -213 -350q-158 -214 -319 -320q-161 -107 -355 -107t-329 103t-135 280t123 278t295 101t320 -94q46 -29 80 -64l-30 -32q-122 117 -331 117zM1970 1539l-59 120l-165 -120h-69l217 194h85l39 -194h-48z" />
    <glyph glyph-name="scircumflex" unicode="&#x15d;" horiz-adv-x="560" 
d="M82 -47q-170 0 -194 142l36 7q0 -21 27 -50t73 -29q46 1 77 19t54 48t39 68t26 80q10 41 13 80q4 39 4 71q-1 32 -3 71q-2 38 -5 74t-5 62t-3 35v2q-36 -39 -111 -163q-74 -124 -74 -125l-36 28q1 1 25 43q126 220 256 402l40 -33q-5 -9 -13 -19t-21 -34q-13 -23 -13 -55
q0 -31 10 -67q56 -190 56 -296q0 -160 -84 -261q156 84 304 320l34 -30q-161 -265 -357 -355q-75 -34 -155 -35zM448 927l-59 120l-165 -120h-69l217 194h85l39 -194h-48z" />
    <glyph glyph-name="Scedilla" unicode="&#x15e;" horiz-adv-x="1752" 
d="M2061 1236q0 149 -121 149q-169 1 -330 -225q-82 -115 -161 -264t-129 -242q356 47 566 253q116 115 156 231q18 54 19 98zM373 -367q0 67 -62 67q-24 0 -64 -15l-19 26l83 118q-158 23 -265 121q-106 98 -106 266t123 268q123 101 295 101t320 -94q46 -29 80 -64
l-30 -32q-122 117 -331 117q-141 0 -246 -91t-105 -231t98 -226t250 -86q240 0 438 219q111 123 220 314q50 88 99 180h-27q-328 0 -528 127q-199 127 -199 311q0 185 130 285t322 100q250 0 425 -131q28 -21 44 -37l21 -21l-34 -30q-83 83 -231 133q-72 24 -160 25
q-177 0 -292 -95t-115 -238q0 -168 177 -273t445 -105h48q151 287 207 379q124 202 250 310t285 108q129 -1 176 -101q17 -36 17 -95t-25 -128t-73 -136q-103 -143 -290 -247q-188 -104 -433 -132q-130 -238 -213 -350q-158 -214 -319 -320q-161 -107 -363 -107h-19
q-9 0 -18 1l-55 -80q16 4 38 4t43 -6t37 -17q16 -13 26 -31t11 -43q0 -52 -54 -90t-138 -38q-85 0 -152 41l20 38q73 -33 109 -33q61 0 95 19t34 45z" />
    <glyph glyph-name="scedilla" unicode="&#x15f;" horiz-adv-x="560" 
d="M-172 -258q73 -33 109 -33q61 0 95 19t34 45t-6 37t-16 18q-9 8 -20 10q-12 2 -28 2t-56 -15l-19 26l78 111q-40 14 -71 48t-40 85l36 7q0 -21 27 -50t73 -29q46 1 77 19t54 48t39 68t26 80q10 41 13 80q4 39 4 71q-1 32 -3 71q-2 38 -5 74t-5 62t-3 35v2
q-36 -39 -111 -163q-74 -124 -74 -125l-36 28q1 1 25 43q126 220 256 402l40 -33q-5 -9 -13 -19t-21 -34q-13 -23 -13 -55q0 -31 10 -67q56 -190 56 -296q0 -160 -84 -261q156 84 304 320l34 -30q-237 -392 -535 -392l-16 1l-46 -68q17 4 39 4t42 -6t36 -17q16 -13 28 -31
q10 -18 10 -43q0 -52 -54 -90t-138 -38q-85 0 -152 41z" />
    <glyph glyph-name="Scaron" unicode="&#x160;" horiz-adv-x="1752" 
d="M2061 1236q0 149 -121 149q-169 1 -330 -225q-82 -115 -161 -264t-129 -242q356 47 566 253q116 115 156 231q18 54 19 98zM397 512q-141 0 -246 -91t-105 -231t98 -226t250 -86q240 0 438 219q111 123 220 314q50 88 99 180h-27q-328 0 -528 127q-199 127 -199 311
q0 185 130 285t322 100q250 0 425 -131q28 -21 44 -37l21 -21l-34 -30q-83 83 -231 133q-72 24 -160 25q-177 0 -292 -95t-115 -238q0 -168 177 -273t445 -105h48q151 287 207 379q124 202 250 310t285 108q129 -1 176 -101q17 -36 17 -95t-25 -128t-73 -136
q-103 -143 -290 -247q-188 -104 -433 -132q-130 -238 -213 -350q-158 -214 -319 -320q-161 -107 -355 -107t-329 103t-135 280t123 278t295 101t320 -94q46 -29 80 -64l-30 -32q-122 117 -331 117zM1802 1733l59 -120l165 120h69l-217 -194h-85l-39 194h48z" />
    <glyph glyph-name="scaron" unicode="&#x161;" horiz-adv-x="560" 
d="M82 -47q-170 0 -194 142l36 7q0 -21 27 -50t73 -29q46 1 77 19t54 48t39 68t26 80q10 41 13 80q4 39 4 71q-1 32 -3 71q-2 38 -5 74t-5 62t-3 35v2q-36 -39 -111 -163q-74 -124 -74 -125l-36 28q1 1 25 43q126 220 256 402l40 -33q-5 -9 -13 -19t-21 -34q-13 -23 -13 -55
q0 -31 10 -67q56 -190 56 -296q0 -160 -84 -261q156 84 304 320l34 -30q-161 -265 -357 -355q-75 -34 -155 -35zM280 1121l59 -120l165 120h69l-217 -194h-85l-39 194h48z" />
    <glyph glyph-name="Tcommaaccent" unicode="&#x162;" horiz-adv-x="1562" 
d="M12 227q0 -66 35 -128t92 -103q114 -82 279 -82q286 0 478 295q87 134 181 321q93 187 157 294q148 250 314 388l32 -27q-169 -203 -377 -659q-111 -242 -196 -357q-85 -116 -163 -177q-167 -130 -401 -130q-233 0 -358 108t-125 274q0 64 16 110l50 -15
q-14 -46 -14 -112zM1687 1273q-133 0 -440 33t-416 33q-233 -1 -384 -121q-151 -121 -151 -317q0 -139 90 -218t232 -79t274 62l21 -41q-146 -85 -321 -85t-290 93q-116 93 -116 264t101 291q177 208 559 207q102 -1 405 -35q304 -34 436 -34q357 0 567 138l28 -44
q-227 -147 -595 -147zM300 -331q0 27 20 45t45 18q26 0 44 -19t18 -45q0 -48 -46 -97t-99 -78l-28 33q71 48 91 83q-45 10 -45 60z" />
    <glyph glyph-name="tcommaaccent" unicode="&#x163;" horiz-adv-x="546" 
d="M76 150q0 -66 30 -94t72 -28t82 24t80 59q65 59 124 140q58 81 82 122l37 -28q-97 -162 -164 -230q-66 -69 -129 -105t-122 -37q-100 0 -148 59q-47 59 -47 172q-1 114 103 367q38 94 98 202h-166l20 52h175q143 243 250 342l45 -27q-96 -158 -177 -315h326l-20 -52h-333
q-218 -436 -218 -623zM53 -172q-1 27 19 45t46 18t44 -19t18 -45q0 -48 -46 -97t-99 -78l-28 33q71 48 91 83q-45 10 -45 60z" />
    <glyph glyph-name="Tcaron" unicode="&#x164;" horiz-adv-x="1562" 
d="M12 227q0 -66 35 -128t92 -103q114 -82 279 -82q286 0 478 295q87 134 181 321q93 187 157 294q148 250 314 388l32 -27q-169 -203 -377 -659q-111 -242 -196 -357q-85 -116 -163 -177q-167 -130 -401 -130q-233 0 -358 108t-125 274q0 64 16 110l50 -15
q-14 -46 -14 -112zM1687 1273q-133 0 -440 33t-416 33q-233 -1 -384 -121q-151 -121 -151 -317q0 -139 90 -218t232 -79t274 62l21 -41q-146 -85 -321 -85t-290 93q-116 93 -116 264t101 291q177 208 559 207q102 -1 405 -35q304 -34 436 -34q357 0 567 138l28 -44
q-227 -147 -595 -147zM1431 1709l59 -120l165 120h69l-217 -194h-85l-39 194h48z" />
    <glyph glyph-name="tcaron" unicode="&#x165;" horiz-adv-x="546" 
d="M76 150q0 -66 30 -94t72 -28t82 24t80 59q65 59 124 140q58 81 82 122l37 -28q-97 -162 -164 -230q-66 -69 -129 -105t-122 -37q-100 0 -148 59q-47 59 -47 172q-1 114 103 367q38 94 98 202h-166l20 52h175q143 243 250 342l45 -27q-96 -158 -177 -315h326l-20 -52h-333
q-218 -436 -218 -623zM618 1144q0 27 20 45t45 18q26 0 44 -19t18 -45q0 -48 -46 -97t-99 -78l-28 33q71 48 91 83q-45 10 -45 60z" />
    <glyph glyph-name="Tbar" unicode="&#x166;" horiz-adv-x="1562" 
d="M1687 1273q-133 0 -440 33t-416 33q-233 -1 -384 -121q-151 -121 -151 -317q0 -139 90 -218t232 -79t274 62l21 -41q-146 -85 -321 -85t-290 93q-116 93 -116 264t101 291q177 208 559 207q102 -1 405 -35q304 -34 436 -34q357 0 567 138l28 -44q-227 -147 -595 -147z
M12 227q0 -66 35 -128t92 -103q114 -82 279 -82q285 0 479 296q91 139 184 325q92 186 156 293h-309l30 65h319q130 200 271 319l32 -27q-100 -121 -196 -292h310l-30 -65h-315q-61 -119 -115 -237t-110 -225q-56 -108 -118 -200q-206 -305 -572 -304q-223 0 -349 108
q-125 108 -125 274q0 64 16 110l50 -15q-14 -46 -14 -112z" />
    <glyph glyph-name="tbar" unicode="&#x167;" horiz-adv-x="546" 
d="M76 150q0 -66 30 -94t72 -28t82 24t80 59q65 59 124 140q58 81 82 122l37 -28q-97 -162 -164 -230q-66 -69 -129 -105t-122 -37q-195 0 -195 223q0 106 80 316h-119l25 55h116q40 95 99 206h-186l20 52h195q143 243 250 342l45 -27q-96 -158 -177 -315h376l-20 -52h-383
q-53 -105 -97 -206h317l-25 -55h-315q-98 -237 -98 -362z" />
    <glyph glyph-name="Utilde" unicode="&#x168;" horiz-adv-x="2374" 
d="M60 828q0 108 52 206t149 173q211 165 535 165q240 0 394 -114t156 -309q2 -194 -230 -492q-146 -188 -189 -265q-43 -78 -43 -120q0 -80 52 -127t159 -47q106 0 211 60t205 164q99 104 197 242t200 296t210 325q109 168 231 330l45 -25q-66 -124 -199 -357
q-238 -417 -329 -594q-90 -177 -90 -242t34 -93t84 -27q48 0 96 19q48 18 93 50q130 91 291 327l37 -28q-193 -319 -404 -399q-54 -20 -109 -21q-101 0 -153 57t-52 129q0 71 18 139q-184 -218 -331 -313q-147 -96 -324 -96t-241 133q-21 44 -21 110t35 144q35 76 87 152
t114 154q236 295 235 445q0 150 -118 245t-352 95q-299 0 -459 -150q-161 -150 -161 -339q0 -142 92 -210q92 -67 228 -67t266 76q24 14 25 15l26 -38q-167 -133 -374 -133q-156 0 -267 90t-111 265zM1909 1468q55 0 107 101l34 -16q-60 -156 -160 -156q-46 -1 -86 59
q-16 22 -29 42q-14 18 -42 18t-66 -51q-18 -22 -32 -50l-34 16q60 156 160 156q31 -1 51 -19t34 -40q16 -22 30 -42q14 -18 33 -18z" />
    <glyph glyph-name="utilde" unicode="&#x169;" horiz-adv-x="888" 
d="M544 -15q-76 0 -103 68q-8 20 -8 56t33 109q-103 -121 -164 -165q-112 -82 -190 -82t-125 51t-47 130q0 236 318 535l43 -30q-116 -171 -160 -251q-98 -177 -98 -279q0 -103 75 -103q162 0 459 429q104 150 171 270l73 -36q-57 -115 -111 -213t-120 -223t-66 -169
q0 -45 25 -45q111 -3 339 336l36 -28q-216 -360 -380 -360zM643 935q55 0 107 101l34 -16q-60 -156 -160 -156q-46 0 -86 60q-16 22 -29 40q-14 18 -42 19q-28 0 -66 -51q-18 -22 -32 -50l-34 16q60 156 160 156q31 0 51 -18t34 -42q16 -22 30 -40t33 -19z" />
    <glyph glyph-name="Umacron" unicode="&#x16a;" horiz-adv-x="2374" 
d="M60 828q0 108 52 206t149 173q211 165 535 165q240 0 394 -114t156 -309q2 -194 -230 -492q-146 -188 -189 -265q-43 -78 -43 -120q0 -80 52 -127t159 -47q106 0 211 60t205 164q99 104 197 242t200 296t210 325q109 168 231 330l45 -25q-66 -124 -199 -357
q-238 -417 -329 -594q-90 -177 -90 -242t34 -93t84 -27q48 0 96 19q48 18 93 50q130 91 291 327l37 -28q-193 -319 -404 -399q-54 -20 -109 -21q-101 0 -153 57t-52 129q0 71 18 139q-184 -218 -331 -313q-147 -96 -324 -96t-241 133q-21 44 -21 110t35 144q35 76 87 152
t114 154q236 295 235 445q0 150 -118 245t-352 95q-299 0 -459 -150q-161 -150 -161 -339q0 -142 92 -210q92 -67 228 -67t266 76q24 14 25 15l26 -38q-167 -133 -374 -133q-156 0 -267 90t-111 265zM1638 1458l21 69h358l-21 -69h-358z" />
    <glyph glyph-name="umacron" unicode="&#x16b;" horiz-adv-x="888" 
d="M544 -15q-76 0 -103 68q-8 20 -8 56t33 109q-103 -121 -164 -165q-112 -82 -190 -82t-125 51t-47 130q0 236 318 535l43 -30q-116 -171 -160 -251q-98 -177 -98 -279q0 -103 75 -103q162 0 459 429q104 150 171 270l73 -36q-57 -115 -111 -213t-120 -223t-66 -169
q0 -45 25 -45q111 -3 339 336l36 -28q-216 -360 -380 -360zM372 925l21 69h358l-21 -69h-358z" />
    <glyph glyph-name="Ubreve" unicode="&#x16c;" horiz-adv-x="2374" 
d="M60 828q0 108 52 206t149 173q211 165 535 165q240 0 394 -114t156 -309q2 -194 -230 -492q-146 -188 -189 -265q-43 -78 -43 -120q0 -80 52 -127t159 -47q106 0 211 60t205 164q99 104 197 242t200 296t210 325q109 168 231 330l45 -25q-66 -124 -199 -357
q-238 -417 -329 -594q-90 -177 -90 -242t34 -93t84 -27q48 0 96 19q48 18 93 50q130 91 291 327l37 -28q-193 -319 -404 -399q-54 -20 -109 -21q-101 0 -153 57t-52 129q0 71 18 139q-184 -218 -331 -313q-147 -96 -324 -96t-241 133q-21 44 -21 110t35 144q35 76 87 152
t114 154q236 295 235 445q0 150 -118 245t-352 95q-299 0 -459 -150q-161 -150 -161 -339q0 -142 92 -210q92 -67 228 -67t266 76q24 14 25 15l26 -38q-167 -133 -374 -133q-156 0 -267 90t-111 265zM1664 1448q-47 59 -28 144h48q-4 -66 47 -103q25 -19 79 -19q86 0 148 61
q26 26 42 61h48q-22 -85 -96 -144t-158 -59q-83 -1 -130 59z" />
    <glyph glyph-name="ubreve" unicode="&#x16d;" horiz-adv-x="888" 
d="M544 -15q-76 0 -103 68q-8 20 -8 56t33 109q-103 -121 -164 -165q-112 -82 -190 -82t-125 51t-47 130q0 236 318 535l43 -30q-116 -171 -160 -251q-98 -177 -98 -279q0 -103 75 -103q162 0 459 429q104 150 171 270l73 -36q-57 -115 -111 -213t-120 -223t-66 -169
q0 -45 25 -45q111 -3 339 336l36 -28q-216 -360 -380 -360zM398 916q-47 59 -28 143h48q-4 -66 47 -103q25 -19 79 -19q86 0 148 61q26 26 42 61h48q-22 -85 -96 -144t-158 -59q-83 0 -130 60z" />
    <glyph glyph-name="Uring" unicode="&#x16e;" horiz-adv-x="2374" 
d="M60 828q0 108 52 206t149 173q211 165 535 165q240 0 394 -114t156 -309q2 -194 -230 -492q-146 -188 -189 -265q-43 -78 -43 -120q0 -80 52 -127t159 -47q106 0 211 60t205 164q99 104 197 242t200 296t210 325q109 168 231 330l45 -25q-66 -124 -199 -357
q-238 -417 -329 -594q-90 -177 -90 -242t34 -93t84 -27q48 0 96 19q48 18 93 50q130 91 291 327l37 -28q-193 -319 -404 -399q-54 -20 -109 -21q-101 0 -153 57t-52 129q0 71 18 139q-184 -218 -331 -313q-147 -96 -324 -96t-241 133q-21 44 -21 110t35 144q35 76 87 152
t114 154q236 295 235 445q0 150 -118 245t-352 95q-299 0 -459 -150q-161 -150 -161 -339q0 -142 92 -210q92 -67 228 -67t266 76q24 14 25 15l26 -38q-167 -133 -374 -133q-156 0 -267 90t-111 265zM1876 1491q0 29 -21 51t-52 22t-53 -22t-21 -52q-1 -30 21 -52t53 -22
t52 22t21 53zM1924 1490q0 -50 -35 -85q-35 -36 -73 -36q-65 0 -100 35q-34 35 -34 73q0 64 35 99t73 35t60 -9q22 -10 39 -26q35 -36 35 -86z" />
    <glyph glyph-name="uring" unicode="&#x16f;" horiz-adv-x="888" 
d="M544 -15q-76 0 -103 68q-8 20 -8 56t33 109q-103 -121 -164 -165q-112 -82 -190 -82t-125 51t-47 130q0 236 318 535l43 -30q-116 -171 -160 -251q-98 -177 -98 -279q0 -103 75 -103q162 0 459 429q104 150 171 270l73 -36q-57 -115 -111 -213t-120 -223t-66 -169
q0 -45 25 -45q111 -3 339 336l36 -28q-216 -360 -380 -360zM610 958q0 30 -21 52t-52 21q-31 1 -53 -21t-21 -53q-1 -31 21 -53t53 -21t52 23t21 52zM658 958q0 -50 -35 -86t-73 -36q-65 0 -100 35q-34 35 -34 73q0 64 35 99t73 35t60 -9t39 -25q35 -36 35 -86z" />
    <glyph glyph-name="Uhungarumlaut" unicode="&#x170;" horiz-adv-x="2374" 
d="M60 828q0 108 52 206t149 173q211 165 535 165q240 0 394 -114t156 -309q2 -194 -230 -492q-146 -188 -189 -265q-43 -78 -43 -120q0 -80 52 -127t159 -47q106 0 211 60t205 164q99 104 197 242t200 296t210 325q109 168 231 330l45 -25q-66 -124 -199 -357
q-238 -417 -329 -594q-90 -177 -90 -242t34 -93t84 -27q48 0 96 19q48 18 93 50q130 91 291 327l37 -28q-193 -319 -404 -399q-54 -20 -109 -21q-101 0 -153 57t-52 129q0 71 18 139q-184 -218 -331 -313q-147 -96 -324 -96t-241 133q-21 44 -21 110t35 144q35 76 87 152
t114 154q236 295 235 445q0 150 -118 245t-352 95q-299 0 -459 -150q-161 -150 -161 -339q0 -142 92 -210q92 -67 228 -67t266 76q24 14 25 15l26 -38q-167 -133 -374 -133q-156 0 -267 90t-111 265zM1937 1389h-69l178 194h125zM1741 1389h-69l178 194h125z" />
    <glyph glyph-name="uhungarumlaut" unicode="&#x171;" horiz-adv-x="888" 
d="M544 -15q-76 0 -103 68q-8 20 -8 56t33 109q-103 -121 -164 -165q-112 -82 -190 -82t-125 51t-47 130q0 236 318 535l43 -30q-116 -171 -160 -251q-98 -177 -98 -279q0 -103 75 -103q162 0 459 429q104 150 171 270l73 -36q-57 -115 -111 -213t-120 -223t-66 -169
q0 -45 25 -45q111 -3 339 336l36 -28q-216 -360 -380 -360zM671 856h-69l178 194h125zM475 856h-69l178 194h125z" />
    <glyph glyph-name="Uogonek" unicode="&#x172;" horiz-adv-x="2374" 
d="M60 828q0 108 52 206t149 173q211 165 535 165q240 0 394 -114t156 -309q2 -194 -230 -492q-146 -188 -189 -265q-43 -78 -43 -120q0 -80 52 -127t159 -47q106 0 211 60t205 164q99 104 197 242t200 296t210 325q109 168 231 330l45 -25q-66 -124 -199 -357
q-238 -417 -329 -594q-90 -177 -90 -242t34 -93t84 -27q48 0 96 19q48 18 93 50q130 91 291 327l37 -28q-176 -294 -375 -387q-94 -42 -134 -110q-15 -26 -15 -56t23 -46t50 -17q27 0 67 15l-10 -42q-53 -23 -105 -23q-52 -1 -83 29t-31 71q0 78 104 146h-7q-98 0 -150 57
t-52 129q0 71 18 139q-184 -218 -331 -313q-147 -96 -324 -96t-241 133q-21 44 -21 110t35 144q35 76 87 152t114 154q236 295 235 445q0 150 -118 245t-352 95q-299 0 -459 -150q-161 -150 -161 -339q0 -142 92 -210q92 -67 228 -67t266 76q24 14 25 15l26 -38
q-167 -133 -374 -133q-156 0 -267 90t-111 265z" />
    <glyph glyph-name="uogonek" unicode="&#x173;" horiz-adv-x="888" 
d="M470 -151q0 -41 23 -57t50 -16t67 15l-10 -42q-53 -23 -105 -23t-83 30t-31 70q0 92 132 163q-38 9 -59 39t-21 74t33 116q-103 -121 -164 -165q-112 -82 -190 -82t-125 51t-47 130q0 236 318 535l43 -30q-116 -171 -160 -251q-98 -177 -98 -279q0 -103 75 -103
q162 0 459 429q104 150 171 270l73 -36q-57 -115 -111 -213t-120 -223t-66 -169q0 -45 25 -45q111 -3 339 336l36 -28q-110 -195 -246 -303q-38 -30 -68 -42q-59 -23 -99 -67q-41 -44 -41 -84z" />
    <glyph glyph-name="Wcircumflex" unicode="&#x174;" horiz-adv-x="2779" 
d="M2727 1010q0 82 -34 82q-17 0 -29 -34t-11 -101q0 -67 31 -148q43 119 43 201zM1095 -188q-150 0 -150 150q0 81 46 155q45 74 91 137t96 132q127 177 198 309q72 132 72 232q0 195 -142 309q-142 115 -380 115q-328 -1 -540 -181q-100 -84 -156 -198t-55 -222
q0 -187 98 -287q98 -101 269 -101q172 0 309 119t213 311l45 -16q-196 -488 -637 -488q-185 0 -298 119q-114 119 -114 308q0 237 154 405q128 141 322 213q194 71 344 71q293 0 465 -133q173 -133 173 -376q0 -209 -154 -439q-78 -117 -142 -203t-134 -183t-71 -133
q0 -72 79 -72q107 0 298 142q313 231 604 689q177 279 286 538l49 -20q-129 -430 -349 -827q-180 -318 -180 -402q0 -59 76 -59q110 0 313 166t341 400q77 134 123 248q-57 112 -57 211q0 193 93 193q86 0 86 -142q0 -132 -115 -376q-85 -181 -168 -287q-82 -106 -146 -172
q-129 -134 -257 -214q-129 -81 -213 -81q-169 0 -169 151q0 78 38 162q38 85 139 261q-289 -384 -570 -554q-134 -80 -223 -80zM2419 1334l-59 120l-165 -120h-69l217 194h85l39 -194h-48z" />
    <glyph glyph-name="wcircumflex" unicode="&#x175;" horiz-adv-x="1011" 
d="M892 595q0 71 -13 80q-8 0 -26 -33q-17 -33 -17 -97q0 -65 17 -114q39 93 39 164zM-40 173q0 131 79 276q79 144 195 244l43 -28q-160 -244 -201 -433q-12 -55 -12 -95q0 -92 53 -92q63 0 157 116t157 266l1 -1q61 151 134 267l45 -28q-139 -384 -139 -533q0 -86 39 -86
q66 0 161 103t153 221q-40 74 -40 147q0 114 29 162q29 47 61 47q70 0 70 -108t-64 -248q40 -57 105 -59l-9 -48q-70 4 -119 59q-115 -220 -273 -302q-54 -28 -93 -28q-130 0 -130 148q0 35 5 63q-136 -211 -259 -211q-148 0 -148 181zM737 856l-59 120l-165 -120h-69
l217 194h85l39 -194h-48z" />
    <glyph glyph-name="Ycircumflex" unicode="&#x176;" horiz-adv-x="2023" 
d="M969 692q-207 -226 -499 -226q-163 0 -276 94t-113 278q0 183 133 324t332 215q199 73 406 73t335 -113t128 -318q1 -257 -203 -524q-52 -69 -98 -127t-76 -106t-30 -81q0 -61 30 -93q71 -76 220 0q203 103 453 419q285 502 559 769l33 -32q-207 -250 -435 -668
q-92 -170 -178 -336t-177 -313q-91 -148 -193 -274q-335 -412 -867 -412q-254 0 -423 114q-190 128 -190 361t192 371q161 115 359 115q146 0 246 -31l-17 -49q-97 29 -200 29q-202 0 -336 -124q-133 -124 -133 -316t144 -302q144 -111 371 -111q375 0 655 296
q162 171 316 433q73 124 147 255q-132 -141 -217 -193t-143 -71t-106 -19q-99 0 -164 49q-64 49 -64 132q0 84 52 168t145 189q262 299 262 513q0 178 -118 262q-118 85 -296 85q-279 0 -499 -144q-148 -97 -208 -241q-30 -74 -30 -151q0 -145 88 -229q89 -84 245 -85
q155 0 311 102q50 33 96 76zM1926 1384l-59 120l-165 -120h-69l217 194h85l39 -194h-48z" />
    <glyph glyph-name="ycircumflex" unicode="&#x177;" horiz-adv-x="887" 
d="M-316 -781q0 -78 71 -78q133 -1 321 341q73 133 147 304q-227 -140 -385 -310q-72 -78 -113 -148q-41 -69 -41 -109zM136 22q-78 0 -124 56t-47 131q0 127 83 257q83 129 189 221l43 -30q-216 -306 -216 -482q0 -101 74 -101q128 0 345 275q90 114 143 202q54 87 86 141
t64 105l47 -24q-24 -49 -59 -121q-36 -72 -74 -152q-109 -226 -255 -536q270 149 452 409l37 -28q-169 -258 -527 -461q-185 -397 -321 -577q-167 -220 -321 -220q-54 0 -90 36q-36 35 -36 97t25 121t69 119q87 118 235 229q148 112 311 194q114 238 174 340
q-182 -201 -307 -201zM648 856l-59 120l-165 -120h-69l217 194h85l39 -194h-48z" />
    <glyph glyph-name="Ydieresis" unicode="&#x178;" horiz-adv-x="2023" 
d="M969 692q-207 -226 -499 -226q-163 0 -276 94t-113 278q0 183 133 324t332 215q199 73 406 73t335 -113t128 -318q1 -257 -203 -524q-52 -69 -98 -127t-76 -106t-30 -81q0 -61 30 -93q71 -76 220 0q203 103 453 419q285 502 559 769l33 -32q-207 -250 -435 -668
q-92 -170 -178 -336t-177 -313q-91 -148 -193 -274q-335 -412 -867 -412q-254 0 -423 114q-190 128 -190 361t192 371q161 115 359 115q146 0 246 -31l-17 -49q-97 29 -200 29q-202 0 -336 -124q-133 -124 -133 -316t144 -302q144 -111 371 -111q375 0 655 296
q162 171 316 433q73 124 147 255q-132 -141 -217 -193t-143 -71t-106 -19q-99 0 -164 49q-64 49 -64 132q0 84 52 168t145 189q262 299 262 513q0 178 -118 262q-118 85 -296 85q-279 0 -499 -144q-148 -97 -208 -241q-30 -74 -30 -151q0 -145 88 -229q89 -84 245 -85
q155 0 311 102q50 33 96 76zM1806 1479q0 -29 -22 -51t-51 -22q-30 0 -51 22t-21 51t21 51t51 22q29 0 51 -22t22 -51zM2019 1479q1 -29 -21 -51t-52 -22t-51 22t-21 51t21 51t51 22t52 -22t21 -51z" />
    <glyph glyph-name="Zacute" unicode="&#x179;" horiz-adv-x="1517" 
d="M421 65q0 -43 83 -43t159 43q-73 43 -130 43q-112 0 -112 -43zM185 -772q0 -45 33 -66q12 -7 34 -7q22 -1 68 27t99 74q116 102 216 250q99 148 123 279q-242 -127 -408 -285q-165 -158 -165 -272zM275 -915q-62 0 -102 41t-40 97q1 55 25 109t68 110q87 109 232 216
t306 189q0 109 -50 173q-98 -46 -181 -46q-165 0 -165 87q0 45 42 71t125 26q84 0 172 -63q79 45 145 123t130 176q66 100 136 214q276 449 626 688q-147 -32 -279 -32q-174 0 -447 44q-272 44 -379 45q-204 0 -334 -126q-129 -126 -129 -281t98 -244t238 -89q141 0 242 41
t124 63l30 -43q-185 -125 -400 -125t-332 108q-116 108 -116 270q0 218 165 349q165 132 432 132q107 0 287 -32t286 -45q106 -14 216 -14q226 0 434 73l23 -46q-316 -222 -544 -572q-67 -104 -163 -260q-96 -154 -210 -278t-224 -189q61 -67 80 -156q278 147 370 208
q192 127 305 276l37 -28q-153 -206 -472 -386q-103 -58 -232 -126l1 -31q0 -142 -95 -312t-231 -288q-135 -117 -250 -117zM1124 1496h-69l178 194h125z" />
    <glyph glyph-name="zacute" unicode="&#x17a;" horiz-adv-x="760" 
d="M129 58q-36 0 -36 -19t36 -19t64 20q-28 18 -64 18zM-451 -770q0 -79 74 -79q60 1 128 51q168 125 335 356q107 149 140 263l-147 -83q-409 -227 -507 -422q-24 -47 -23 -86zM-365 -915q-71 0 -105 44q-33 44 -33 100q0 116 144 262t412 291q47 26 93 51t92 52l1 21
q0 56 -17 88q-54 -22 -92 -22t-63 18t-25 48t28 48t74 18t90 -34q94 74 166 216q72 143 72 247t-63 129q-19 7 -49 7t-68 -20q-38 -19 -70 -51q-34 -32 -62 -70t-52 -74t-41 -66q-18 -30 -30 -43l-37 28q12 15 30 47t44 71q65 101 137 166t162 65t146 -58t56 -141
q0 -149 -86 -285t-211 -216q29 -53 36 -90q285 179 446 441l36 -28q-136 -227 -344 -379q-64 -48 -135 -90q-7 -174 -128 -358q-120 -184 -283 -309q-162 -124 -271 -124zM424 856h-69l178 194h125z" />
    <glyph glyph-name="Zdotaccent" unicode="&#x17b;" horiz-adv-x="1517" 
d="M421 65q0 -43 83 -43t159 43q-73 43 -130 43q-112 0 -112 -43zM185 -772q0 -45 33 -66q12 -7 34 -7q22 -1 68 27t99 74q116 102 216 250q99 148 123 279q-242 -127 -408 -285q-165 -158 -165 -272zM275 -915q-62 0 -102 41t-40 97q1 55 25 109t68 110q87 109 232 216
t306 189q0 109 -50 173q-98 -46 -181 -46q-165 0 -165 87q0 45 42 71t125 26q84 0 172 -63q79 45 145 123t130 176q66 100 136 214q276 449 626 688q-147 -32 -279 -32q-174 0 -447 44q-272 44 -379 45q-204 0 -334 -126q-129 -126 -129 -281t98 -244t238 -89q141 0 242 41
t124 63l30 -43q-185 -125 -400 -125t-332 108q-116 108 -116 270q0 218 165 349q165 132 432 132q107 0 287 -32t286 -45q106 -14 216 -14q226 0 434 73l23 -46q-316 -222 -544 -572q-67 -104 -163 -260q-96 -154 -210 -278t-224 -189q61 -67 80 -156q278 147 370 208
q192 127 305 276l37 -28q-153 -206 -472 -386q-103 -58 -232 -126l1 -31q0 -142 -95 -312t-231 -288q-135 -117 -250 -117zM1245 1591q0 -29 -21 -51t-51 -22q-29 0 -51 22t-22 51q0 30 22 51t51 21q30 0 51 -21t21 -51z" />
    <glyph glyph-name="zdotaccent" unicode="&#x17c;" horiz-adv-x="760" 
d="M129 58q-36 0 -36 -19t36 -19t64 20q-28 18 -64 18zM-451 -770q0 -79 74 -79q60 1 128 51q168 125 335 356q107 149 140 263l-147 -83q-409 -227 -507 -422q-24 -47 -23 -86zM-365 -915q-71 0 -105 44q-33 44 -33 100q0 116 144 262t412 291q47 26 93 51t92 52l1 21
q0 56 -17 88q-54 -22 -92 -22t-63 18t-25 48t28 48t74 18t90 -34q94 74 166 216q72 143 72 247t-63 129q-19 7 -49 7t-68 -20q-38 -19 -70 -51q-34 -32 -62 -70t-52 -74t-41 -66q-18 -30 -30 -43l-37 28q12 15 30 47t44 71q65 101 137 166t162 65t146 -58t56 -141
q0 -149 -86 -285t-211 -216q29 -53 36 -90q285 179 446 441l36 -28q-136 -227 -344 -379q-64 -48 -135 -90q-7 -174 -128 -358q-120 -184 -283 -309q-162 -124 -271 -124zM545 951q0 -29 -21 -51t-51 -22q-29 0 -51 22t-22 51q0 30 22 51t51 21q30 0 51 -21t21 -51z" />
    <glyph glyph-name="Zcaron" unicode="&#x17d;" horiz-adv-x="1517" 
d="M421 65q0 -43 83 -43t159 43q-73 43 -130 43q-112 0 -112 -43zM185 -772q0 -45 33 -66q12 -7 34 -7q22 -1 68 27t99 74q116 102 216 250q99 148 123 279q-242 -127 -408 -285q-165 -158 -165 -272zM275 -915q-62 0 -102 41t-40 97q1 55 25 109t68 110q87 109 232 216
t306 189q0 109 -50 173q-98 -46 -181 -46q-165 0 -165 87q0 45 42 71t125 26q84 0 172 -63q79 45 145 123t130 176q66 100 136 214q276 449 626 688q-147 -32 -279 -32q-174 0 -447 44q-272 44 -379 45q-204 0 -334 -126q-129 -126 -129 -281t98 -244t238 -89q141 0 242 41
t124 63l30 -43q-185 -125 -400 -125t-332 108q-116 108 -116 270q0 218 165 349q165 132 432 132q107 0 287 -32t286 -45q106 -14 216 -14q226 0 434 73l23 -46q-316 -222 -544 -572q-67 -104 -163 -260q-96 -154 -210 -278t-224 -189q61 -67 80 -156q278 147 370 208
q192 127 305 276l37 -28q-153 -206 -472 -386q-103 -58 -232 -126l1 -31q0 -142 -95 -312t-231 -288q-135 -117 -250 -117zM1091 1690l59 -120l165 120h69l-217 -194h-85l-39 194h48z" />
    <glyph glyph-name="zcaron" unicode="&#x17e;" horiz-adv-x="760" 
d="M129 58q-36 0 -36 -19t36 -19t64 20q-28 18 -64 18zM-451 -770q0 -79 74 -79q60 1 128 51q168 125 335 356q107 149 140 263l-147 -83q-409 -227 -507 -422q-24 -47 -23 -86zM-365 -915q-71 0 -105 44q-33 44 -33 100q0 116 144 262t412 291q47 26 93 51t92 52l1 21
q0 56 -17 88q-54 -22 -92 -22t-63 18t-25 48t28 48t74 18t90 -34q94 74 166 216q72 143 72 247t-63 129q-19 7 -49 7t-68 -20q-38 -19 -70 -51q-34 -32 -62 -70t-52 -74t-41 -66q-18 -30 -30 -43l-37 28q12 15 30 47t44 71q65 101 137 166t162 65t146 -58t56 -141
q0 -149 -86 -285t-211 -216q29 -53 36 -90q285 179 446 441l36 -28q-136 -227 -344 -379q-64 -48 -135 -90q-7 -174 -128 -358q-120 -184 -283 -309q-162 -124 -271 -124zM391 1050l59 -120l165 120h69l-217 -194h-85l-39 194h48z" />
    <glyph glyph-name="florin" unicode="&#x192;" horiz-adv-x="922" 
d="M476 820q255 643 462 643q88 0 120 -87q10 -26 17 -56l-76 -10q-1 8 -5 26q-16 78 -49 78q-133 0 -327 -542l-19 -52h244l-27 -55h-236q-22 -63 -36 -105t-25 -70q-10 -29 -17 -50q-8 -21 -14 -42q-13 -44 -36 -114q-254 -774 -434 -1016q-119 -162 -214 -161
q-94 0 -126 87q-10 26 -18 56l76 10q0 -94 51 -94q131 0 346 562q92 239 158 450q102 327 163 487h-230l27 55h225z" />
    <glyph glyph-name="AEacute" unicode="&#x1fc;" horiz-adv-x="3237" 
d="M2792 587q54 0 54 34q0 78 -244 83q56 -82 142 -109q26 -8 48 -8zM1771 179q-100 320 -250 544q-160 -181 -297 -347q178 -98 434 -169q66 -18 113 -28zM916 749q0 -187 262 -346q171 208 311 365q-164 215 -327 215q-105 0 -176 -67q-70 -67 -70 -167zM2414 1301
q0 35 -27 51t-62 17q-220 0 -765 -603q126 -194 255 -558q262 570 549 984q50 74 50 109zM3348 1217q0 142 -220 142q-135 -1 -278 -75q-134 -70 -216 -182q-84 -114 -84 -231q0 -59 22 -112q327 -9 327 -140q0 -40 -30 -61q-31 -21 -71 -21q-77 0 -151 45q-75 45 -127 120
q-223 -18 -369 -162t-146 -339q0 -161 107 -252q107 -92 312 -92q356 0 686 359q52 56 85 100q32 44 42 57l36 -28q-87 -125 -150 -192q-321 -348 -721 -348q-308 1 -444 179q-40 54 -60 116q-63 -147 -63 -151l-119 37l60 137q-352 79 -590 208q-352 -406 -694 -406
q-208 0 -370 117t-162 306q0 153 107 237q107 83 274 83q220 0 371 -126q55 -46 94 -114l-44 -28q-19 38 -73 75t-129 68t-177 31q-103 0 -159 -26t-94 -64q-74 -78 -74 -184q0 -197 238 -286q358 -133 712 204q72 68 133 139q-314 189 -314 440q0 116 81 199t199 83
q232 0 424 -267q546 609 798 609q61 0 94 -27q59 -48 59 -110t-40 -141t-115 -202t-143 -253q127 61 304 71q-38 76 -38 155q0 80 26 148t72 126q88 111 234 177q147 66 299 66q229 -1 299 -127q22 -40 22 -88q0 -50 -22 -96t-58 -84q-72 -74 -185 -115q-114 -42 -227 -42
q-18 0 -29 1t-13 1l6 52q3 -1 8 -1h24q164 0 304 82t140 203zM2697 1531h-69l178 194h125z" />
    <glyph glyph-name="aeacute" unicode="&#x1fd;" horiz-adv-x="1251" 
d="M1045 622q0 59 -61 59q-32 1 -87 -31t-110 -88q-124 -125 -182 -291q185 19 321 146q74 69 105 144q14 34 14 61zM41 141q0 -124 99 -124t198 91q98 91 166 204q37 123 132 224q-8 110 -121 110q-169 0 -341 -207q-58 -69 -96 -153t-37 -145zM750 638q130 94 228 94
t136 -78q14 -28 14 -74t-24 -92t-66 -86q-79 -77 -207 -125q-127 -47 -234 -49q-4 -24 -4 -54q0 -70 43 -121t119 -51q263 0 496 371l34 -30q-183 -305 -402 -376q-65 -21 -116 -21q-111 0 -187 52q-94 65 -94 192v15q0 7 1 15q-186 -256 -372 -256q-78 0 -132 50
q-53 50 -53 123q0 153 109 296t227 206t229 63q141 0 175 -103l83 130l32 -14q-15 -40 -35 -77zM800 856h-69l178 194h125z" />
    <glyph glyph-name="Oslashacute" unicode="&#x1fe;" horiz-adv-x="1573" 
d="M658 714q-22 -78 -21 -144q0 -66 8 -99l670 673q-63 32 -135 32t-137 -24t-125 -66t-110 -100q-52 -58 -90 -126t-60 -146zM1402 482q79 179 79 354q0 176 -112 273l-703 -707q51 -123 151 -153l-9 -42q-130 19 -212 125l-365 -367q114 -146 329 -146q252 0 488 198
t354 465zM40 307q0 288 142 549t386 420q243 160 526 160q213 0 319 -113l-47 -25q-80 86 -223 86t-263 -48t-230 -133q-219 -169 -363 -438q-143 -269 -143 -527q0 -127 51 -219l366 368q-42 80 -42 176q0 97 24 177q23 80 67 152q90 151 241 244q151 92 320 92
q103 0 183 -45l320 322l46 -44l-313 -315q126 -111 126 -323q0 -266 -179 -541q-179 -276 -434 -416q-181 -99 -360 -99q-231 0 -377 150l-262 -264l-46 44l267 269q-102 140 -102 341zM1105 1536h-69l178 194h125z" />
    <glyph glyph-name="oslashacute" unicode="&#x1ff;" horiz-adv-x="747" 
d="M574 628q-19 56 -57 56t-63 -48q-26 -48 -26 -91q0 -42 2 -62zM586 538v18q0 6 -1 11l-145 -145q26 -98 79 -133q67 131 67 249zM165 15q99 0 182 68t147 163q-64 39 -96 133l-319 -319q28 -45 86 -45zM539 227q-159 -266 -403 -266q-60 0 -112 44l-207 -208l-37 35
l210 210q-40 57 -40 122q0 66 16 118t44 103q55 101 145 188q91 86 180 127l32 -42q-117 -84 -212 -232q-96 -148 -96 -279v-17q0 -8 2 -16l322 323q-7 38 -7 83q0 90 42 153t103 63t93 -68l207 208l37 -35l-227 -228q7 -37 7 -67q0 -137 -74 -274q4 -1 8 -1h9
q104 0 166 102l36 -28q-86 -122 -207 -122q-21 0 -37 4zM498 856h-69l178 194h125z" />
    <glyph glyph-name="dotlessj" unicode="&#x237;" horiz-adv-x="549" 
d="M-603 -744q1 -61 55 -61q98 0 208 161q81 118 229 423q-223 -119 -357 -272q-135 -153 -135 -251zM-534 -858q-126 0 -126 131q0 153 156 313t443 297q33 68 61 127t57 116q126 247 335 553l34 -17q-97 -177 -195 -394q-98 -216 -139 -306q251 139 385 310q40 51 72 101
l36 -28q-135 -203 -355 -359q-80 -56 -179 -115q-80 -175 -130 -272q-51 -97 -111 -180t-122 -145t-124 -96q-62 -36 -98 -36z" />
    <glyph glyph-name="circumflex" unicode="&#x2c6;" horiz-adv-x="500" 
d="M407 856l-59 120l-165 -120h-69l217 194h85l39 -194h-48z" />
    </font>
</defs>
</svg>
